<svg xmlns="http://www.w3.org/2000/svg" xmlns:xlink="http://www.w3.org/1999/xlink" viewBox="0 0 141 57"><defs><style>.cls-1{fill:url(#名称未設定グラデーション_118);}.cls-2{fill:#332e14;}</style><linearGradient id="名称未設定グラデーション_118" x1="716.25" y1="609.48" x2="816.88" y2="551.38" gradientTransform="translate(650.93 -738.07) rotate(90)" gradientUnits="userSpaceOnUse"><stop offset="0" stop-color="#fff7cc"/><stop offset="0.11" stop-color="#fff3af"/><stop offset="0.28" stop-color="#ffed87"/><stop offset="0.42" stop-color="#ffe96f"/><stop offset="0.5" stop-color="#ffe866"/><stop offset="0.58" stop-color="#ffe96f"/><stop offset="0.72" stop-color="#ffed87"/><stop offset="0.89" stop-color="#fff3af"/><stop offset="1" stop-color="#fff7cc"/></linearGradient></defs><title>burogu</title><g id="レイヤー_1" data-name="レイヤー 1"><rect class="cls-1" width="141" height="57" rx="5" ry="5"/></g><g id="レイヤー_5" data-name="レイヤー 5"><path class="cls-2" d="M15.1,18.36a12.07,12.07,0,0,0-2,.21v-2l.32,0a10.21,10.21,0,0,0,1.72.16H43.61c-.7,16.44-8,25.21-23.7,28.43a11.93,11.93,0,0,0-1.55.53l-.61-1.63c4-.16,10.32-4,13.5-8.32,3.55-4.53,5.3-9.87,5.71-17.38Zm26.71-8v5.06H39.37V10.33Zm4.81,0v5.06H44.18V10.33Z"/><path class="cls-2" d="M84.07,16.77V43.24H53.93V16.77ZM59.4,41.61H78.61V18.41H59.4Z"/><path class="cls-2" d="M125.76,20c-2.65,14.92-10.15,22.75-25,26.14a7.48,7.48,0,0,0-1.75.57L98.48,45c3.5-.17,9.42-3.51,12.92-7.26a30.17,30.17,0,0,0,8-17.25H107.86c-2.78,4.93-5.8,7.7-11.67,10.64a5.34,5.34,0,0,0-1.34.9l-.94-1.43c1.75-.33,4.93-3.59,7.09-7.18a28.11,28.11,0,0,0,3.88-11.17l6,1.3-.24.57c0,.13-.12.37-.24.66l-.17.48c-.49,1.35-.85,2.17-1.51,3.59H126Zm-2.61-8.57v5.06H120.7V11.39Zm4.81,0v5.06h-2.44V11.39Z"/></g></svg>