<svg xmlns="http://www.w3.org/2000/svg" xmlns:xlink="http://www.w3.org/1999/xlink" viewBox="0 0 100 57"><defs><style>.cls-1{fill:url(#名称未設定グラデーション_118);}.cls-2{fill:#332e14;}</style><linearGradient id="名称未設定グラデーション_118" x1="793.63" y1="556.35" x2="876.51" y2="508.5" gradientTransform="translate(582.43 -806.57) rotate(90)" gradientUnits="userSpaceOnUse"><stop offset="0" stop-color="#fff7cc"/><stop offset="0.11" stop-color="#fff3af"/><stop offset="0.28" stop-color="#ffed87"/><stop offset="0.42" stop-color="#ffe96f"/><stop offset="0.5" stop-color="#ffe866"/><stop offset="0.58" stop-color="#ffe96f"/><stop offset="0.72" stop-color="#ffed87"/><stop offset="0.89" stop-color="#fff3af"/><stop offset="1" stop-color="#fff7cc"/></linearGradient></defs><title>garou</title><g id="レイヤー_1" data-name="レイヤー 1"><rect class="cls-1" width="100" height="57" rx="5" ry="5"/></g><g id="レイヤー_5" data-name="レイヤー 5"><path class="cls-2" d="M25.7,14.76h-13a18.46,18.46,0,0,0-2.45.16V13a18,18,0,0,0,2.45.16H44.1A17.51,17.51,0,0,0,46.54,13v2a17.51,17.51,0,0,0-2.44-.16H30.92v5.79h4.41a20.77,20.77,0,0,0,3.06-.13,15.33,15.33,0,0,0-.21,3.06V36.37a15.27,15.27,0,0,0,.21,3.06A23.71,23.71,0,0,0,36,39.31H21.46a23.41,23.41,0,0,0-3.06.12,15.92,15.92,0,0,0,.2-3.06V23.48a16.76,16.76,0,0,0-.2-3.06,25.51,25.51,0,0,0,3.06.13H25.7Zm14.4,9a13.45,13.45,0,0,0-.2-2.45h5.79a15.37,15.37,0,0,0-.21,2.45V42.45a15.27,15.27,0,0,0,.21,3.06,23.71,23.71,0,0,0-2.41-.12H14.16a23.41,23.41,0,0,0-3.06.12,15.92,15.92,0,0,0,.2-3.06V23.73a13.45,13.45,0,0,0-.2-2.45h5.79a16.37,16.37,0,0,0-.2,2.45v20H40.1ZM23.42,22.18v6.73H26V22.18Zm0,8.36v7.14H26V30.54Zm9.95-8.36H30.68v6.73h2.69Zm-2.69,15.5h2.69V30.54H30.68Z"/><path class="cls-2" d="M67.15,12.43A12.82,12.82,0,0,0,66.94,10h6.41a15.55,15.55,0,0,0-.21,2.45v2.33h12a17.62,17.62,0,0,0,2.45-.17v2a17.55,17.55,0,0,0-2.45-.16H58.21V26.58c0,8.49-1.83,14.2-6.24,19.13L51.08,47l-1.27-.9.78-1.1c1.79-4.77,2.28-8.69,2.24-18.36v-9a16.69,16.69,0,0,0-.2-3.06,27.71,27.71,0,0,0,3.06.13H67.15Zm2.28,8.81a21.56,21.56,0,0,0,3-.12,16,16,0,0,0-.21,3.06V31A16,16,0,0,0,72.45,34c-1.14-.08-1.43-.13-2.33-.13H64.05V40l.57-.08.57,0c.73-.12,1.3-.2,2.24-.37l.37,0a22.7,22.7,0,0,0-.9-3l-.45-.9L68,34.7l.61.86a61.88,61.88,0,0,1,4.57,5.38l.9,1.06L69,45.26l-.2-1.34c-.25-1.55-.29-1.72-.53-2.86a91.39,91.39,0,0,1-8.65,4.57l-1.39.69-1.67-5.54,1.71-.08c.58-.05.9-.05,1.19-.09V24.18a20.69,20.69,0,0,0-.17-3.06,29.12,29.12,0,0,0,3,.12h1.1V20a13.45,13.45,0,0,0-.2-2.45h5.22a16.37,16.37,0,0,0-.2,2.45v1.22Zm-5.38,1.63v3.71h3.79V22.87Zm0,9.38h3.79v-4H64.05ZM87.62,20.87a68.75,68.75,0,0,1-5.87,8.45c4.12,1.87,6.12,4.52,6.12,8.19,0,3.23-1,4.78-3,4.78a7.41,7.41,0,0,1-3.67-1.06l-1.31-.53-.2-1.64a8.58,8.58,0,0,0,1.71.21c1.35,0,1.84-.65,1.84-2.49a10.57,10.57,0,0,0-2.86-7.46,41.56,41.56,0,0,0,1.55-7.92H79.06V44.24a17.59,17.59,0,0,0,.2,2.45H74.08l0-.45a13.26,13.26,0,0,0,.16-2V22.71a16.69,16.69,0,0,0-.2-3.06,29.12,29.12,0,0,0,3,.12h6.32a39.4,39.4,0,0,0,4.2-.12Z"/></g></svg>