<svg xmlns="http://www.w3.org/2000/svg" xmlns:xlink="http://www.w3.org/1999/xlink" viewBox="0 0 141 57"><defs><style>.cls-1{fill:url(#名称未設定グラデーション_118);}.cls-2{fill:#332e14;}</style><linearGradient id="名称未設定グラデーション_118" x1="504.15" y1="821.59" x2="604.78" y2="763.49" gradientTransform="translate(863.04 -525.96) rotate(90)" gradientUnits="userSpaceOnUse"><stop offset="0" stop-color="#fff7cc"/><stop offset="0.11" stop-color="#fff3af"/><stop offset="0.28" stop-color="#ffed87"/><stop offset="0.42" stop-color="#ffe96f"/><stop offset="0.5" stop-color="#ffe866"/><stop offset="0.58" stop-color="#ffe96f"/><stop offset="0.72" stop-color="#ffed87"/><stop offset="0.89" stop-color="#fff3af"/><stop offset="1" stop-color="#fff7cc"/></linearGradient></defs><title>goaisatsu</title><g id="レイヤー_1" data-name="レイヤー 1"><rect class="cls-1" width="141" height="57" rx="5" ry="5"/></g><g id="レイヤー_5" data-name="レイヤー 5"><path class="cls-2" d="M41.81,44.55c-2,.08-2.16.08-4.16.24-1.43.09-4.24.17-6.89.17-5.83,0-8.85-.37-11.22-1.31A7.62,7.62,0,0,1,14.48,36a10.86,10.86,0,0,1,4.12-8.19,4.79,4.79,0,0,0,1.07-1.1L20.93,28a7.89,7.89,0,0,0-3.63,6.57,4.34,4.34,0,0,0,3.51,4.52c1.71.49,4.44.74,8.93.74A64.39,64.39,0,0,0,41.81,39ZM19.71,17.06a15.67,15.67,0,0,0-2.45.16v-2a12.56,12.56,0,0,0,2.45.17H36.35a18.35,18.35,0,0,0,2.85-.21v2.12c-3.22.09-8.64,2.45-12.56,5.51l-1-1.06a72,72,0,0,1,6.73-4.73ZM41.57,9.68v5H39.12v-5Zm4.81,0v5H43.93v-5Z"/><path class="cls-2" d="M59.89,27.66c.93-.2,1.55-.36,3-.73l1-.41.49,1.31-.81.49C61.52,29.66,61,30,59.89,30.68V44.1c0,1.92-.82,2.82-2.53,2.82a15.16,15.16,0,0,1-4.69-1.23L51,45.28l-.16-1.63c.61,0,2.41.12,2.86.12.77,0,1-.24,1-1V33.7l-.21.08-1.22.65-1.31.94-1.91-6,1.79-.17a6.89,6.89,0,0,1,.9-.12l1.1-.2.86-.13V20.08H53.12a18.35,18.35,0,0,0-2.45.16v-2a16.56,16.56,0,0,0,2.45.17h1.55v-5.8a12.79,12.79,0,0,0-.21-2.44h5.63a16.36,16.36,0,0,0-.2,2.44v5.8h1.3a16.21,16.21,0,0,0,2.45-.17v2a17.55,17.55,0,0,0-2.45-.16h-1.3ZM77.67,34h7.42a16.21,16.21,0,0,0,2.45-.17v2a17.55,17.55,0,0,0-2.45-.16H78c1.42,2.81,4.24,4.89,8.4,6.24l1.67.41-3.51,5-1.26-.81a13.84,13.84,0,0,1-6.53-9c-1.79,4.41-6.32,7.79-12.52,9.26L63,47.2l-.78-1.55,1.39-.37a14.81,14.81,0,0,0,8.24-9.66H65.43a18.21,18.21,0,0,0-2.44.16v-2a16.43,16.43,0,0,0,2.44.17h6.81V28H70.41A24.54,24.54,0,0,1,66,32.27l-.77.9-1.31-.86.7-.89a26,26,0,0,0,2.81-7.88l.12-.81-.45.08-1.5.49-1.31-5.47,2.12.17c1.31.08,1.55.08,2.33.12a50.24,50.24,0,0,0,2.16-6.69L71.1,9.8l6.28,1.67-1.3,1.35a36.83,36.83,0,0,1-5.34,5.34l.53,0h2.61c2.08,0,4.32,0,6.64-.12-.53-1.14-.89-2-1.46-3l-.66-.77,1.43-1.06.65.77a65.94,65.94,0,0,1,6.16,5.51l1.14.89L82.6,24l-.36-1.51c-.53-1.47-.74-2.08-1.1-2.89-3.55,1.06-8.53,2.24-12.08,2.89l4.41,1.27-1.18,1.47a13.12,13.12,0,0,1-.66,1.14H82.81a17.55,17.55,0,0,0,2.45-.16v1.95A17.55,17.55,0,0,0,82.81,28H77.67Z"/><path class="cls-2" d="M100.68,27.66c.94-.2,1.55-.36,3-.73l1-.41.49,1.31-.82.49c-2.08,1.34-2.65,1.71-3.71,2.36V44.1c0,1.92-.82,2.82-2.53,2.82a15.16,15.16,0,0,1-4.69-1.23l-1.71-.41-.17-1.63c.61,0,2.41.12,2.86.12.77,0,1-.24,1-1V33.7l-.21.08L94,34.43l-1.31.94-1.91-6,1.79-.17a7.11,7.11,0,0,1,.9-.12l1.1-.2.86-.13V20.08H93.91a18.35,18.35,0,0,0-2.45.16v-2a16.56,16.56,0,0,0,2.45.17h1.55v-5.8a12.79,12.79,0,0,0-.21-2.44h5.63a16.36,16.36,0,0,0-.2,2.44v5.8h1.1a16.21,16.21,0,0,0,2.45-.17v2a17.55,17.55,0,0,0-2.45-.16h-1.1Zm4.08,17.79a30.5,30.5,0,0,0,10.11-5.84,29.53,29.53,0,0,0-3.75-5,31.43,31.43,0,0,1-5.75,4l-1.14.77-1-1.26,1.18-.82a28.4,28.4,0,0,0,6.77-9.91l.57-1.67,5.55,1.71-1.06,1.31c-.21.36-.29.4-.41.65h5.1c2.4,0,5.14,0,6.2-.12v1.22c-3.31,8.69-10.36,14-21.7,16.35l-1.39.45-.77-1.55ZM113.69,12l-1.39,1.31a41.4,41.4,0,0,1-5.38,4.85l.65.49A46.32,46.32,0,0,1,112.75,23l1.31,1.19-5.18,2.93-.41-1.51a35.48,35.48,0,0,0-3.71-7.42,26.78,26.78,0,0,0,3.14-6.65l.41-1.71Zm7.54.16-1.34,1.31a31.09,31.09,0,0,1-5.67,4.69,57.08,57.08,0,0,1,5.91,4.73l1.27,1-5.18,3-.41-1.31a27.21,27.21,0,0,0-3.75-7.38,27.8,27.8,0,0,0,3.3-6.44l.49-1.84Zm-6.6,18.93a29.24,29.24,0,0,1-2.29,2.49,52.71,52.71,0,0,1,5.55,2.89,23.12,23.12,0,0,0,3.22-5.38Zm14.23-18.72-1.34,1.18a53.68,53.68,0,0,1-6,4.61,65.69,65.69,0,0,1,6,4.69L128.9,24l-5.18,3.23-.45-1.64a29.23,29.23,0,0,0-3.67-7.46A27.49,27.49,0,0,0,123,11.35l.45-1.59Z"/></g></svg>