<svg id="レイヤー_1" data-name="レイヤー 1" xmlns="http://www.w3.org/2000/svg" viewBox="0 0 60.38 47.31"><defs><style>.cls-1{fill:#332e14;}</style></defs><title>he</title><path class="cls-1" d="M0,21.85a41.85,41.85,0,0,0,4.15-4c3.27-3.27,6.26-6.26,9-8.78,2.45-2.45,5-4.83,7.48-7.28C21.92.61,22.94,0,23.89,0c1.3,0,2.52.88,6.67,5a316.49,316.49,0,0,1,27.09,30.9,27.17,27.17,0,0,0,2.73,3.34l-7.63,8c-.68-1.3-.75-1.3-1.9-3.54C44.25,31.31,34.1,15.45,27.09,6.6,25,3.88,24.57,3.54,24,3.54s-.75.27-1.16.82C21,6.94,14.16,17.63,8.85,26.21c-.34.54-.61,1-1.09,1.77s-.54.95-.88,1.43Z"/></svg>