<svg id="レイヤー_1" data-name="レイヤー 1" xmlns="http://www.w3.org/2000/svg" xmlns:xlink="http://www.w3.org/1999/xlink" viewBox="0 0 1242 176.09"><defs><style>.cls-1{fill:none;}.cls-2{clip-path:url(#clip-path);}.cls-3{fill:#3cb373;}.cls-4{fill:#0072bf;}.cls-5{fill:#f1a1c4;}.cls-6{fill:#e60012;}.cls-7{fill:#fff132;}.cls-8{fill:#99d6f6;}.cls-9{fill:#fff;}.cls-10{fill:#f0a3a5;}.cls-11{clip-path:url(#clip-path-2);}.cls-12{fill:#2e9eda;}.cls-13{fill:#dee01b;}.cls-14{clip-path:url(#clip-path-3);}.cls-15{fill:#f1a009;}.cls-16{fill:#f7be34;}.cls-17{fill:#37a5db;}.cls-18{clip-path:url(#clip-path-4);}.cls-19{fill:#dde100;}.cls-20{fill:#fff02b;}.cls-21{clip-path:url(#clip-path-5);}.cls-22{fill:#f7c237;}</style><clipPath id="clip-path"><rect class="cls-1" width="1242" height="176.09"/></clipPath><clipPath id="clip-path-2"><polygon class="cls-1" points="226.67 179.26 219.5 -2.24 448 -2.24 442.5 179.26 226.67 179.26"/></clipPath><clipPath id="clip-path-3"><polygon class="cls-1" points="589 -6.54 589 183.46 759.5 182.8 760.33 -7.2 589 -6.54"/></clipPath><clipPath id="clip-path-4"><polygon class="cls-1" points="759.5 -6.41 759.83 186.76 949.75 185.09 957.25 -9.58 759.5 -6.41"/></clipPath><clipPath id="clip-path-5"><polygon class="cls-1" points="1244.17 179.09 1047.92 180.16 1043.25 -1.66 1244.17 -2.73 1244.17 179.09"/></clipPath></defs><title>head_background_2</title><g class="cls-2"><polygon class="cls-3" points="897 182.59 903 -7.41 1107 -7.41 1107 182.59 897 182.59"/><polygon class="cls-4" points="1095.5 182.59 1101.5 -7.41 1245.5 -7.41 1245.5 183.09 1095.5 182.59"/><rect class="cls-5" x="112" y="-6.41" width="224" height="186"/><polygon class="cls-6" points="330 -6.41 323 183.59 554 183.59 554 -6.41 330 -6.41"/><polygon class="cls-7" points="535 182.59 542 -8.41 596 -8.41 596 182.59 535 182.59"/><polygon class="cls-8" points="122.5 -3.91 115.5 182.09 -4.5 182.09 -4.5 -3.91 122.5 -3.91"/><ellipse class="cls-9" cx="20.99" cy="22.26" rx="12.22" ry="11.15" transform="translate(-0.58 0.56) rotate(-1.5)"/><ellipse class="cls-9" cx="29.99" cy="64.26" rx="12.22" ry="11.15" transform="translate(-1.67 0.81) rotate(-1.5)"/><ellipse class="cls-9" cx="38.99" cy="106.26" rx="12.22" ry="11.15" transform="translate(-2.77 1.06) rotate(-1.5)"/><ellipse class="cls-9" cx="47.99" cy="148.26" rx="12.22" ry="11.15" transform="translate(-3.87 1.31) rotate(-1.5)"/><ellipse class="cls-9" cx="-6.01" cy="97.26" rx="12.22" ry="11.15" transform="translate(-2.55 -0.12) rotate(-1.5)"/><ellipse class="cls-9" cx="2.99" cy="139.26" rx="12.22" ry="11.15" transform="translate(-3.65 0.13) rotate(-1.5)"/><ellipse class="cls-9" cx="11.99" cy="181.26" rx="12.22" ry="11.15" transform="translate(-4.74 0.38) rotate(-1.5)"/><ellipse class="cls-9" cx="65.99" cy="30.26" rx="12.22" ry="11.15" transform="translate(-0.77 1.74) rotate(-1.5)"/><ellipse class="cls-9" cx="74.99" cy="72.26" rx="12.22" ry="11.15" transform="translate(-1.87 1.99) rotate(-1.5)"/><ellipse class="cls-9" cx="83.99" cy="114.26" rx="12.22" ry="11.15" transform="translate(-2.96 2.24) rotate(-1.5)"/><ellipse class="cls-9" cx="92.99" cy="156.26" rx="12.22" ry="11.15" transform="translate(-4.06 2.49) rotate(-1.5)"/><ellipse class="cls-9" cx="111.99" cy="39.26" rx="12.22" ry="11.15" transform="translate(-0.99 2.95) rotate(-1.5)"/><ellipse class="cls-9" cx="120.99" cy="81.26" rx="12.22" ry="11.15" transform="translate(-2.09 3.2) rotate(-1.5)"/><ellipse class="cls-9" cx="129.99" cy="123.26" rx="12.22" ry="11.15" transform="translate(-3.18 3.45) rotate(-1.5)"/><ellipse class="cls-9" cx="138.99" cy="165.26" rx="12.22" ry="11.15" transform="translate(-4.28 3.7) rotate(-1.5)"/><ellipse class="cls-9" cx="156.99" cy="47.26" rx="12.22" ry="11.15" transform="translate(-1.18 4.13) rotate(-1.5)"/><ellipse class="cls-9" cx="165.99" cy="89.26" rx="12.22" ry="11.15" transform="translate(-2.28 4.38) rotate(-1.5)"/><ellipse class="cls-9" cx="174.99" cy="131.26" rx="12.22" ry="11.15" transform="translate(-3.38 4.63) rotate(-1.5)"/><ellipse class="cls-9" cx="183.99" cy="173.26" rx="12.22" ry="11.15" transform="translate(-4.47 4.88) rotate(-1.5)"/><ellipse class="cls-9" cx="202.99" cy="56.26" rx="12.22" ry="11.15" transform="translate(-1.4 5.33) rotate(-1.5)"/><ellipse class="cls-9" cx="102.99" cy="-2.74" rx="12.22" ry="11.15" transform="translate(0.11 2.7) rotate(-1.5)"/><ellipse class="cls-9" cx="147.99" cy="5.26" rx="12.22" ry="11.15" transform="translate(-0.09 3.88) rotate(-1.5)"/><ellipse class="cls-9" cx="193.99" cy="14.26" rx="12.22" ry="11.15" transform="translate(-0.31 5.08) rotate(-1.5)"/><ellipse class="cls-9" cx="211.99" cy="98.26" rx="12.22" ry="11.15" transform="translate(-2.5 5.58) rotate(-1.5)"/><ellipse class="cls-9" cx="220.99" cy="140.26" rx="12.22" ry="11.15" transform="translate(-3.6 5.83) rotate(-1.5)"/><ellipse class="cls-9" cx="229.99" cy="182.26" rx="12.22" ry="11.15" transform="translate(-4.69 6.08) rotate(-1.5)"/><polygon class="cls-10" points="484.5 118.92 464.67 130.42 452.33 112.09 471.94 100.5 484.5 118.92"/><polygon class="cls-10" points="489.33 169.26 469.5 180.76 457.17 162.42 476.78 150.83 489.33 169.26"/><polygon class="cls-10" points="479.17 68.76 459.33 80.26 447 61.92 466.61 50.33 479.17 68.76"/><polygon class="cls-10" points="474.33 18.42 454.5 29.92 442.17 11.59 461.78 0 474.33 18.42"/><polygon class="cls-10" points="526.25 94.88 506.42 106.38 494.08 88.05 513.7 76.46 526.25 94.88"/><polygon class="cls-10" points="531.08 145.22 511.25 156.72 498.92 138.38 518.53 126.8 531.08 145.22"/><polygon class="cls-10" points="520.92 44.72 501.08 56.22 488.75 37.88 508.36 26.3 520.92 44.72"/><polygon class="cls-10" points="516.08 -5.62 496.25 5.88 483.92 -12.45 503.53 -24.04 516.08 -5.62"/><polygon class="cls-10" points="572.25 121.22 552.42 132.72 540.08 114.38 559.7 102.8 572.25 121.22"/><polygon class="cls-10" points="577.08 171.55 557.25 183.05 544.92 164.72 564.53 153.13 577.08 171.55"/><polygon class="cls-10" points="566.92 71.05 547.08 82.55 534.75 64.22 554.36 52.63 566.92 71.05"/><polygon class="cls-10" points="562.08 20.72 542.25 32.22 529.92 13.88 549.53 2.29 562.08 20.72"/><polygon class="cls-10" points="613.58 97.88 593.75 109.38 581.42 91.05 601.03 79.46 613.58 97.88"/><polygon class="cls-10" points="608.25 47.72 588.42 59.22 576.08 40.88 595.7 29.3 608.25 47.72"/><polygon class="cls-10" points="603.42 -2.62 583.58 8.88 571.25 -9.45 590.86 -21.04 603.42 -2.62"/><polygon class="cls-10" points="443.58 142.88 423.75 154.38 411.42 136.05 431.03 124.46 443.58 142.88"/><polygon class="cls-10" points="438.25 92.72 418.42 104.22 406.08 85.88 425.69 74.3 438.25 92.72"/><polygon class="cls-10" points="433.42 42.38 413.58 53.88 401.25 35.55 420.86 23.96 433.42 42.38"/><g class="cls-11"><rect class="cls-12" x="179.52" y="95.37" width="249.94" height="17.7" transform="translate(136.59 -170.35) rotate(39.66)"/><rect class="cls-12" x="198.98" y="147.05" width="105.9" height="17.7" transform="translate(157.48 -124.9) rotate(39.66)"/><rect class="cls-12" x="208.13" y="171.01" width="29.85" height="17.7" transform="translate(166.12 -100.97) rotate(39.66)"/><rect class="cls-12" x="189.71" y="123.24" width="180.26" height="17.7" transform="translate(148.71 -148.2) rotate(39.66)"/><rect class="cls-12" x="192.33" y="79.31" width="300.26" height="17.7" transform="translate(135.08 -198.27) rotate(39.66)"/><rect class="cls-12" x="259.84" y="53.4" width="219.05" height="17.7" transform="translate(124.73 -221.41) rotate(39.66)"/><rect class="cls-12" x="325.84" y="30.29" width="146.62" height="17.7" transform="translate(116.84 -245.74) rotate(39.66)"/><rect class="cls-12" x="390.39" y="9.82" width="82.48" height="17.7" transform="translate(111.25 -271.17) rotate(39.66)"/></g><path class="cls-13" d="M249.78,79.76c0,.55-.25.66-.62.25l-4.51-5a.88.88,0,0,0-1.34,0l-4.53,5c-.37.41-.65.29-.62-.26l.36-6.74a.89.89,0,0,0-1-.95l-6.74.33c-.55,0-.66-.25-.25-.62l5-4.51a.88.88,0,0,0,0-1.34l-5-4.53c-.41-.37-.29-.65.26-.62l6.74.36a.89.89,0,0,0,1-1l-.33-6.74c0-.55.25-.66.62-.25l4.51,5a.89.89,0,0,0,1.34,0l4.53-5c.37-.41.65-.29.62.26l-.36,6.74a.9.9,0,0,0,1,1l6.74-.34c.55,0,.66.26.25.62l-5,4.52a.88.88,0,0,0,0,1.34l5,4.53c.41.37.29.65-.26.62l-6.74-.36a.89.89,0,0,0-1,1Z"/><path class="cls-13" d="M280.28,122.09c0,.55-.25.66-.62.26l-4.51-5a.89.89,0,0,0-1.34,0l-4.53,5c-.37.41-.65.3-.62-.25l.36-6.74a.89.89,0,0,0-.95-1l-6.74.33c-.55,0-.66-.25-.25-.62l5-4.51a.89.89,0,0,0,0-1.35l-5-4.53c-.41-.37-.29-.65.26-.62l6.74.36a.88.88,0,0,0,.95-.94l-.33-6.75c0-.54.25-.66.62-.25l4.51,5a.88.88,0,0,0,1.34,0l4.53-5c.37-.41.65-.29.62.26l-.36,6.74a.89.89,0,0,0,.95,1l6.74-.33c.55,0,.66.25.25.62l-5,4.51a.88.88,0,0,0,0,1.34l5,4.53c.41.37.29.65-.26.62l-6.74-.36a.89.89,0,0,0-.95.95Z"/><path class="cls-13" d="M310.78,164.42c0,.55-.25.67-.62.26l-4.51-5a.88.88,0,0,0-1.34,0l-4.53,5c-.37.4-.65.29-.62-.26l.36-6.74a.89.89,0,0,0-.95-.95l-6.74.33c-.55,0-.66-.25-.25-.62l5-4.51a.88.88,0,0,0,0-1.34l-5-4.53c-.41-.37-.29-.65.26-.62l6.74.35a.88.88,0,0,0,.95-.94l-.33-6.74c0-.55.25-.67.62-.26l4.51,5a.88.88,0,0,0,1.34,0l4.53-5c.37-.4.65-.29.62.26l-.36,6.74a.89.89,0,0,0,.95,1l6.74-.33c.55,0,.66.25.25.62l-5,4.51a.88.88,0,0,0,0,1.34l5,4.54c.41.37.29.64-.26.62l-6.74-.36a.88.88,0,0,0-.95.94Z"/><path class="cls-13" d="M219,37.59c0,.55-.25.66-.62.26l-4.51-5a.89.89,0,0,0-1.34,0l-4.53,5c-.37.41-.65.3-.62-.25l.36-6.74a.89.89,0,0,0-.95-.95l-6.74.33c-.55,0-.67-.25-.26-.62l5-4.51a.9.9,0,0,0,0-1.35l-5-4.53c-.41-.37-.3-.65.25-.62l6.74.36a.88.88,0,0,0,1-.94l-.33-6.75c0-.54.25-.66.62-.25l4.51,5a.88.88,0,0,0,1.34,0l4.54-5c.37-.41.65-.29.62.26L218.65,18a.88.88,0,0,0,.94.95l6.74-.33c.55,0,.67.25.26.62l-5,4.51a.88.88,0,0,0,0,1.34l5,4.53c.41.37.29.65-.26.62l-6.74-.36a.89.89,0,0,0-.95,1Z"/><path class="cls-13" d="M311,79.92c0,.55-.25.67-.62.26l-4.51-5a.88.88,0,0,0-1.34,0l-4.53,5c-.37.4-.65.29-.62-.26l.36-6.74a.89.89,0,0,0-.95-1l-6.74.33c-.55,0-.67-.25-.26-.62l5-4.51a.89.89,0,0,0,0-1.34l-5-4.53c-.41-.37-.3-.65.25-.62l6.74.35a.88.88,0,0,0,.95-.94l-.33-6.74c0-.55.25-.67.62-.26l4.51,5a.88.88,0,0,0,1.34,0l4.54-5c.37-.4.65-.29.62.26l-.36,6.74a.88.88,0,0,0,.94.95l6.74-.33c.55,0,.67.25.26.62l-5,4.51a.88.88,0,0,0,0,1.34l5,4.54c.41.37.29.64-.26.62l-6.74-.36a.88.88,0,0,0-.95.94Z"/><path class="cls-13" d="M341.45,122.26c0,.55-.25.66-.62.25l-4.51-5a.88.88,0,0,0-1.34,0l-4.53,5c-.37.41-.65.29-.62-.26l.36-6.74a.9.9,0,0,0-.95-.95l-6.74.33c-.55,0-.67-.25-.26-.62l5-4.51a.89.89,0,0,0,0-1.34l-5-4.53c-.41-.37-.3-.65.25-.62l6.74.36a.89.89,0,0,0,.95-1l-.33-6.74c0-.55.25-.66.62-.25l4.51,5a.89.89,0,0,0,1.34,0l4.54-5c.37-.41.65-.29.62.26l-.36,6.74a.89.89,0,0,0,.94,1l6.74-.34c.55,0,.67.26.26.62l-5,4.52a.88.88,0,0,0,0,1.34l5,4.53c.41.37.29.65-.26.62l-6.74-.36a.89.89,0,0,0-.95,1Z"/><path class="cls-13" d="M372,164.59c0,.55-.25.66-.62.26l-4.51-5a.89.89,0,0,0-1.34,0l-4.53,5c-.37.41-.65.3-.62-.25l.36-6.74a.89.89,0,0,0-.95-1l-6.74.33c-.55,0-.67-.25-.26-.62l5-4.51a.9.9,0,0,0,0-1.35l-5-4.53c-.41-.37-.3-.65.25-.62l6.74.36a.88.88,0,0,0,.95-.94l-.33-6.75c0-.54.25-.66.62-.25l4.51,5a.88.88,0,0,0,1.34,0l4.54-5c.37-.41.65-.29.62.26l-.36,6.74a.88.88,0,0,0,.94.95l6.74-.33c.55,0,.67.25.26.62l-5,4.51a.88.88,0,0,0,0,1.34l5,4.53c.41.37.29.65-.26.62l-6.74-.36a.89.89,0,0,0-.95.95Z"/><path class="cls-13" d="M280.12,37.76c0,.55-.25.66-.62.25L275,33a.88.88,0,0,0-1.34,0l-4.54,5c-.37.41-.65.29-.62-.26l.36-6.74a.88.88,0,0,0-.94-.95l-6.74.33c-.55,0-.67-.25-.26-.62l5-4.51a.88.88,0,0,0,0-1.34l-5-4.53c-.41-.37-.29-.65.26-.62l6.74.36a.89.89,0,0,0,.95-.95l-.33-6.74c0-.55.25-.66.62-.25l4.51,5a.89.89,0,0,0,1.34,0l4.53-5c.37-.41.65-.29.62.26l-.36,6.74a.9.9,0,0,0,.95.95l6.74-.34c.55,0,.67.26.26.62l-5,4.52a.89.89,0,0,0,0,1.34l5,4.53c.41.37.3.65-.25.62l-6.74-.36a.89.89,0,0,0-.95.95Z"/><path class="cls-13" d="M372,79.76c0,.55-.25.66-.62.25l-4.51-5a.88.88,0,0,0-1.34,0L361,80c-.37.41-.65.29-.62-.26l.36-6.74a.9.9,0,0,0-.95-.95l-6.74.33c-.55,0-.67-.25-.26-.62l5-4.51a.89.89,0,0,0,0-1.34l-5-4.53c-.41-.37-.3-.65.25-.62l6.74.36a.89.89,0,0,0,.95-1l-.33-6.74c0-.55.25-.66.62-.25l4.51,5a.89.89,0,0,0,1.34,0l4.54-5c.37-.41.65-.29.62.26l-.36,6.74a.89.89,0,0,0,.94,1l6.74-.34c.55,0,.67.26.26.62l-5,4.52a.88.88,0,0,0,0,1.34l5,4.53c.41.37.29.65-.26.62l-6.74-.36a.89.89,0,0,0-.95,1Z"/><path class="cls-13" d="M402.45,122.09c0,.55-.25.66-.62.26l-4.51-5a.89.89,0,0,0-1.34,0l-4.53,5c-.37.41-.65.3-.62-.25l.36-6.74a.89.89,0,0,0-.95-1l-6.74.33c-.55,0-.67-.25-.26-.62l5-4.51a.9.9,0,0,0,0-1.35l-5-4.53c-.41-.37-.3-.65.25-.62l6.74.36a.88.88,0,0,0,.95-.94l-.33-6.75c0-.54.25-.66.62-.25l4.51,5a.88.88,0,0,0,1.34,0l4.54-5c.37-.41.65-.29.62.26l-.36,6.74a.88.88,0,0,0,.94,1l6.74-.33c.55,0,.67.25.26.62l-5,4.51a.88.88,0,0,0,0,1.34l5,4.53c.41.37.29.65-.26.62l-6.74-.36a.89.89,0,0,0-.95.95Z"/><path class="cls-13" d="M433,164.42c0,.55-.25.67-.62.26l-4.51-5a.88.88,0,0,0-1.34,0l-4.53,5c-.37.4-.65.29-.62-.26l.36-6.74a.89.89,0,0,0-.95-.95L414,157c-.55,0-.67-.25-.26-.62l5-4.51a.89.89,0,0,0,0-1.34l-5-4.53c-.41-.37-.3-.65.25-.62l6.74.35a.88.88,0,0,0,.95-.94l-.33-6.74c0-.55.25-.67.62-.26l4.51,5a.88.88,0,0,0,1.34,0l4.54-5c.37-.4.65-.29.62.26l-.36,6.74a.88.88,0,0,0,.94,1l6.74-.33c.55,0,.67.25.26.62l-5,4.51a.88.88,0,0,0,0,1.34l5,4.54c.41.37.29.64-.26.62l-6.74-.36a.88.88,0,0,0-.95.94Z"/><path class="cls-13" d="M341.12,37.59c0,.55-.25.66-.62.26l-4.51-5a.89.89,0,0,0-1.34,0l-4.54,5c-.37.41-.65.3-.62-.25l.36-6.74a.88.88,0,0,0-.94-.95l-6.74.33c-.55,0-.67-.25-.26-.62l5-4.51a.89.89,0,0,0,0-1.35l-5-4.53c-.41-.37-.29-.65.26-.62l6.74.36a.88.88,0,0,0,.95-.94l-.33-6.75c0-.54.25-.66.62-.25l4.51,5A.88.88,0,0,0,336,16l4.53-5c.37-.41.65-.29.62.26L340.81,18a.89.89,0,0,0,.95.95l6.74-.33c.55,0,.67.25.26.62l-5,4.51a.89.89,0,0,0,0,1.34l5,4.53c.41.37.3.65-.25.62l-6.74-.36a.89.89,0,0,0-.95,1Z"/><path class="cls-13" d="M433.12,79.92c0,.55-.25.67-.62.26l-4.51-5a.88.88,0,0,0-1.34,0l-4.54,5c-.37.4-.65.29-.62-.26l.36-6.74a.88.88,0,0,0-.94-1l-6.74.33c-.55,0-.67-.25-.26-.62l5-4.51a.88.88,0,0,0,0-1.34l-5-4.53c-.41-.37-.29-.65.26-.62l6.74.35a.88.88,0,0,0,.95-.94l-.33-6.74c0-.55.25-.67.62-.26l4.51,5a.88.88,0,0,0,1.34,0l4.53-5c.37-.4.65-.29.62.26l-.36,6.74a.89.89,0,0,0,.95.95L440.5,61c.55,0,.67.25.26.62l-5,4.51a.89.89,0,0,0,0,1.34l5,4.54c.41.37.3.64-.25.62l-6.74-.36a.88.88,0,0,0-.95.94Z"/><path class="cls-13" d="M402.28,37.76c0,.55-.25.66-.62.25l-4.51-5a.88.88,0,0,0-1.34,0l-4.53,5c-.37.41-.65.29-.62-.26L391,31a.89.89,0,0,0-.95-.95l-6.74.33c-.55,0-.66-.25-.25-.62l5-4.51a.88.88,0,0,0,0-1.34l-5-4.53c-.41-.37-.29-.65.26-.62l6.74.36a.89.89,0,0,0,.95-.95l-.33-6.74c0-.55.25-.66.62-.25l4.51,5a.89.89,0,0,0,1.34,0l4.53-5c.37-.41.65-.29.62.26L402,18.19a.9.9,0,0,0,.95.95l6.74-.34c.55,0,.66.26.25.62l-5,4.52a.88.88,0,0,0,0,1.34l5,4.53c.41.37.29.65-.26.62l-6.74-.36A.89.89,0,0,0,402,31Z"/><path class="cls-13" d="M250,164.59c0,.55-.25.66-.62.26l-4.51-5a.89.89,0,0,0-1.34,0l-4.53,5c-.37.41-.65.3-.62-.25l.36-6.74a.89.89,0,0,0-.95-1l-6.74.33c-.55,0-.67-.25-.26-.62l5-4.51a.9.9,0,0,0,0-1.35l-5-4.53c-.41-.37-.3-.65.25-.62l6.74.36a.88.88,0,0,0,1-.94l-.33-6.75c0-.54.25-.66.62-.25l4.51,5a.88.88,0,0,0,1.34,0l4.54-5c.37-.41.65-.29.62.26l-.36,6.74a.88.88,0,0,0,.94.95l6.74-.33c.55,0,.67.25.26.62l-5,4.51a.88.88,0,0,0,0,1.34l5,4.53c.41.37.29.65-.26.62l-6.74-.36a.89.89,0,0,0-.95.95Z"/><path class="cls-13" d="M219.12,122.42c0,.55-.25.67-.62.26l-4.51-5a.88.88,0,0,0-1.34,0l-4.54,5c-.37.4-.65.29-.62-.26l.36-6.74a.88.88,0,0,0-.94-1l-6.74.33c-.55,0-.67-.25-.26-.62l5-4.51a.88.88,0,0,0,0-1.34l-5-4.53c-.41-.37-.29-.65.26-.62l6.74.35a.88.88,0,0,0,.95-.94l-.33-6.74c0-.55.25-.67.62-.26l4.51,5a.88.88,0,0,0,1.34,0l4.53-5c.37-.4.65-.29.62.26l-.36,6.74a.89.89,0,0,0,.95,1l6.74-.33c.55,0,.67.25.26.62l-5,4.51a.89.89,0,0,0,0,1.34l5,4.54c.41.37.3.64-.25.62l-6.74-.36a.88.88,0,0,0-1,.94Z"/><g class="cls-14"><polygon class="cls-15" points="589 -6.41 589 183.59 759.5 182.92 760.33 -7.08 589 -6.41"/><polygon class="cls-16" points="626.92 71.88 618.82 70.95 613.46 76.09 612.39 68.91 605.17 65.42 612.38 61.76 613.37 54.63 619 60.09 626.96 58.76 622.74 65.46 626.92 71.88"/><polygon class="cls-16" points="626.92 121.21 618.82 120.28 613.46 125.42 612.39 118.25 605.17 114.76 612.38 111.09 613.37 103.96 619 109.42 626.96 108.09 622.74 114.79 626.92 121.21"/><polygon class="cls-16" points="627.25 170.21 619.15 169.28 613.79 174.42 612.72 167.25 605.5 163.76 612.71 160.09 613.7 152.96 619.33 158.42 627.29 157.09 623.07 163.79 627.25 170.21"/><polygon class="cls-16" points="627.25 22.88 619.15 21.95 613.79 27.09 612.72 19.91 605.5 16.42 612.71 12.76 613.7 5.63 619.33 11.09 627.29 9.76 623.07 16.46 627.25 22.88"/><polygon class="cls-16" points="684.58 71.88 676.48 70.95 671.13 76.09 670.05 68.91 662.83 65.42 670.04 61.76 671.03 54.63 676.67 60.09 684.63 58.76 680.4 65.46 684.58 71.88"/><polygon class="cls-16" points="684.58 121.21 676.48 120.28 671.13 125.42 670.05 118.25 662.83 114.76 670.04 111.09 671.03 103.96 676.67 109.42 684.63 108.09 680.4 114.79 684.58 121.21"/><polygon class="cls-16" points="684.92 170.21 676.82 169.28 671.46 174.42 670.39 167.25 663.17 163.76 670.38 160.09 671.37 152.96 677 158.42 684.96 157.09 680.74 163.79 684.92 170.21"/><polygon class="cls-16" points="684.92 22.88 676.82 21.95 671.46 27.09 670.39 19.91 663.17 16.42 670.38 12.76 671.37 5.63 677 11.09 684.96 9.76 680.74 16.46 684.92 22.88"/><polygon class="cls-16" points="741.92 71.88 733.82 70.95 728.46 76.09 727.39 68.91 720.17 65.42 727.38 61.76 728.37 54.63 734 60.09 741.96 58.76 737.74 65.46 741.92 71.88"/><polygon class="cls-16" points="741.92 121.21 733.82 120.28 728.46 125.42 727.39 118.25 720.17 114.76 727.38 111.09 728.37 103.96 734 109.42 741.96 108.09 737.74 114.79 741.92 121.21"/><polygon class="cls-16" points="742.25 170.21 734.15 169.28 728.79 174.42 727.72 167.25 720.5 163.76 727.71 160.09 728.7 152.96 734.33 158.42 742.29 157.09 738.07 163.79 742.25 170.21"/><polygon class="cls-16" points="713.7 47.39 705.6 46.45 700.24 51.6 699.17 44.42 691.95 40.93 699.15 37.26 700.15 30.14 705.78 35.6 713.74 34.26 709.51 40.97 713.7 47.39"/><polygon class="cls-16" points="713.7 96.72 705.6 95.79 700.24 100.93 699.17 93.76 691.95 90.26 699.15 86.6 700.15 79.47 705.78 84.93 713.74 83.6 709.51 90.3 713.7 96.72"/><polygon class="cls-16" points="714.03 145.72 705.93 144.79 700.57 149.93 699.5 142.76 692.28 139.26 699.49 135.6 700.48 128.47 706.11 133.93 714.07 132.6 709.85 139.3 714.03 145.72"/><polygon class="cls-16" points="770.7 47.39 762.6 46.45 757.24 51.6 756.17 44.42 748.95 40.93 756.15 37.26 757.15 30.14 762.78 35.6 770.74 34.26 766.51 40.97 770.7 47.39"/><polygon class="cls-16" points="770.7 96.72 762.6 95.79 757.24 100.93 756.17 93.76 748.95 90.26 756.15 86.6 757.15 79.47 762.78 84.93 770.74 83.6 766.51 90.3 770.7 96.72"/><polygon class="cls-16" points="771.03 145.72 762.93 144.79 757.57 149.93 756.5 142.76 749.28 139.26 756.49 135.6 757.48 128.47 763.11 133.93 771.07 132.6 766.85 139.3 771.03 145.72"/><polygon class="cls-16" points="655.7 47.39 647.6 46.45 642.24 51.6 641.17 44.42 633.95 40.93 641.15 37.26 642.15 30.14 647.78 35.6 655.74 34.26 651.51 40.97 655.7 47.39"/><polygon class="cls-16" points="655.7 96.72 647.6 95.79 642.24 100.93 641.17 93.76 633.95 90.26 641.15 86.6 642.15 79.47 647.78 84.93 655.74 83.6 651.51 90.3 655.7 96.72"/><polygon class="cls-16" points="656.03 145.72 647.93 144.79 642.57 149.93 641.5 142.76 634.28 139.26 641.49 135.6 642.48 128.47 648.11 133.93 656.07 132.6 651.85 139.3 656.03 145.72"/><polygon class="cls-16" points="598.36 47.39 590.26 46.45 584.9 51.6 583.83 44.42 576.61 40.93 583.82 37.26 584.81 30.14 590.45 35.6 598.4 34.26 594.18 40.97 598.36 47.39"/><polygon class="cls-16" points="598.36 96.72 590.26 95.79 584.9 100.93 583.83 93.76 576.61 90.26 583.82 86.6 584.81 79.47 590.45 84.93 598.4 83.6 594.18 90.3 598.36 96.72"/><polygon class="cls-16" points="598.7 145.72 590.6 144.79 585.24 149.93 584.17 142.76 576.95 139.26 584.15 135.6 585.15 128.47 590.78 133.93 598.74 132.6 594.51 139.3 598.7 145.72"/><polygon class="cls-16" points="742.25 22.88 734.15 21.95 728.79 27.09 727.72 19.91 720.5 16.42 727.71 12.76 728.7 5.63 734.33 11.09 742.29 9.76 738.07 16.46 742.25 22.88"/></g><path class="cls-17" d="M1016.23,70.28c.22.17.17.34-.1.38l-7.64,1.15a1,1,0,0,0-.69.53l-3,6.83c-.12.26-.31.26-.45,0l-3.52-6.49a1,1,0,0,0-.74-.47L992,71.74c-.28,0-.34-.18-.15-.38l5.5-5.5a1,1,0,0,0,.24-.84L995.91,58c-.07-.27.08-.38.33-.26l6.94,3.51a1.08,1.08,0,0,0,.88,0l7.05-4c.24-.14.39,0,.35.25l-1.25,7.47a.91.91,0,0,0,.31.8Z"/><path class="cls-17" d="M1005.57,43.11c.21.17.17.35-.11.39l-7.63,1.14a1,1,0,0,0-.7.53l-3,6.84c-.11.25-.31.26-.44,0l-3.52-6.49a1.05,1.05,0,0,0-.74-.47l-8.13-.48c-.27,0-.34-.19-.14-.39l5.5-5.5a1,1,0,0,0,.24-.84l-1.65-7.07c-.06-.26.09-.38.33-.26L992.51,34a1,1,0,0,0,.88,0l7.05-4c.24-.13.4,0,.35.25l-1.25,7.47a1,1,0,0,0,.31.81Z"/><path class="cls-17" d="M995.07,16c.21.17.17.34-.11.38l-7.63,1.15a1,1,0,0,0-.7.53l-3,6.83c-.11.25-.31.26-.44,0l-3.52-6.5a1.05,1.05,0,0,0-.74-.47l-8.13-.48c-.27,0-.34-.19-.14-.38l5.5-5.5a1,1,0,0,0,.24-.84l-1.65-7.07c-.06-.27.09-.39.33-.26L982,6.91a1.08,1.08,0,0,0,.88,0l7.05-4c.24-.14.4,0,.35.25L989,10.64a.93.93,0,0,0,.31.8Z"/><path class="cls-17" d="M1027.32,97.78c.21.17.17.34-.11.38l-7.63,1.15a1,1,0,0,0-.7.53l-3,6.83c-.11.26-.31.26-.44,0l-3.52-6.49a1,1,0,0,0-.74-.47l-8.13-.49c-.27,0-.34-.18-.14-.38l5.5-5.5a1,1,0,0,0,.24-.84L1007,85.45c-.06-.27.09-.38.33-.26l6.94,3.51a1.08,1.08,0,0,0,.88,0l7.05-4c.24-.14.4,0,.35.25l-1.25,7.47a.93.93,0,0,0,.31.8Z"/><path class="cls-17" d="M1037.48,124.36c.22.17.17.35-.1.39l-7.64,1.14a1,1,0,0,0-.69.53l-3,6.84c-.12.25-.31.26-.45,0l-3.52-6.49a1,1,0,0,0-.74-.47l-8.12-.48c-.28,0-.34-.19-.15-.39l5.5-5.5a1,1,0,0,0,.24-.84l-1.64-7.07c-.07-.26.08-.38.33-.26l6.94,3.51a1,1,0,0,0,.88,0l7-4c.24-.13.39,0,.35.25l-1.25,7.47a.92.92,0,0,0,.31.81Z"/><path class="cls-17" d="M1048.48,151.53c.22.17.17.34-.1.38l-7.64,1.15a1,1,0,0,0-.69.53l-3,6.83c-.12.26-.31.26-.45,0l-3.52-6.49a1,1,0,0,0-.74-.47l-8.12-.49c-.28,0-.34-.18-.15-.38l5.5-5.5a1,1,0,0,0,.24-.84l-1.64-7.07c-.07-.27.08-.38.33-.26l6.94,3.51a1.08,1.08,0,0,0,.88,0l7-4c.24-.14.39,0,.35.25l-1.25,7.47a.91.91,0,0,0,.31.8Z"/><path class="cls-17" d="M1058.82,178.53c.21.17.17.34-.11.38l-7.63,1.15a1,1,0,0,0-.7.53l-3,6.83c-.11.26-.31.26-.44,0l-3.52-6.49a1,1,0,0,0-.74-.47l-8.13-.49c-.27,0-.34-.18-.14-.38l5.5-5.5a1,1,0,0,0,.24-.84l-1.65-7.07c-.06-.27.09-.38.33-.26l6.94,3.51a1.08,1.08,0,0,0,.88,0l7-4c.24-.14.4,0,.35.25l-1.25,7.47a.93.93,0,0,0,.31.8Z"/><path class="cls-17" d="M1051.07,73.94c.21.18.17.35-.11.39l-7.63,1.14a1,1,0,0,0-.7.54l-3,6.83c-.11.25-.31.26-.44,0l-3.52-6.5a1.05,1.05,0,0,0-.74-.47l-8.13-.48c-.27,0-.34-.19-.14-.38l5.5-5.5a1,1,0,0,0,.24-.84l-1.65-7.07c-.06-.27.09-.39.33-.26l6.94,3.5a1,1,0,0,0,.88,0l7-4c.24-.14.4,0,.35.24L1045,68.6a.93.93,0,0,0,.31.8Z"/><path class="cls-17" d="M1040.4,46.78c.22.17.17.34-.1.38l-7.64,1.15a1,1,0,0,0-.7.53l-3,6.83c-.11.26-.31.26-.44,0L1025,49.2a1,1,0,0,0-.74-.47l-8.13-.49c-.27,0-.34-.18-.14-.38l5.5-5.5a1,1,0,0,0,.24-.84l-1.65-7.07c-.06-.27.09-.38.33-.26l6.95,3.51a1.08,1.08,0,0,0,.88,0l7-4c.24-.14.4,0,.36.25l-1.26,7.47a1,1,0,0,0,.31.8Z"/><path class="cls-17" d="M1029.9,19.65c.22.17.17.35-.1.39l-7.64,1.14a1,1,0,0,0-.7.53l-3,6.84c-.11.25-.31.26-.44,0l-3.52-6.5a1,1,0,0,0-.74-.47l-8.13-.48c-.27,0-.34-.19-.14-.38l5.5-5.51a1,1,0,0,0,.24-.84l-1.65-7.06c-.06-.27.09-.39.33-.27l7,3.51a1,1,0,0,0,.88,0l7-4c.24-.13.4,0,.36.25l-1.26,7.47a1,1,0,0,0,.31.81Z"/><path class="cls-17" d="M1062.15,101.44c.22.18.17.35-.1.39l-7.64,1.14a1,1,0,0,0-.7.54l-3,6.83c-.11.25-.31.26-.44,0l-3.52-6.5a1,1,0,0,0-.74-.47l-8.13-.48c-.27,0-.34-.19-.14-.38l5.5-5.5a1,1,0,0,0,.24-.84l-1.65-7.07c-.06-.27.09-.39.33-.26l6.95,3.5a1,1,0,0,0,.88,0l7-4c.24-.14.4,0,.36.24l-1.26,7.48a1,1,0,0,0,.31.8Z"/><path class="cls-17" d="M1072.32,128c.21.17.17.34-.11.38l-7.63,1.15a1,1,0,0,0-.7.53l-3,6.83c-.11.26-.31.26-.44,0l-3.52-6.49a1,1,0,0,0-.74-.47l-8.13-.49c-.27,0-.34-.18-.14-.38l5.5-5.5a1,1,0,0,0,.24-.84L1052,115.7c-.06-.27.09-.38.33-.26l6.94,3.51a1.08,1.08,0,0,0,.88,0l7-4c.24-.14.4,0,.35.25l-1.25,7.47a.93.93,0,0,0,.31.8Z"/><path class="cls-17" d="M1083.32,155.19c.21.18.17.35-.11.39l-7.63,1.14a1,1,0,0,0-.7.54l-3,6.83c-.11.25-.31.26-.44,0l-3.52-6.5a1.05,1.05,0,0,0-.74-.47l-8.13-.48c-.27,0-.34-.19-.14-.38l5.5-5.5a1,1,0,0,0,.24-.84l-1.65-7.07c-.06-.27.09-.39.33-.26l6.94,3.5a1,1,0,0,0,.88,0l7-4c.24-.14.4,0,.35.24l-1.25,7.48a.93.93,0,0,0,.31.8Z"/><path class="cls-17" d="M1093.65,182.19c.22.18.17.35-.1.39l-7.64,1.14a1,1,0,0,0-.7.54l-3,6.83c-.11.25-.31.26-.44,0l-3.52-6.5a1,1,0,0,0-.74-.47l-8.13-.48c-.27,0-.34-.19-.14-.38l5.5-5.5a1,1,0,0,0,.24-.84l-1.65-7.07c-.06-.27.09-.39.33-.26l6.95,3.5a1,1,0,0,0,.88,0l7-4c.24-.14.4,0,.36.24l-1.26,7.48a1,1,0,0,0,.31.8Z"/><path class="cls-17" d="M1075.07,50.44c.21.18.17.35-.11.39L1067.33,52a1,1,0,0,0-.7.54l-3,6.83c-.11.25-.31.26-.44,0l-3.52-6.5a1.05,1.05,0,0,0-.74-.47l-8.13-.48c-.27,0-.34-.19-.14-.38l5.5-5.5a1,1,0,0,0,.24-.84l-1.65-7.07c-.06-.27.09-.39.33-.26l6.94,3.5a1,1,0,0,0,.88,0l7-4c.24-.14.4,0,.35.24L1069,45.1a.93.93,0,0,0,.31.8Z"/><path class="cls-17" d="M1064.4,23.28c.22.17.17.34-.1.38l-7.64,1.15a1,1,0,0,0-.7.53l-3,6.83c-.11.26-.31.26-.44,0L1049,25.7a1,1,0,0,0-.74-.47l-8.13-.49c-.27,0-.34-.18-.14-.38l5.5-5.5a1,1,0,0,0,.24-.84L1044.07,11c-.06-.27.09-.38.33-.26l6.95,3.51a1.08,1.08,0,0,0,.88,0l7-4c.24-.14.4,0,.36.25l-1.26,7.47a1,1,0,0,0,.31.8Z"/><path class="cls-17" d="M1053.9-3.85c.22.17.17.35-.1.39l-7.64,1.14a1,1,0,0,0-.7.53l-3,6.84c-.11.25-.31.26-.44,0l-3.52-6.5a1,1,0,0,0-.74-.47l-8.13-.48c-.27,0-.34-.19-.14-.38l5.5-5.51a1,1,0,0,0,.24-.84l-1.65-7.06c-.06-.27.09-.39.33-.27l6.95,3.51a1,1,0,0,0,.88,0l7-4c.24-.13.4,0,.36.25l-1.26,7.47a1,1,0,0,0,.31.81Z"/><path class="cls-17" d="M1109.4,54.44c.22.18.17.35-.1.39L1101.66,56a1,1,0,0,0-.7.54l-3,6.83c-.11.25-.31.26-.44,0l-3.52-6.5a1,1,0,0,0-.74-.47l-8.13-.48c-.27,0-.34-.19-.14-.38l5.5-5.5a1,1,0,0,0,.24-.84l-1.65-7.07c-.06-.27.09-.39.33-.26l6.95,3.5a1,1,0,0,0,.88,0l7-4c.24-.14.4,0,.36.24l-1.26,7.48a1,1,0,0,0,.31.8Z"/><path class="cls-17" d="M1098.73,27.28c.22.17.17.34-.1.38L1091,28.81a1,1,0,0,0-.69.53l-3,6.83c-.12.26-.31.26-.45,0l-3.52-6.49a1,1,0,0,0-.74-.47l-8.12-.49c-.28,0-.34-.18-.15-.38l5.5-5.5a1,1,0,0,0,.24-.84L1078.41,15c-.07-.27.08-.38.33-.26l6.94,3.51a1.08,1.08,0,0,0,.88,0l7-4c.24-.14.39,0,.35.25l-1.25,7.47a.91.91,0,0,0,.31.8Z"/><path class="cls-17" d="M1088.23.15c.22.17.17.35-.1.39l-7.64,1.14a1,1,0,0,0-.69.53l-3,6.84c-.12.25-.31.26-.45,0l-3.52-6.5a1,1,0,0,0-.74-.47L1064,1.62c-.28,0-.34-.19-.15-.38l5.5-5.51a1,1,0,0,0,.24-.84l-1.64-7.06c-.07-.27.08-.39.33-.27l6.94,3.51a1,1,0,0,0,.88,0l7-4c.24-.13.39,0,.35.25l-1.25,7.47a.91.91,0,0,0,.31.81Z"/><path class="cls-17" d="M1086.15,77.94c.22.18.17.35-.1.39l-7.64,1.14a1,1,0,0,0-.7.54l-3,6.83c-.11.25-.31.26-.44,0l-3.52-6.5a1,1,0,0,0-.74-.47l-8.13-.48c-.27,0-.34-.19-.14-.38l5.5-5.5a1,1,0,0,0,.24-.84l-1.65-7.07c-.06-.27.09-.39.33-.26l6.95,3.5a1,1,0,0,0,.88,0l7-4c.24-.14.4,0,.36.24l-1.26,7.48a1,1,0,0,0,.31.8Z"/><path class="cls-17" d="M1096.32,104.53c.21.17.17.34-.11.38l-7.63,1.15a1,1,0,0,0-.7.53l-3,6.83c-.11.26-.31.26-.44,0l-3.52-6.49a1,1,0,0,0-.74-.47L1072,106c-.27,0-.34-.18-.14-.38l5.5-5.5a1,1,0,0,0,.24-.84L1076,92.2c-.06-.27.09-.38.33-.26l6.94,3.51a1.08,1.08,0,0,0,.88,0l7-4c.24-.14.4,0,.35.25l-1.25,7.47a.93.93,0,0,0,.31.8Z"/><path class="cls-17" d="M1107.32,131.69c.21.18.17.35-.11.39l-7.63,1.14a1,1,0,0,0-.7.54l-3,6.83c-.11.25-.31.26-.44,0l-3.52-6.5a1.05,1.05,0,0,0-.74-.47l-8.13-.48c-.27,0-.34-.19-.14-.38l5.5-5.5a1,1,0,0,0,.24-.84l-1.65-7.07c-.06-.27.09-.39.33-.26l6.94,3.5a1,1,0,0,0,.88,0l7-4c.24-.14.4,0,.35.24l-1.25,7.48a.93.93,0,0,0,.31.8Z"/><path class="cls-17" d="M1117.65,158.69c.22.18.17.35-.1.39l-7.64,1.14a1,1,0,0,0-.7.54l-3,6.83c-.11.25-.31.26-.44,0l-3.52-6.5a1,1,0,0,0-.74-.47l-8.13-.48c-.27,0-.34-.19-.14-.38l5.5-5.5a1,1,0,0,0,.24-.84l-1.65-7.07c-.06-.27.09-.39.33-.26l6.95,3.5a1,1,0,0,0,.88,0l7-4c.24-.14.4,0,.36.24l-1.26,7.48a1,1,0,0,0,.31.8Z"/><path class="cls-17" d="M981.23,66.44c.22.18.17.35-.1.39L973.49,68a1,1,0,0,0-.69.54l-3,6.83c-.12.25-.31.26-.45,0l-3.52-6.5a1,1,0,0,0-.74-.47L957,67.91c-.28,0-.34-.19-.15-.38l5.5-5.5a1,1,0,0,0,.24-.84l-1.64-7.07c-.07-.27.08-.39.33-.26l6.94,3.5a1,1,0,0,0,.88,0l7.05-4c.24-.14.39,0,.35.24l-1.25,7.48a.91.91,0,0,0,.31.8Z"/><path class="cls-17" d="M970.57,39.28c.21.17.17.34-.11.38l-7.63,1.15a1,1,0,0,0-.7.53l-3,6.83c-.11.26-.31.26-.44,0l-3.52-6.49a1,1,0,0,0-.74-.47l-8.13-.49c-.27,0-.34-.18-.14-.38l5.5-5.5a1,1,0,0,0,.24-.84L950.24,27c-.06-.27.09-.38.33-.26l6.94,3.51a1.08,1.08,0,0,0,.88,0l7.05-4c.24-.14.4,0,.35.25l-1.25,7.47a.93.93,0,0,0,.31.8Z"/><path class="cls-17" d="M960.07,12.15c.21.17.17.35-.11.39l-7.63,1.14a1,1,0,0,0-.7.53l-3,6.84c-.11.25-.31.26-.44,0l-3.52-6.5a1.05,1.05,0,0,0-.74-.47l-8.13-.48c-.27,0-.34-.19-.14-.38l5.5-5.51a1,1,0,0,0,.24-.84L939.74-.17c-.06-.27.09-.39.33-.27L947,3.07a1,1,0,0,0,.88,0l7.05-4c.24-.13.4,0,.35.25L954,6.8a.94.94,0,0,0,.31.81Z"/><path class="cls-17" d="M992.32,93.94c.21.18.17.35-.11.39l-7.63,1.14a1,1,0,0,0-.7.54l-3,6.83c-.11.25-.31.26-.44,0l-3.52-6.5a1.05,1.05,0,0,0-.74-.47L968,95.41c-.27,0-.34-.19-.14-.38l5.5-5.5a1,1,0,0,0,.24-.84L972,81.62c-.06-.27.09-.39.33-.26l6.94,3.5a1,1,0,0,0,.88,0l7.05-4c.24-.14.4,0,.35.24l-1.25,7.48a.93.93,0,0,0,.31.8Z"/><path class="cls-17" d="M1002.48,120.53c.22.17.17.34-.1.38l-7.64,1.15a1,1,0,0,0-.69.53l-3,6.83c-.12.26-.31.26-.45,0L987.07,123a1,1,0,0,0-.74-.47l-8.12-.49c-.28,0-.34-.18-.15-.38l5.5-5.5a1,1,0,0,0,.24-.84l-1.64-7.07c-.07-.27.08-.38.33-.26l6.94,3.51a1.08,1.08,0,0,0,.88,0l7.05-4c.24-.14.39,0,.35.25l-1.25,7.47a.91.91,0,0,0,.31.8Z"/><path class="cls-17" d="M1013.48,147.69c.22.18.17.35-.1.39l-7.64,1.14a1,1,0,0,0-.69.54l-3,6.83c-.12.25-.31.26-.45,0l-3.52-6.5a1,1,0,0,0-.74-.47l-8.12-.48c-.28,0-.34-.19-.15-.38l5.5-5.5a1,1,0,0,0,.24-.84l-1.64-7.07c-.07-.27.08-.39.33-.26l6.94,3.5a1,1,0,0,0,.88,0l7.05-4c.24-.14.39,0,.35.24l-1.25,7.48a.91.91,0,0,0,.31.8Z"/><path class="cls-17" d="M1023.82,174.69c.21.18.17.35-.11.39l-7.63,1.14a1,1,0,0,0-.7.54l-3,6.83c-.11.25-.31.26-.44,0l-3.52-6.5a1.05,1.05,0,0,0-.74-.47l-8.13-.48c-.27,0-.34-.19-.14-.38l5.5-5.5a1,1,0,0,0,.24-.84l-1.65-7.07c-.06-.27.09-.39.33-.26l6.94,3.5a1,1,0,0,0,.88,0l7.05-4c.24-.14.4,0,.35.24l-1.25,7.48a.93.93,0,0,0,.31.8Z"/><path class="cls-17" d="M946.73,62.61c.22.17.17.35-.1.39L939,64.14a1,1,0,0,0-.69.53l-3,6.84c-.12.25-.31.26-.45,0L931.32,65a1,1,0,0,0-.74-.47l-8.12-.48c-.28,0-.34-.19-.15-.39l5.5-5.5a1,1,0,0,0,.24-.84l-1.64-7.07c-.07-.26.08-.38.33-.26l6.94,3.51a1,1,0,0,0,.88,0l7.05-4c.24-.13.39,0,.35.25l-1.25,7.47a.92.92,0,0,0,.31.81Z"/><path class="cls-17" d="M936.07,35.44c.21.18.17.35-.11.39L928.33,37a1,1,0,0,0-.7.54l-3,6.83c-.11.25-.31.26-.44,0l-3.52-6.5a1.05,1.05,0,0,0-.74-.47l-8.13-.48c-.27,0-.34-.19-.14-.38l5.5-5.5a1,1,0,0,0,.24-.84l-1.65-7.07c-.06-.27.09-.39.33-.26l6.94,3.5a1,1,0,0,0,.88,0l7.05-4c.24-.14.4,0,.35.24L930,30.1a.93.93,0,0,0,.31.8Z"/><path class="cls-17" d="M925.57,8.32c.21.17.17.34-.11.39l-7.63,1.14a1,1,0,0,0-.7.53l-3,6.84c-.11.25-.31.25-.44,0l-3.52-6.49a1,1,0,0,0-.74-.47l-8.13-.48c-.27,0-.34-.19-.14-.39l5.5-5.5a1,1,0,0,0,.24-.84L905.24-4c-.06-.26.09-.38.33-.26l6.94,3.51a1.08,1.08,0,0,0,.88,0l7.05-4c.24-.13.4,0,.35.25L919.54,3a1,1,0,0,0,.31.81Z"/><path class="cls-17" d="M957.82,90.11c.21.17.17.35-.11.39l-7.63,1.14a1,1,0,0,0-.7.53l-3,6.84c-.11.25-.31.26-.44,0l-3.52-6.49a1.05,1.05,0,0,0-.74-.47l-8.13-.48c-.27,0-.34-.19-.14-.39l5.5-5.5a1,1,0,0,0,.24-.84l-1.65-7.07c-.06-.26.09-.38.33-.26L944.76,81a1,1,0,0,0,.88,0l7.05-4c.24-.13.4,0,.35.25l-1.25,7.47a1,1,0,0,0,.31.81Z"/><path class="cls-17" d="M968,116.69c.22.18.17.35-.1.39l-7.64,1.14a1,1,0,0,0-.69.54l-3,6.83c-.12.25-.31.26-.45,0l-3.52-6.5a1,1,0,0,0-.74-.47l-8.12-.48c-.28,0-.34-.19-.15-.38l5.5-5.5a1,1,0,0,0,.24-.84l-1.64-7.07c-.07-.27.08-.39.33-.26l6.94,3.5a1,1,0,0,0,.88,0l7.05-4c.24-.14.39,0,.35.24L962,111.35a.91.91,0,0,0,.31.8Z"/><path class="cls-17" d="M979,143.86c.22.17.17.35-.1.39l-7.64,1.14a1,1,0,0,0-.69.53l-3,6.84c-.12.25-.31.26-.45,0l-3.52-6.49a1,1,0,0,0-.74-.47l-8.12-.48c-.28,0-.34-.19-.15-.39l5.5-5.5a1,1,0,0,0,.24-.84l-1.64-7.07c-.07-.26.08-.38.33-.26l6.94,3.51a1,1,0,0,0,.88,0l7.05-4c.24-.13.39,0,.35.25L973,138.51a.92.92,0,0,0,.31.81Z"/><path class="cls-17" d="M989.32,170.86c.21.17.17.35-.11.39l-7.63,1.14a1,1,0,0,0-.7.53l-3,6.84c-.11.25-.31.26-.44,0l-3.52-6.49a1.05,1.05,0,0,0-.74-.47l-8.13-.48c-.27,0-.34-.19-.14-.39l5.5-5.5a1,1,0,0,0,.24-.84L969,158.53c-.06-.26.09-.38.33-.26l6.94,3.51a1,1,0,0,0,.88,0l7.05-4c.24-.13.4,0,.35.25l-1.25,7.47a1,1,0,0,0,.31.81Z"/><path class="cls-17" d="M912.23,59.11c.22.17.17.35-.1.39l-7.64,1.14a1,1,0,0,0-.69.53l-3,6.84c-.12.25-.31.26-.45,0l-3.52-6.49a1,1,0,0,0-.74-.47L888,60.58c-.28,0-.34-.19-.15-.39l5.5-5.5a1,1,0,0,0,.24-.84l-1.64-7.07c-.07-.26.08-.38.33-.26L899.18,50a1,1,0,0,0,.88,0l7.05-4c.24-.13.39,0,.35.25l-1.25,7.47a.92.92,0,0,0,.31.81Z"/><path class="cls-17" d="M901.57,31.94c.21.18.17.35-.11.39l-7.63,1.14a1,1,0,0,0-.7.54l-3,6.83c-.11.25-.31.26-.44,0l-3.52-6.5a1.05,1.05,0,0,0-.74-.47l-8.13-.48c-.27,0-.34-.19-.14-.38l5.5-5.5a1,1,0,0,0,.24-.84l-1.65-7.07c-.06-.27.09-.39.33-.26l6.94,3.5a1,1,0,0,0,.88,0l7.05-4c.24-.14.4,0,.35.24l-1.25,7.48a.93.93,0,0,0,.31.8Z"/><path class="cls-17" d="M891.07,4.82c.21.17.17.34-.11.39l-7.63,1.14a1,1,0,0,0-.7.53l-3,6.84c-.11.25-.31.25-.44,0l-3.52-6.49a1,1,0,0,0-.74-.47l-8.13-.48c-.27,0-.34-.19-.14-.39l5.5-5.5a1,1,0,0,0,.24-.84l-1.65-7.07c-.06-.26.09-.38.33-.26L878-4.26a1.08,1.08,0,0,0,.88,0l7.05-4c.24-.13.4,0,.35.25L885-.53a1,1,0,0,0,.31.81Z"/><path class="cls-17" d="M920.07,163.94c.21.18.17.35-.11.39l-7.63,1.14a1,1,0,0,0-.7.54l-3,6.83c-.11.25-.31.26-.44,0l-3.52-6.5a1.05,1.05,0,0,0-.74-.47l-8.13-.48c-.27,0-.34-.19-.14-.38l5.5-5.5a1,1,0,0,0,.24-.84l-1.65-7.07c-.06-.27.09-.39.33-.26l6.94,3.5a1,1,0,0,0,.88,0l7.05-4c.24-.14.4,0,.35.24L914,158.6a.93.93,0,0,0,.31.8Z"/><path class="cls-17" d="M909.57,136.82c.21.17.17.34-.11.39l-7.63,1.14a1,1,0,0,0-.7.53l-3,6.84c-.11.25-.31.25-.44,0l-3.52-6.49a1,1,0,0,0-.74-.47l-8.13-.48c-.27,0-.34-.19-.14-.39l5.5-5.5a1,1,0,0,0,.24-.84l-1.65-7.07c-.06-.26.09-.38.33-.26l6.94,3.51a1.08,1.08,0,0,0,.88,0l7.05-4c.24-.13.4,0,.35.25l-1.25,7.47a1,1,0,0,0,.31.81Z"/><path class="cls-17" d="M923.32,86.61c.21.17.17.35-.11.39l-7.63,1.14a1,1,0,0,0-.7.53l-3,6.84c-.11.25-.31.26-.44,0L907.91,89a1.05,1.05,0,0,0-.74-.47L899,88.08c-.27,0-.34-.19-.14-.39l5.5-5.5a1,1,0,0,0,.24-.84L903,74.28c-.06-.26.09-.38.33-.26l6.94,3.51a1,1,0,0,0,.88,0l7.05-4c.24-.13.4,0,.35.25l-1.25,7.47a1,1,0,0,0,.31.81Z"/><path class="cls-17" d="M933.48,113.19c.22.18.17.35-.1.39l-7.64,1.14a1,1,0,0,0-.69.54l-3,6.83c-.12.25-.31.26-.45,0l-3.52-6.5a1,1,0,0,0-.74-.47l-8.12-.48c-.28,0-.34-.19-.15-.38l5.5-5.5a1,1,0,0,0,.24-.84l-1.64-7.07c-.07-.27.08-.39.33-.26l6.94,3.5a1,1,0,0,0,.88,0l7.05-4c.24-.14.39,0,.35.24l-1.25,7.48a.91.91,0,0,0,.31.8Z"/><path class="cls-17" d="M944.48,140.36c.22.17.17.35-.1.39l-7.64,1.14a1,1,0,0,0-.69.53l-3,6.84c-.12.25-.31.26-.45,0l-3.52-6.49a1,1,0,0,0-.74-.47l-8.12-.48c-.28,0-.34-.19-.15-.39l5.5-5.5a1,1,0,0,0,.24-.84L924.16,128c-.07-.26.08-.38.33-.26l6.94,3.51a1,1,0,0,0,.88,0l7.05-4c.24-.13.39,0,.35.25L938.46,135a.92.92,0,0,0,.31.81Z"/><path class="cls-17" d="M954.82,167.36c.21.17.17.35-.11.39l-7.63,1.14a1,1,0,0,0-.7.53l-3,6.84c-.11.25-.31.26-.44,0l-3.52-6.49a1.05,1.05,0,0,0-.74-.47l-8.13-.48c-.27,0-.34-.19-.14-.39l5.5-5.5a1,1,0,0,0,.24-.84L934.49,155c-.06-.26.09-.38.33-.26l6.94,3.51a1,1,0,0,0,.88,0l7.05-4c.24-.13.4,0,.35.25L948.79,162a1,1,0,0,0,.31.81Z"/><g class="cls-18"><polygon class="cls-19" points="897.27 182.86 903.33 -12.41 740.17 -12.41 740.17 181.59 897.27 182.86"/><rect class="cls-20" x="847.44" y="-69.73" width="36.62" height="332.57" transform="translate(438.28 -662.46) rotate(54.25)"/><rect class="cls-20" x="894.29" y="83.43" width="35.76" height="136.96" transform="translate(502.51 -677.13) rotate(54.25)"/><rect class="cls-20" x="803.17" y="-60.77" width="36.26" height="199.95" transform="translate(373.26 -650.24) rotate(54.25)"/><rect class="cls-20" x="741.84" y="-24.18" width="35.16" height="38.27" transform="translate(311.62 -618.41) rotate(54.25)"/></g><g class="cls-21"><polygon class="cls-22" points="1097.13 95.96 1149.19 74.4 1139.63 29.71 1087.44 51.28 1097.13 95.96"/><polygon class="cls-22" points="1116.63 184.46 1168.69 162.9 1159.13 118.21 1106.94 139.78 1116.63 184.46"/><polygon class="cls-22" points="1158.63 118.71 1210.69 97.15 1201.13 52.46 1148.94 74.03 1158.63 118.71"/><polygon class="cls-22" points="1178.13 207.21 1230.19 185.65 1220.63 140.96 1168.44 162.53 1178.13 207.21"/><polygon class="cls-22" points="1201.13 52.96 1253.19 31.4 1243.63 -13.29 1191.44 8.28 1201.13 52.96"/><polygon class="cls-22" points="1220.63 141.46 1272.69 119.9 1263.13 75.21 1210.94 96.78 1220.63 141.46"/><polygon class="cls-22" points="1035.38 73.21 1087.44 51.65 1077.88 6.96 1025.69 28.53 1035.38 73.21"/><polygon class="cls-22" points="1139.38 29.96 1191.44 8.4 1181.88 -36.29 1129.69 -14.72 1139.38 29.96"/><polygon class="cls-22" points="1077.63 7.21 1129.69 -14.35 1120.13 -59.04 1067.94 -37.47 1077.63 7.21"/><polygon class="cls-22" points="1054.88 161.71 1106.94 140.15 1097.38 95.46 1045.19 117.03 1054.88 161.71"/><polygon class="cls-22" points="1012.38 227.21 1064.44 205.65 1054.88 160.96 1002.69 182.53 1012.38 227.21"/></g></g></svg>