<svg xmlns="http://www.w3.org/2000/svg" xmlns:xlink="http://www.w3.org/1999/xlink" viewBox="0 0 141 57"><defs><style>.cls-1{fill:url(#名称未設定グラデーション_118);}</style><linearGradient id="名称未設定グラデーション_118" x1="424.2" y1="901.53" x2="524.83" y2="843.43" gradientTransform="translate(942.98 -446.02) rotate(90)" gradientUnits="userSpaceOnUse"><stop offset="0" stop-color="#fff7cc"/><stop offset="0.11" stop-color="#fff3af"/><stop offset="0.28" stop-color="#ffed87"/><stop offset="0.42" stop-color="#ffe96f"/><stop offset="0.5" stop-color="#ffe866"/><stop offset="0.58" stop-color="#ffe96f"/><stop offset="0.72" stop-color="#ffed87"/><stop offset="0.89" stop-color="#fff3af"/><stop offset="1" stop-color="#fff7cc"/></linearGradient></defs><title>ho-mu</title><g id="レイヤー_5" data-name="レイヤー 5"><rect class="cls-1" width="141" height="57" rx="5" ry="5"/><path d="M11.73,41.64C13.66,40.86,17.27,32.37,18,27a12.29,12.29,0,0,0,.25-2.25l5.7,1.6L23.7,27c-.16.37-.28.74-.45,1.15l-.12.33,0,.08a30,30,0,0,1-8.94,13,5.68,5.68,0,0,0-1.23,1.23Zm15.79-27.8a8.81,8.81,0,0,0-.21-2.05h5.74a12,12,0,0,0-.2,2.05v5.5H44.53a11.78,11.78,0,0,0,2-.21v2.05a9.35,9.35,0,0,0-2-.2H32.85V43.16a12,12,0,0,0,.2,2.05H27.31a12.4,12.4,0,0,0,.21-2.05V21H15.59a12.16,12.16,0,0,0-2.05.2V19.13a11.78,11.78,0,0,0,2.05.21H27.52ZM43.22,42.3c-1.15-5.78-4.63-13.82-6.76-15.62l2-1.64a6.46,6.46,0,0,0,1.15,1.35A45.13,45.13,0,0,1,48.3,39.26Z"/><path d="M87.29,29.3a10.23,10.23,0,0,0-1.88-.21H56.83A6.76,6.76,0,0,0,55,29.3v-3a7.28,7.28,0,0,0,1.84.2H85.41a10.75,10.75,0,0,0,1.88-.2Z"/><path d="M94.22,39.06a32.11,32.11,0,0,0,3.86-.33l.61,0,.7-.08c3.16-7.18,7.67-21,8.4-25.87,0-.29,0-.33.09-.5l6.43,1.93c-.32.62-.57,1.07-.73,1.48a1.22,1.22,0,0,0-.13.28l-.57,1.4a154.65,154.65,0,0,1-11.32,21c8-.94,14.89-2,20-3-1.76-3.77-4.3-7.63-5.7-8.73L117.84,25a17.44,17.44,0,0,0,2.3,2.46,45.71,45.71,0,0,1,9.26,12.79c.62,1.23.7,1.43.9,1.76l-5.41,3.12a6.76,6.76,0,0,0-.37-1.68,8.84,8.84,0,0,0-.2-.87,40.79,40.79,0,0,0-1.89-5.41c-6.11,2-14.64,4.43-24.6,6.89a20.73,20.73,0,0,0-2,.66Z"/></g></svg>