<svg xmlns="http://www.w3.org/2000/svg" xmlns:xlink="http://www.w3.org/1999/xlink" viewBox="0 0 185 57"><defs><style>.cls-1{fill:url(#名称未設定グラデーション_118);}.cls-2{fill:#332e14;}</style><linearGradient id="名称未設定グラデーション_118" x1="631.73" y1="667.98" x2="751.41" y2="598.88" gradientTransform="translate(725.93 -663.07) rotate(90)" gradientUnits="userSpaceOnUse"><stop offset="0" stop-color="#fff7cc"/><stop offset="0.11" stop-color="#fff3af"/><stop offset="0.28" stop-color="#ffed87"/><stop offset="0.42" stop-color="#ffe96f"/><stop offset="0.5" stop-color="#ffe866"/><stop offset="0.58" stop-color="#ffe96f"/><stop offset="0.72" stop-color="#ffed87"/><stop offset="0.89" stop-color="#fff3af"/><stop offset="1" stop-color="#fff7cc"/></linearGradient></defs><title>menyu</title><g id="レイヤー_1" data-name="レイヤー 1"><rect class="cls-1" width="185" height="57" rx="5" ry="5"/></g><g id="レイヤー_5" data-name="レイヤー 5"><path class="cls-2" d="M18.52,21.3a9.66,9.66,0,0,0,2.25,1.1c3.34,1.35,6.24,2.61,8.4,3.71a42.6,42.6,0,0,0,3.18-13.86l5.95,1.38c-.2.66-.28,1-.36,1.31,0,.12-.08.37-.13.61l-.16.82a49.22,49.22,0,0,1-4,12.15,55.14,55.14,0,0,1,8.69,6.16l-3.71,4.89a36.17,36.17,0,0,0-7.22-7.17C27.86,37.62,21.7,41.78,14.2,44a6.38,6.38,0,0,0-1.71.73l-.86-1.67C17,42,24.4,35.7,27.54,29.54c-3.43-2.41-9.18-5.63-10.36-5.83Z"/><path class="cls-2" d="M85.46,41.21a8.78,8.78,0,0,0-2-.21H55a11.31,11.31,0,0,0-2,.21V35.74a11.75,11.75,0,0,0,2,.2H83.42a11.75,11.75,0,0,0,2-.2ZM82,20.36a9.21,9.21,0,0,0-2-.2H58.34a12,12,0,0,0-2,.2V17.75a10.78,10.78,0,0,0,2,.21H80a10.78,10.78,0,0,0,2-.21Z"/><path class="cls-2" d="M101.74,26.2a6,6,0,0,0-1.51.2V24.48a4.87,4.87,0,0,0,1.51.25h15.62l-1.51,15.86h4.81a6.25,6.25,0,0,0,1.51-.2v1.88a4.63,4.63,0,0,0-1.51-.21H98.31a5.56,5.56,0,0,0-1.51.21V40.39a5.75,5.75,0,0,0,1.51.2H111.2l1.27-14.39Z"/><path class="cls-2" d="M166.84,29.46a10.23,10.23,0,0,0-1.88-.21H136.53a6.73,6.73,0,0,0-1.83.21v-3a7.25,7.25,0,0,0,1.83.2H165a10.75,10.75,0,0,0,1.88-.2Z"/></g></svg>