<svg xmlns="http://www.w3.org/2000/svg" xmlns:xlink="http://www.w3.org/1999/xlink" viewBox="0 0 185 57"><defs><style>.cls-1{fill:url(#名称未設定グラデーション_118);}.cls-2{fill:#332e14;}</style><linearGradient id="名称未設定グラデーション_118" x1="567.52" y1="732.19" x2="687.2" y2="663.09" gradientTransform="translate(790.14 -598.86) rotate(90)" gradientUnits="userSpaceOnUse"><stop offset="0" stop-color="#fff7cc"/><stop offset="0.11" stop-color="#fff3af"/><stop offset="0.28" stop-color="#ffed87"/><stop offset="0.42" stop-color="#ffe96f"/><stop offset="0.5" stop-color="#ffe866"/><stop offset="0.58" stop-color="#ffe96f"/><stop offset="0.72" stop-color="#ffed87"/><stop offset="0.89" stop-color="#fff3af"/><stop offset="1" stop-color="#fff7cc"/></linearGradient></defs><title>omisezyouhou</title><g id="レイヤー_1" data-name="レイヤー 1"><rect class="cls-1" width="185" height="57" rx="5" ry="5"/></g><g id="レイヤー_5" data-name="レイヤー 5"><path class="cls-2" d="M23.05,13.67a8.67,8.67,0,0,0-.2-2h5.54a12.4,12.4,0,0,0-.16,2V18l8.16-.13a12.74,12.74,0,0,0,2-.16v2H38.3l-.53-.12c-1.06-.17-1.14-.17-1.3-.12h-.08l-8.16.12v4.57c5.91,0,9.54.69,12.2,2.24,2.93,1.71,4.44,4.57,4.44,8.48,0,4.2-2,7.26-5.95,9.18-2.12,1-3.47,1.39-7.75,2.08a.83.83,0,0,0-.29,0l-.41-1.55h.21a5.57,5.57,0,0,0,2.69-.45c3.75-1.34,5.91-4.77,5.91-9.26,0-3.5-.85-5.67-2.85-7.38-1.63-1.34-4.53-2.16-7.75-2.16h-.45V40.76c0,3.18-2.16,4.65-6.81,4.65-6,0-9.91-3.55-9.91-9,0-6,4.28-10.4,11.54-11.74v-5l-8.65.16a12.07,12.07,0,0,0-2,.21V18a12.49,12.49,0,0,0,2,.2L23.05,18Zm0,12.57c-4.81,1.83-6.85,4.89-6.85,10.23,0,4.49,1.87,7.35,4.81,7.35,1.47,0,2-.82,2-2.86ZM44,22.57c-2.28-4.12-5.42-7.88-7.54-8.9l1.51-1.79a4.89,4.89,0,0,0,1.22.82,39.94,39.94,0,0,1,8.08,6.24Z"/><path class="cls-2" d="M67,12.49a13.5,13.5,0,0,0-.2-2.45H73.3a16.57,16.57,0,0,0-.2,2.45v3.1H84.15a17.55,17.55,0,0,0,2.45-.16v2a16.21,16.21,0,0,0-2.45-.17H59.52v9.06c0,7.79-2.24,13.7-7.18,19.13l-.73,1.1-1.39-1L51,44.47c1.88-4.33,2.7-9.95,2.7-18.15V18.73a14.63,14.63,0,0,0-.21-3.26,28.42,28.42,0,0,0,3.06.12H67ZM81.18,32.93a20.77,20.77,0,0,0,3.06-.13A15.27,15.27,0,0,0,84,35.86v7a15.27,15.27,0,0,0,.21,3.06,21.11,21.11,0,0,0-2.41-.13h-19a21.69,21.69,0,0,0-3.06.13A15.09,15.09,0,0,0,60,42.84v-7a15.75,15.75,0,0,0-.21-3.06,27.84,27.84,0,0,0,3.06.13h5.67V21a13.41,13.41,0,0,0-.2-2.44h6a16.36,16.36,0,0,0-.2,2.44v3.47h9.3a17.55,17.55,0,0,0,2.45-.16v2a16.21,16.21,0,0,0-2.45-.17h-9.3v6.86ZM65.56,34.56v9.58H78.4V34.56Z"/><path class="cls-2" d="M95.09,18.85l-.08.9c0,1.92,0,2.33,0,3.79,0,2.37,0,3.55-.12,5.75l0,1.31-4.57-1.26.53-.94a45.21,45.21,0,0,0,2.24-8.81l.12-1.06ZM96,46.38a12.88,12.88,0,0,0,.16-2V12.53a13.5,13.5,0,0,0-.2-2.45h5.3a15.55,15.55,0,0,0-.21,2.45V44.35a15.35,15.35,0,0,0,.21,2.44h-5.3Zm30-22.43a17.55,17.55,0,0,0,2.45-.16v2a16.21,16.21,0,0,0-2.45-.17h-20l.65,1.35-4.24,1.26V26.64a65.64,65.64,0,0,0-.65-7.22l-.29-.93,1.35-.49.4.94c.58,1.18,1.35,3,2.13,4.93a10.26,10.26,0,0,0,1.55.08h6.81V20.77H109a16.26,16.26,0,0,0-2.41.16V19a17,17,0,0,0,2.41.16h4.57v-2.9h-5.92a15.23,15.23,0,0,0-2.4.17v-2a17.75,17.75,0,0,0,2.4.16h5.92V12.53a12.87,12.87,0,0,0-.21-2.45H119a16.57,16.57,0,0,0-.2,2.45v2.08h6.16a16.58,16.58,0,0,0,2.4-.16v2a16,16,0,0,0-2.4-.17h-6.16v2.9h4.73a17.32,17.32,0,0,0,2.44-.16v1.95a17.32,17.32,0,0,0-2.44-.16h-4.73V24ZM111.61,39.61v4.74a17.51,17.51,0,0,0,.16,2.44h-5.1l0-.41a11.88,11.88,0,0,0,.17-2V30.8a11.52,11.52,0,0,0-.21-2.48,28.26,28.26,0,0,0,3,.12h13.26a20.75,20.75,0,0,0,3-.12,15.35,15.35,0,0,0-.2,3V43.61c0,1.88-.94,2.94-2.57,2.94a17.12,17.12,0,0,1-5.18-1l-1.59-.37-.33-1.75a35.47,35.47,0,0,0,3.55.24c.94,0,1.27-.32,1.27-1.22V39.61Zm9.26-9.54h-9.26v3h9.26Zm0,4.61h-9.26V38h9.26Z"/><path class="cls-2" d="M143.63,36.88h3.1a17,17,0,0,0,2.41-.16v2a15.7,15.7,0,0,0-2.41-.17h-3.1v5.84a15.35,15.35,0,0,0,.21,2.44h-5.51c0-.41,0-.45.08-.77,0-.7.08-1.06.08-1.67V38.51h-3.26a14.86,14.86,0,0,0-2.37.17v-2a17.64,17.64,0,0,0,2.37.16h3.26V31.7h-4.36a14.37,14.37,0,0,0-2.33.17v-2a16.69,16.69,0,0,0,2.33.16h2l0-.78a25.85,25.85,0,0,0-1-4.4l-.41-.69,1-.53h-1.43a15.51,15.51,0,0,0-2.36.16v-2a16.8,16.8,0,0,0,2.36.17h4.24v-4.9h-3a16,16,0,0,0-2.36.16v-2a17.61,17.61,0,0,0,2.36.16h3v-3c0-.53-.08-1.34-.16-2.45h5.51a15.55,15.55,0,0,0-.21,2.45v3h3.1a16.63,16.63,0,0,0,2.41-.16v2a17.39,17.39,0,0,0-2.41-.16h-3.1V22h3.92a16.14,16.14,0,0,0,2.4-.17v2a16.86,16.86,0,0,0-2.4-.16h-2.9l4.41,1.95-.94.86a29.47,29.47,0,0,1-3.84,3.59h3.27a16.13,16.13,0,0,0,2.4-.16v2a15.57,15.57,0,0,0-2.4-.17h-3.92Zm-7.54-13.21.36.53.53.49c1,1,1.84,1.75,2.57,2.52l1.06.9-3.87,2h5.67a32.24,32.24,0,0,0,1.51-5.51l.12-.89Zm32.58,3.38a27.92,27.92,0,0,1-3.75,12,19.84,19.84,0,0,0,3.88,2.61l1.47.57L167.17,47l-1-.94a26.82,26.82,0,0,1-3.63-3.71,22.44,22.44,0,0,1-4.16,3.79l-.78.86-1.14-1.15.86-.77a24.5,24.5,0,0,0,3.26-5.47,28,28,0,0,1-3.26-11.95h-1V44.35a16.36,16.36,0,0,0,.2,2.44h-5.63l0-.41a12.88,12.88,0,0,0,.16-2V14.65a16.76,16.76,0,0,0-.2-3.06,25.51,25.51,0,0,0,3.06.13h11.54a20.77,20.77,0,0,0,3.06-.13,16.24,16.24,0,0,0-.2,3.06v6.2a2.34,2.34,0,0,1-2.37,2.65c-.65,0-1.59-.2-5.42-1.26l-.57-.16-1.59-.25-.29-1.75a26.9,26.9,0,0,0,3.71.28c1.06,0,1.39-.28,1.39-1.18V13.35h-6.89V26h7a37.43,37.43,0,0,0,5.42-.16Zm-9.87.57A21.86,21.86,0,0,0,162,35.86a37.89,37.89,0,0,0,1.34-8.24Z"/></g></svg>