<svg xmlns="http://www.w3.org/2000/svg" xmlns:xlink="http://www.w3.org/1999/xlink" viewBox="0 0 304 57"><defs><style>.cls-1{fill:url(#名称未設定グラデーション_118);}</style><linearGradient id="名称未設定グラデーション_118" x1="825.4" y1="407.92" x2="996.6" y2="309.08" gradientTransform="translate(510.5 -882.5) rotate(90)" gradientUnits="userSpaceOnUse"><stop offset="0" stop-color="#fff7cc"/><stop offset="0.11" stop-color="#fff3af"/><stop offset="0.28" stop-color="#ffed87"/><stop offset="0.42" stop-color="#ffe96f"/><stop offset="0.5" stop-color="#ffe866"/><stop offset="0.58" stop-color="#ffe96f"/><stop offset="0.72" stop-color="#ffed87"/><stop offset="0.89" stop-color="#fff3af"/><stop offset="1" stop-color="#fff7cc"/></linearGradient></defs><title>shiraga</title><g id="レイヤー_1" data-name="レイヤー 1"><rect class="cls-1" width="304" height="57" rx="5" ry="5"/></g><g id="レイヤー_5" data-name="レイヤー 5"><path d="M26.13,35.63a16.4,16.4,0,0,0,.2,3.08,23.71,23.71,0,0,0-2.41-.12H14.53a23.73,23.73,0,0,0-3.08.12,15.24,15.24,0,0,0,.21-3.08V16.36a15.92,15.92,0,0,0-.21-3.07,28.72,28.72,0,0,0,3.08.12h8.73a22.57,22.57,0,0,0,3.07-.12,16.29,16.29,0,0,0-.2,3.07Zm-5-10.78v-9.8H16.78v9.8Zm-4.35,1.64V37h4.35V26.49ZM35.11,44.86l-.29-1.93a36.83,36.83,0,0,0,5,.29c1.32,0,1.56-.21,1.56-1.35V33.21H34.25C33.26,39,30,43.14,23.79,46.46l-1.06.78-1.11-1.36,1.23-.61c4.39-3.77,6.44-9.06,6.44-16.48V15a15.8,15.8,0,0,0-.21-3.07,28.72,28.72,0,0,0,3.08.12H43.92A22.8,22.8,0,0,0,47,11.94,16.16,16.16,0,0,0,46.79,15V43.92a2.48,2.48,0,0,1-2.62,2.78A28.69,28.69,0,0,1,37,45.19Zm6.31-21.53h-6.8v5.46a26.82,26.82,0,0,1-.13,2.79h6.93Zm0-9.63h-6.8v8h6.8Z"/><path d="M59.14,15.3a9.94,9.94,0,0,0-2.06.16v-2l.33,0,.33,0a7.93,7.93,0,0,0,1.4.13H80.91v1.93L67.05,26a24.49,24.49,0,0,1,6.19-.74c7.87,0,12.83,3.65,12.83,9.47,0,7.26-5.29,11.07-15.37,11.07-6,0-9.8-2.58-9.8-6.52,0-2.79,2.17-4.67,5.45-4.67,4.43,0,7.83,2.42,10.58,7.5a8.86,8.86,0,0,0,3.4-7.46c0-4.92-3.32-7.91-8.77-7.91A14,14,0,0,0,63.48,29a57.93,57.93,0,0,0-5.78,4.59s-.21.17-.62.54l-.53.53-3.16-4.06a5.27,5.27,0,0,0,1.32-.82L73.36,15.3Zm6.6,21c-2,0-3.37,1.15-3.37,2.83,0,2.91,3.33,5,8,5a11.8,11.8,0,0,0,2-.16,1.63,1.63,0,0,1,.37-.08C71.23,39,68.77,36.33,65.74,36.33Z"/><path d="M112.19,33.62a4.27,4.27,0,0,0-.78,1.77,26.57,26.57,0,0,1-3.36,7.13,5.27,5.27,0,0,1-4.1,2.26c-2.46,0-4.76-2-6.27-5.46-2.1-4.75-2.88-10.21-2.88-20.09V18a19.06,19.06,0,0,0-.12-2.41l5.7.36a17.42,17.42,0,0,0-.2,2.87v2.42c.08,7.71.49,11.2,1.68,14.52,1,2.79,2.29,4.18,3.77,4.18,1.15,0,2.05-.78,3.28-3a12.34,12.34,0,0,0,1.64-4.27Zm11,4.8c-.21-7.21-4.14-16.56-8.16-19.35l2-1.68a1.36,1.36,0,0,0,.24.24c0,.05.25.21.58.5a32.88,32.88,0,0,1,11,16.85l.32,1.19.13.37Z"/><path d="M164.46,16.94a21.06,21.06,0,0,0,3.08-.13,16.28,16.28,0,0,0-.21,3.08V41.83a16.23,16.23,0,0,0,.21,3.07,23.91,23.91,0,0,0-2.42-.12H139.7a23.73,23.73,0,0,0-3.08.12,15.19,15.19,0,0,0,.21-3.07V19.89a16,16,0,0,0-.21-3.08,25.79,25.79,0,0,0,3.08.13h8.16A40.52,40.52,0,0,0,149,11.12l.16-1.48,7.54,1.27-1.35,1.31a39.3,39.3,0,0,1-5.21,4.72Zm-21.4,1.64V29.77h18V18.58Zm0,12.83V43.14h18V31.41Z"/><path d="M206.41,35.8a28.86,28.86,0,0,1-7,5.9,40.86,40.86,0,0,0,6.19.41c.94,0,1.76,0,3.32-.08l2-.2L208,47.2l-2.18-.29a33.63,33.63,0,0,1-11-2.87,54.48,54.48,0,0,1-14.18,3l-1.27.29-.7-1.72,1.43-.08a41.2,41.2,0,0,0,11.16-3.73A20.06,20.06,0,0,1,187,37.36a31.87,31.87,0,0,1-11,7l-1.15.61-.82-1.52,1.19-.49A27.81,27.81,0,0,0,185.33,32h-8.28a18.73,18.73,0,0,0-2.46.17v-2a18.18,18.18,0,0,0,2.46.17h9.14l.13-.33c.24-.54.32-.7.69-1.56l.46-1.48,5.9,1.23-.86,1.48-.21.41-.16.25H209a17.76,17.76,0,0,0,2.46-.17v2A17.76,17.76,0,0,0,209,32H191.2c-.41.7-1.19,1.81-1.89,2.79h12.91a28.85,28.85,0,0,0,4.19-.16ZM176.89,21.65a16,16,0,0,0-2.46.13V19.93a18.18,18.18,0,0,0,2.46.17h1.68V13.62a16,16,0,0,0-.21-3.08,28.72,28.72,0,0,0,3.08.12h9.84a16.49,16.49,0,0,0,2.42-.16v1.89a15.91,15.91,0,0,0-2.42-.17h-7.67v1.52h6.44a17.79,17.79,0,0,0,2.46-.16v1.88a17.79,17.79,0,0,0-2.46-.16h-6.44v1.51h6.44a17.79,17.79,0,0,0,2.46-.16v1.89a16.42,16.42,0,0,0-2.46-.17h-6.44V20.1h8.9a17.31,17.31,0,0,0,2.42-.17v1.89a15.91,15.91,0,0,0-2.42-.17h-2a32.91,32.91,0,0,1,3.89,2.22l1.11.49-3.85,3.24-.41-1c-.25-.49-.41-.77-.7-1.27-3.86,1.19-9.06,2.54-12.42,3.2l-1.44.49-1.48-4.51,1.89.08h1.52a19.3,19.3,0,0,0,.9-3Zm8.52,0A45.9,45.9,0,0,1,181,24.56c2.21,0,7.38-.28,8.81-.41-.12-.2-.2-.28-.41-.61A18.19,18.19,0,0,0,188.2,22l-.37-.33Zm2.87,14.76a17.26,17.26,0,0,0,5.83,3.86,25.47,25.47,0,0,0,4.71-3.86Zm21.16-22.83-1.76.57a39.39,39.39,0,0,1-11.36,2.75l-.78.2-.65-1.23.94-.2A32.08,32.08,0,0,0,204,10.91l1.31-1.19ZM212.07,24l-1.56.45a45.63,45.63,0,0,1-13.82,3l-.86.21-.53-1.4.9-.12c4.47-1.39,8.4-3.32,10.66-5.25l1.11-.94Zm-1.15-5.5-1.64.58a38.28,38.28,0,0,1-12,2.95l-.82.21-.61-1.36.94-.12a31.1,31.1,0,0,0,9.1-5l1-.95Z"/><path d="M236.79,44.41a16.58,16.58,0,0,0,.2,2.46h-6.06l0-.41a13.12,13.12,0,0,0,.16-2.05v-7.3a38.12,38.12,0,0,1-14,8.41l-1.07.49-.78-1.52,1.36-.49c3.6-1.93,7.62-5.91,10.37-10.33h-8.32a18.5,18.5,0,0,0-2.46.16v-2a18.18,18.18,0,0,0,2.46.17h12.42V30.88a13.6,13.6,0,0,0-.2-2.46H237a16.58,16.58,0,0,0-.2,2.46V32h12.67a17.86,17.86,0,0,0,2.46-.17v2a17.79,17.79,0,0,0-2.46-.16H237.57a24.3,24.3,0,0,0,13,6l2.1.25L249,45.72l-1.56-.9a23.47,23.47,0,0,1-10.62-9.43Zm-9.27-22.68-.65.58a47.15,47.15,0,0,1-6.69,7.21l-.86,1L216,26l1.6-.53a85.33,85.33,0,0,0,8-4.27l.86-.78Zm-9.63-5.82,1.1.37c2.09.66,3,1,4.23,1.44l1.27.32-3.12,4.31-.65-.94a41,41,0,0,0-3.69-4.1l-.87-.66.78-1.23Zm2.17-5.41c1.35.41,2.83.9,4.59,1.48l1.11.37,1.35.28-3.24,4.43L223.09,16a35.18,35.18,0,0,0-3.89-4.1l-.74-.49.82-1.27Zm13.33,2a13,13,0,0,0-.21-2.46h5.66a15.56,15.56,0,0,0-.21,2.46v2.66h4.76a22.57,22.57,0,0,0,3.07-.12,14.89,14.89,0,0,0-.2,3v4.92c0,1,.33,1.27,1.56,1.27a2,2,0,0,0,2.05-1,10,10,0,0,0,.37-2.79l-.09-1.68,1.85.49-.08,1.4c.12,1.23.24,3.4.24,4.47,0,2.58-1.39,3.4-5.78,3.4-4.14,0-5.12-.78-5.12-4.14V16.77h-2.83c-.49,6-3.9,9.84-10.91,12.3l-1.11.58-.82-1.48,1.19-.45a13.39,13.39,0,0,0,6.4-10.95h-3.44a17.06,17.06,0,0,0-2.46.17V15a18.09,18.09,0,0,0,2.46.16h3.65Z"/><path d="M266.92,12.92c0,.08.09.41.21,1l.24,1.23s.25.95.78,3.24l.25,1a20.92,20.92,0,0,1,7.91-1.48l.12-.86.17-.78a32.89,32.89,0,0,0,.49-3.65l.12-1v-.33l5.66,1.11a9.83,9.83,0,0,0-.61,2c-.25,1.31-.45,2.25-.9,4.06a15.84,15.84,0,0,1,6.8,3.4,12.7,12.7,0,0,1,4.39,9.92c0,6.07-2.54,10.21-7.63,12.38-2.42,1-4.34,1.48-9,2a2.19,2.19,0,0,0-.37,0l-.33-1.6h.25l.25,0h.49a12.64,12.64,0,0,0,6.44-2.54c2.91-2.25,4.42-5.9,4.42-10.66q0-8.05-6.15-11.19c-2.29,8.57-4.71,14.84-7.09,18.29s-4.8,4.79-8,4.79c-4.67,0-7.79-3.89-7.79-9.71a14.17,14.17,0,0,1,6-11.85l-.37-1.48c-.82-3.44-1-4.43-1.19-5.25a5,5,0,0,0-.45-1.35l4.92-1.23Zm.54,23.58a11.9,11.9,0,0,0-.45-2.38c-.58-2.14-1.77-6.93-2.3-9.31a14.75,14.75,0,0,0-2.63,8.9c0,4.83,1.52,8.4,3.61,8.4,1.85,0,3.28-1.72,5.66-6.84Zm1.92-13c1.44,6,2,8.36,2.59,10.45a95.21,95.21,0,0,0,4.1-14.68,14.6,14.6,0,0,0-7.26,1.89Z"/></g></svg>