<svg id="レイヤー_2" data-name="レイヤー 2" xmlns="http://www.w3.org/2000/svg" viewBox="0 0 1168.99 123.09"><defs><style>.cls-2{fill:none;stroke:#000}.cls-2,.cls-8{stroke-linecap:round}.cls-2{stroke-linejoin:round;stroke-width:7px}.cls-4,.cls-5,.cls-7,.cls-8{fill:#fff}.cls-5,.cls-7,.cls-8{stroke:#231815}.cls-5{stroke-width:.06px}</style></defs><path d="M979.41 80.57h-60.32a.66.66 0 0 0-.66.66v22.46a15.41 15.41 0 0 0 15.41 15.4h30.83a15.4 15.4 0 0 0 15.42-15.4V81.23a.68.68 0 0 0-.68-.66zm-6 23.12a8.74 8.74 0 0 1-8.73 8.74h-30.84a8.76 8.76 0 0 1-8.74-8.74V87.9a.68.68 0 0 1 .68-.65h47a.66.66 0 0 1 .66.65z" stroke-width="6" stroke-linejoin="round" stroke-linecap="round" stroke="#000" fill="none" id="_グループ_" data-name="&lt;グループ&gt;"/><path id="_パス_" data-name="&lt;パス&gt;" class="cls-2" d="M790.82 88.61a74.17 74.17 0 0 0 57.8 30.48v-6.66a67.58 67.58 0 0 1-54.46-30.76v-5.33a.7.7 0 0 1 .19-.47.72.72 0 0 1 .49-.18h39.76a.67.67 0 0 0 .66-.68v-5.34a.67.67 0 0 0-.66-.68h-39.76a.67.67 0 0 1-.68-.67v-8.66a.69.69 0 0 1 .19-.48.74.74 0 0 1 .49-.2H848a.67.67 0 0 0 .67-.65V53a.75.75 0 0 0-.19-.49.81.81 0 0 0-.48-.18h-53.16a.68.68 0 0 1-.68-.68V43a.69.69 0 0 1 .19-.48.79.79 0 0 1 .49-.19h33.07a.67.67 0 0 0 .67-.66v-5.39a.65.65 0 0 0-.19-.48.72.72 0 0 0-.48-.2h-33.07a.68.68 0 0 1-.68-.65v-9.36h41.1v-6.68H747a.67.67 0 0 0-.66.68v5.32a.68.68 0 0 0 .66.68h39.77a.63.63 0 0 1 .48.2.66.66 0 0 1 .2.48V35a.69.69 0 0 1-.2.45.63.63 0 0 1-.48.2h-33.04a.67.67 0 0 0-.67.68v5.34a.63.63 0 0 0 .67.66h33.08a.67.67 0 0 1 .68.67v8.68a.7.7 0 0 1-.2.48.72.72 0 0 1-.48.2h-53.12a.66.66 0 0 0-.69.64v5.35a.68.68 0 0 0 .67.65h53.12a.68.68 0 0 1 .68.68v8.66a.62.62 0 0 1-.2.47.63.63 0 0 1-.48.2H747a.67.67 0 0 0-.66.68V75a.69.69 0 0 0 .2.48.65.65 0 0 0 .46.2h39.77a.68.68 0 0 1 .68.65v5.33A67.62 67.62 0 0 1 733 112.43v6.66a74.18 74.18 0 0 0 57.82-30.48z"/><path id="_パス_2" data-name="&lt;パス&gt;" class="cls-2" d="M953.49 31.13H945a98.91 98.91 0 0 1-53.15 58.06l2.72 6.09a105.62 105.62 0 0 0 54.67-56.44 105.6 105.6 0 0 0 54.64 56.44l2.74-6.09a99 99 0 0 1-53.13-58.06z"/><path id="_パス_3" data-name="&lt;パス&gt;" class="cls-2" d="M945.91 3.5h6.67v11.56h-6.67z"/><path id="_パス_4" data-name="&lt;パス&gt;" class="cls-2" d="M766.6 14.86a.67.67 0 0 0 .49.2h5.33a.68.68 0 0 0 .68-.67V4.15a.64.64 0 0 0-.19-.45.66.66 0 0 0-.49-.2h-5.33a.67.67 0 0 0-.68.65v10.24c.06.15.12.31.19.47z"/><path id="_パス_5" data-name="&lt;パス&gt;" class="cls-2" d="M815.22 4.15a.6.6 0 0 0-.22-.45.62.62 0 0 0-.48-.2h-5.33a.67.67 0 0 0-.67.65v10.24a.64.64 0 0 0 .19.47.62.62 0 0 0 .48.2h5.33a.67.67 0 0 0 .67-.67z"/><path id="_パス_6" data-name="&lt;パス&gt;" class="cls-2" d="M907.93 59.82a.64.64 0 0 0 0 .93l3.78 3.79a.66.66 0 0 0 .94 0l20.44-20.44a.63.63 0 0 0 .2-.47.62.62 0 0 0-.2-.48l-3.79-3.77a.65.65 0 0 0-.93 0z"/><path id="_パス_7" data-name="&lt;パス&gt;" class="cls-2" d="M897.46 42a.66.66 0 0 0 .66-.68V26.27a.63.63 0 0 1 .2-.48.63.63 0 0 1 .48-.2h100.91a.58.58 0 0 1 .46.2.6.6 0 0 1 .21.48v15.09a.67.67 0 0 0 .65.68h5.36a.68.68 0 0 0 .67-.68V19.59a.68.68 0 0 0-.67-.68H892.12a.66.66 0 0 0-.66.68v21.77a.66.66 0 0 0 .66.68z"/><path id="_パス_8" data-name="&lt;パス&gt;" class="cls-2" d="M965.42 43.15a.71.71 0 0 0-.21.48.73.73 0 0 0 .21.47l20.44 20.44a.66.66 0 0 0 .94 0l3.78-3.79a.69.69 0 0 0 .2-.46.66.66 0 0 0-.2-.47l-20.44-20.44a.68.68 0 0 0-.95 0z"/><path id="_パス_9" data-name="&lt;パス&gt;" class="cls-2" d="M1055.89 42a.67.67 0 0 0 .67-.68V26.27a.67.67 0 0 1 .67-.68h100.91a.68.68 0 0 1 .67.68v15.09a.67.67 0 0 0 .67.68h5.35a.67.67 0 0 0 .66-.68V19.59a.67.67 0 0 0-.66-.68h-114.27a.63.63 0 0 0-.48.2.63.63 0 0 0-.2.48v21.77a.68.68 0 0 0 .68.68z"/><path id="_パス_10" data-name="&lt;パス&gt;" d="M1104.35 14.39a.66.66 0 0 0 .66.67h5.34a.64.64 0 0 0 .49-.2.72.72 0 0 0 .18-.47V4.15a.67.67 0 0 0-.67-.65H1105a.65.65 0 0 0-.66.65z" stroke-linejoin="bevel" stroke-width="7" stroke="#000" fill="none"/><path id="_パス_11" data-name="&lt;パス&gt;" class="cls-2" d="M1150.07 36a.67.67 0 0 0-.67-.68H1066a.66.66 0 0 0-.66.68v5.34a.66.66 0 0 0 .66.68h28.41a.66.66 0 0 1 .46 1.13l-18.95 18.95a.65.65 0 0 1-.48.2h-7.19a.68.68 0 0 0-.67.67v5.33a.67.67 0 0 0 .67.67h35.46a.67.67 0 0 1 .67.68v15.1a.67.67 0 0 1-.67.67H1066a.66.66 0 0 0-.66.66v5.37a.66.66 0 0 0 .66.66h37.71a.66.66 0 0 1 .67.67v19a.69.69 0 0 1-.67.68h-53.12a.67.67 0 0 0-.68.64v5.35a.68.68 0 0 0 .68.67h114.27a.67.67 0 0 0 .66-.67v-5.35a.66.66 0 0 0-.66-.64h-53.16a.69.69 0 0 1-.68-.68v-19a.67.67 0 0 1 .68-.67h37.7a.67.67 0 0 0 .67-.66V86.1a.67.67 0 0 0-.67-.66h-37.7a.67.67 0 0 1-.68-.67v-15.1a.67.67 0 0 1 .68-.68h31.84a.72.72 0 0 1 .48.2l8.57 8.58a.65.65 0 0 0 .93 0l3.78-3.77a.58.58 0 0 0 .2-.46.6.6 0 0 0-.2-.47l-24.42-24.44a.69.69 0 0 0-1 0l-3.77 3.78a.67.67 0 0 0-.19.47.73.73 0 0 0 .19.48l7.85 7.85a.64.64 0 0 1 .14.73.66.66 0 0 1-.61.4h-48.78a.69.69 0 0 1-.63-.4.66.66 0 0 1 .15-.73l19-19a.68.68 0 0 1 .48-.18h43.69a.67.67 0 0 0 .67-.68z"/><path id="_パス_12" data-name="&lt;パス&gt;" class="cls-2" d="M104.15 19.55A.74.74 0 0 0 104 19a.73.73 0 0 0-.49-.19h-99a.65.65 0 0 0-.66.63l-.35 5.37a.71.71 0 0 0 .17.5.66.66 0 0 0 .49.22h99a.68.68 0 0 0 .67-.64z"/><path id="_パス_13" data-name="&lt;パス&gt;" class="cls-2" d="M66.23 119.13a33.43 33.43 0 0 0 33.36-31.21l3.67-55a.62.62 0 0 0-.19-.5.64.64 0 0 0-.48-.22h-5.37a.68.68 0 0 0-.66.64l-3.65 54.63a26.75 26.75 0 0 1-26.68 25H23.36a.67.67 0 0 0-.67.6l-.36 5.37a.66.66 0 0 0 .17.49.68.68 0 0 0 .49.22z"/><path id="_パス_14" data-name="&lt;パス&gt;" class="cls-2" d="M231.2 19.55a.75.75 0 0 0-.2-.55.73.73 0 0 0-.49-.19h-99a.66.66 0 0 0-.67.63l-2.15 32.08a.78.78 0 0 0 .19.52.7.7 0 0 0 .48.2h5.37a.69.69 0 0 0 .67-.62l1.69-25.5a.67.67 0 0 1 .68-.62h92.35a.68.68 0 0 0 .66-.64z"/><path id="_パス_15" data-name="&lt;パス&gt;" class="cls-2" d="M193.28 119.13a33.41 33.41 0 0 0 33.35-31.21l3.68-55a.65.65 0 0 0-.18-.5.68.68 0 0 0-.5-.22h-5.34a.68.68 0 0 0-.68.64L220 87.47a26.77 26.77 0 0 1-26.69 25H150.4a.67.67 0 0 0-.67.6l-.35 5.37a.66.66 0 0 0 .17.49.68.68 0 0 0 .49.22z"/><path id="_パス_16" data-name="&lt;パス&gt;" class="cls-2" d="M358.24 19.55a.75.75 0 0 0-.18-.52.67.67 0 0 0-.48-.19h-99a.66.66 0 0 0-.66.63l-.36 5.34a.68.68 0 0 0 .18.5.64.64 0 0 0 .49.22h99a.68.68 0 0 0 .67-.64z"/><path id="_パス_17" data-name="&lt;パス&gt;" class="cls-2" d="M320.32 119.13a33.44 33.44 0 0 0 33.37-31.21l3.66-55a.65.65 0 0 0-.18-.5.67.67 0 0 0-.5-.22h-5.34a.67.67 0 0 0-.67.64L347 87.47a26.77 26.77 0 0 1-26.7 25h-42.86a.67.67 0 0 0-.66.6l-.36 5.37a.66.66 0 0 0 .18.49.68.68 0 0 0 .5.22z"/><path id="_パス_18" data-name="&lt;パス&gt;" class="cls-2" d="M485.3 19.55a.86.86 0 0 0-.18-.52.76.76 0 0 0-.5-.19h-98.95a.66.66 0 0 0-.68.63l-2.13 32.08a.71.71 0 0 0 .16.52.77.77 0 0 0 .5.2h5.35a.68.68 0 0 0 .68-.62l1.7-25.5a.65.65 0 0 1 .66-.62h92.35a.67.67 0 0 0 .67-.64z"/><path id="_パス_19" data-name="&lt;パス&gt;" class="cls-2" d="M447.37 119.13a33.44 33.44 0 0 0 33.37-31.21l3.65-55a.65.65 0 0 0-.18-.5.62.62 0 0 0-.47-.22h-5.37a.67.67 0 0 0-.66.64l-3.65 54.63a26.76 26.76 0 0 1-26.69 25h-42.88a.68.68 0 0 0-.67.6l-.36 5.37a.63.63 0 0 0 .19.49.64.64 0 0 0 .49.22z"/><path id="_パス_20" data-name="&lt;パス&gt;" class="cls-2" d="M540.47 98.4a.65.65 0 0 0 .15.54.69.69 0 0 0 .51.26h3.38a.67.67 0 0 0 .65-.5l22.74-79.05a.63.63 0 0 0-.11-.6.65.65 0 0 0-.51-.25h-12a.68.68 0 0 0-.67.55z"/><path id="_パス_21" data-name="&lt;パス&gt;" class="cls-2" d="M542.81 119.27a.69.69 0 0 0 .65-.5l2.23-9.54a.63.63 0 0 0-.13-.56.68.68 0 0 0-.52-.26h-9a.69.69 0 0 0-.65.52l-2.21 9.53a.68.68 0 0 0 .12.57.66.66 0 0 0 .53.24z"/><path id="_パス_22" data-name="&lt;パス&gt;" class="cls-4" d="M790.82 88.61a74.17 74.17 0 0 0 57.8 30.48v-6.66a67.58 67.58 0 0 1-54.46-30.76v-5.33a.7.7 0 0 1 .19-.47.72.72 0 0 1 .49-.18h39.76a.67.67 0 0 0 .66-.68v-5.34a.67.67 0 0 0-.66-.68h-39.76a.67.67 0 0 1-.68-.67v-8.66a.69.69 0 0 1 .19-.48.74.74 0 0 1 .49-.2H848a.67.67 0 0 0 .67-.65V53a.75.75 0 0 0-.19-.49.81.81 0 0 0-.48-.18h-53.16a.68.68 0 0 1-.68-.68V43a.69.69 0 0 1 .19-.48.79.79 0 0 1 .49-.19h33.07a.67.67 0 0 0 .67-.66v-5.39a.65.65 0 0 0-.19-.48.72.72 0 0 0-.48-.2h-33.07a.68.68 0 0 1-.68-.65v-9.36h41.1v-6.68H747a.67.67 0 0 0-.66.68v5.32a.68.68 0 0 0 .66.68h39.77a.63.63 0 0 1 .48.2.66.66 0 0 1 .2.48V35a.69.69 0 0 1-.2.45.63.63 0 0 1-.48.2h-33.04a.67.67 0 0 0-.67.68v5.34a.63.63 0 0 0 .67.66h33.08a.67.67 0 0 1 .68.67v8.68a.7.7 0 0 1-.2.48.72.72 0 0 1-.48.2h-53.12a.66.66 0 0 0-.69.64v5.35a.68.68 0 0 0 .67.65h53.12a.68.68 0 0 1 .68.68v8.66a.62.62 0 0 1-.2.47.63.63 0 0 1-.48.2H747a.67.67 0 0 0-.66.68V75a.69.69 0 0 0 .2.48.65.65 0 0 0 .46.2h39.77a.68.68 0 0 1 .68.65v5.33A67.62 67.62 0 0 1 733 112.43v6.66a74.18 74.18 0 0 0 57.82-30.48z"/><path id="_パス_23" data-name="&lt;パス&gt;" class="cls-4" d="M953.49 31.13H945a98.91 98.91 0 0 1-53.15 58.06l2.72 6.09a105.62 105.62 0 0 0 54.67-56.44 105.6 105.6 0 0 0 54.64 56.44l2.74-6.09a99 99 0 0 1-53.13-58.06z"/><path id="_パス_24" data-name="&lt;パス&gt;" class="cls-4" d="M945.91 3.5h6.67v11.56h-6.67z"/><path class="cls-4" d="M979.41 80.57h-60.32a.66.66 0 0 0-.66.66v22.46a15.41 15.41 0 0 0 15.41 15.4h30.83a15.4 15.4 0 0 0 15.42-15.4V81.23a.68.68 0 0 0-.68-.66zm-6 23.12a8.74 8.74 0 0 1-8.73 8.74h-30.84a8.76 8.76 0 0 1-8.74-8.74V87.9a.68.68 0 0 1 .68-.65h47a.66.66 0 0 1 .66.65z" id="_グループ_2" data-name="&lt;グループ&gt;"/><path id="_パス_25" data-name="&lt;パス&gt;" class="cls-4" d="M766.6 14.86a.67.67 0 0 0 .49.2h5.33a.68.68 0 0 0 .68-.67V4.15a.64.64 0 0 0-.19-.45.66.66 0 0 0-.49-.2h-5.33a.67.67 0 0 0-.68.65v10.24c.06.15.12.31.19.47z"/><path id="_パス_26" data-name="&lt;パス&gt;" class="cls-4" d="M815.22 4.15a.6.6 0 0 0-.22-.45.62.62 0 0 0-.48-.2h-5.33a.67.67 0 0 0-.67.65v10.24a.64.64 0 0 0 .19.47.62.62 0 0 0 .48.2h5.33a.67.67 0 0 0 .67-.67z"/><path id="_パス_27" data-name="&lt;パス&gt;" class="cls-4" d="M907.93 59.82a.64.64 0 0 0 0 .93l3.78 3.79a.66.66 0 0 0 .94 0l20.44-20.44a.63.63 0 0 0 .2-.47.62.62 0 0 0-.2-.48l-3.79-3.77a.65.65 0 0 0-.93 0z"/><path id="_パス_28" data-name="&lt;パス&gt;" class="cls-4" d="M897.46 42a.66.66 0 0 0 .66-.68V26.27a.63.63 0 0 1 .2-.48.63.63 0 0 1 .48-.2h100.91a.58.58 0 0 1 .46.2.6.6 0 0 1 .21.48v15.09a.67.67 0 0 0 .65.68h5.36a.68.68 0 0 0 .67-.68V19.59a.68.68 0 0 0-.67-.68H892.12a.66.66 0 0 0-.66.68v21.77a.66.66 0 0 0 .66.68z"/><path id="_パス_29" data-name="&lt;パス&gt;" class="cls-4" d="M965.42 43.15a.71.71 0 0 0-.21.48.73.73 0 0 0 .21.47l20.44 20.44a.66.66 0 0 0 .94 0l3.78-3.79a.69.69 0 0 0 .2-.46.66.66 0 0 0-.2-.47l-20.44-20.44a.68.68 0 0 0-.95 0z"/><path id="_パス_30" data-name="&lt;パス&gt;" class="cls-4" d="M1055.89 42a.67.67 0 0 0 .67-.68V26.27a.67.67 0 0 1 .67-.68h100.91a.68.68 0 0 1 .67.68v15.09a.67.67 0 0 0 .67.68h5.35a.67.67 0 0 0 .66-.68V19.59a.67.67 0 0 0-.66-.68h-114.27a.63.63 0 0 0-.48.2.63.63 0 0 0-.2.48v21.77a.68.68 0 0 0 .68.68z"/><path id="_パス_31" data-name="&lt;パス&gt;" class="cls-4" d="M1104.35 14.39a.66.66 0 0 0 .66.67h5.34a.64.64 0 0 0 .49-.2.72.72 0 0 0 .18-.47V4.15a.67.67 0 0 0-.67-.65H1105a.65.65 0 0 0-.66.65z"/><path id="_パス_32" data-name="&lt;パス&gt;" class="cls-4" d="M1150.07 36a.67.67 0 0 0-.67-.68H1066a.66.66 0 0 0-.66.68v5.34a.66.66 0 0 0 .66.68h28.41a.66.66 0 0 1 .46 1.13l-18.95 18.95a.65.65 0 0 1-.48.2h-7.19a.68.68 0 0 0-.67.67v5.33a.67.67 0 0 0 .67.67h35.46a.67.67 0 0 1 .67.68v15.1a.67.67 0 0 1-.67.67H1066a.66.66 0 0 0-.66.66v5.37a.66.66 0 0 0 .66.66h37.71a.66.66 0 0 1 .67.67v19a.69.69 0 0 1-.67.68h-53.12a.67.67 0 0 0-.68.64v5.35a.68.68 0 0 0 .68.67h114.27a.67.67 0 0 0 .66-.67v-5.35a.66.66 0 0 0-.66-.64h-53.16a.69.69 0 0 1-.68-.68v-19a.67.67 0 0 1 .68-.67h37.7a.67.67 0 0 0 .67-.66V86.1a.67.67 0 0 0-.67-.66h-37.7a.67.67 0 0 1-.68-.67v-15.1a.67.67 0 0 1 .68-.68h31.84a.72.72 0 0 1 .48.2l8.57 8.58a.65.65 0 0 0 .93 0l3.78-3.77a.58.58 0 0 0 .2-.46.6.6 0 0 0-.2-.47l-24.42-24.44a.69.69 0 0 0-1 0l-3.77 3.78a.67.67 0 0 0-.19.47.73.73 0 0 0 .19.48l7.85 7.85a.64.64 0 0 1 .14.73.66.66 0 0 1-.61.4h-48.78a.69.69 0 0 1-.63-.4.66.66 0 0 1 .15-.73l19-19a.68.68 0 0 1 .48-.18h43.69a.67.67 0 0 0 .67-.68z"/><path id="_パス_33" data-name="&lt;パス&gt;" class="cls-5" d="M104.15 19.55A.74.74 0 0 0 104 19a.73.73 0 0 0-.49-.19h-99a.65.65 0 0 0-.66.63l-.35 5.37a.71.71 0 0 0 .17.5.66.66 0 0 0 .49.22h99a.68.68 0 0 0 .67-.64z"/><path id="_パス_34" data-name="&lt;パス&gt;" class="cls-5" d="M66.23 119.13a33.43 33.43 0 0 0 33.36-31.21l3.67-55a.62.62 0 0 0-.19-.5.64.64 0 0 0-.48-.22h-5.37a.68.68 0 0 0-.66.64l-3.65 54.63a26.75 26.75 0 0 1-26.68 25H23.36a.67.67 0 0 0-.67.6l-.36 5.37a.66.66 0 0 0 .17.49.68.68 0 0 0 .49.22z"/><path id="_パス_35" data-name="&lt;パス&gt;" class="cls-5" d="M231.2 19.55a.75.75 0 0 0-.2-.55.73.73 0 0 0-.49-.19h-99a.66.66 0 0 0-.67.63l-2.15 32.08a.78.78 0 0 0 .19.52.7.7 0 0 0 .48.2h5.37a.69.69 0 0 0 .67-.62l1.69-25.5a.67.67 0 0 1 .68-.62h92.35a.68.68 0 0 0 .66-.64z"/><path id="_パス_36" data-name="&lt;パス&gt;" class="cls-5" d="M193.28 119.13a33.41 33.41 0 0 0 33.35-31.21l3.68-55a.65.65 0 0 0-.18-.5.68.68 0 0 0-.5-.22h-5.34a.68.68 0 0 0-.68.64L220 87.47a26.77 26.77 0 0 1-26.69 25H150.4a.67.67 0 0 0-.67.6l-.35 5.37a.66.66 0 0 0 .17.49.68.68 0 0 0 .49.22z"/><path id="_パス_37" data-name="&lt;パス&gt;" class="cls-5" d="M358.24 19.55a.75.75 0 0 0-.18-.52.67.67 0 0 0-.48-.19h-99a.66.66 0 0 0-.66.63l-.36 5.34a.68.68 0 0 0 .18.5.64.64 0 0 0 .49.22h99a.68.68 0 0 0 .67-.64z"/><path id="_パス_38" data-name="&lt;パス&gt;" class="cls-5" d="M320.32 119.13a33.44 33.44 0 0 0 33.37-31.21l3.66-55a.65.65 0 0 0-.18-.5.67.67 0 0 0-.5-.22h-5.34a.67.67 0 0 0-.67.64L347 87.47a26.77 26.77 0 0 1-26.7 25h-42.86a.67.67 0 0 0-.66.6l-.36 5.37a.66.66 0 0 0 .18.49.68.68 0 0 0 .5.22z"/><path id="_パス_39" data-name="&lt;パス&gt;" class="cls-5" d="M485.3 19.55a.86.86 0 0 0-.18-.52.76.76 0 0 0-.5-.19h-98.95a.66.66 0 0 0-.68.63l-2.13 32.08a.71.71 0 0 0 .16.52.77.77 0 0 0 .5.2h5.35a.68.68 0 0 0 .68-.62l1.7-25.5a.65.65 0 0 1 .66-.62h92.35a.67.67 0 0 0 .67-.64z"/><path id="_パス_40" data-name="&lt;パス&gt;" class="cls-5" d="M447.37 119.13a33.44 33.44 0 0 0 33.37-31.21l3.65-55a.65.65 0 0 0-.18-.5.62.62 0 0 0-.47-.22h-5.37a.67.67 0 0 0-.66.64l-3.65 54.63a26.76 26.76 0 0 1-26.69 25h-42.88a.68.68 0 0 0-.67.6l-.36 5.37a.63.63 0 0 0 .19.49.64.64 0 0 0 .49.22z"/><g id="_グループ_3" data-name="&lt;グループ&gt;"><path id="_パス_41" data-name="&lt;パス&gt;" class="cls-5" d="M540.47 98.4a.65.65 0 0 0 .15.54.69.69 0 0 0 .51.26h3.38a.67.67 0 0 0 .65-.5l22.74-79.05a.63.63 0 0 0-.11-.6.65.65 0 0 0-.51-.25h-12a.68.68 0 0 0-.67.55z"/><path id="_パス_42" data-name="&lt;パス&gt;" class="cls-5" d="M542.81 119.27a.69.69 0 0 0 .65-.5l2.23-9.54a.63.63 0 0 0-.13-.56.68.68 0 0 0-.52-.26h-9a.69.69 0 0 0-.65.52l-2.21 9.53a.68.68 0 0 0 .12.57.66.66 0 0 0 .53.24z"/></g><g id="_グループ_4" data-name="&lt;グループ&gt;"><g id="_グループ_5" data-name="&lt;グループ&gt;"><path class="cls-4" d="M713.29 76.76l-.09-.41a1.4 1.4 0 0 0-.56-.79l-.83-.52a.53.53 0 0 1-.17-.72l1.12-1.79a2.11 2.11 0 0 0 .26-1L713 70a1 1 0 0 0-.5-.76l-1.75-.84c-.26-.12-.25-.31 0-.41l2-.76a.79.79 0 0 0 .48-.71l-.05-2.46a.88.88 0 0 0-.5-.73l-1.75-.75a8.32 8.32 0 0 1-.93-.5l-1.14-.77c-.24-.16-.21-.33.08-.39l1.93-.35a.78.78 0 0 0 .6-.62l.21-1.49a2.18 2.18 0 0 0-.14-1l-.74-1.71a1.29 1.29 0 0 0-.71-.65l-1.35-.46a.36.36 0 0 1-.19-.59l.93-1.27c.17-.24.43-.64.57-.89l.72-1.26a.91.91 0 0 0 0-.89l-.73-1a2.16 2.16 0 0 0-.8-.64l-1.12-.46a4 4 0 0 0-1-.23l-1.26-.07c-.29 0-.38-.21-.19-.44l1.23-1.49a1.35 1.35 0 0 0 .26-.93l-.08-.55a1.78 1.78 0 0 0-.46-.89l-1.26-1.24a2.42 2.42 0 0 0-.9-.5l-1.36-.3a.34.34 0 0 1-.21-.56l.8-1.11a1.7 1.7 0 0 0 .24-1l-.14-1.11a1.86 1.86 0 0 0-.42-.91l-.43-.46a1 1 0 0 0-.87-.26l-2.74.7c-.28.07-.41-.09-.29-.35l.68-1.46a1 1 0 0 0-.1-.91l-.41-.56a2.24 2.24 0 0 0-.8-.63l-.67-.3a1.8 1.8 0 0 0-1-.07l-1 .27-1 .29-.71.22a.47.47 0 0 1-.61-.37l-.11-.57a6.22 6.22 0 0 1-.1-1.05v-.73a1.25 1.25 0 0 0-.42-.86l-.74-.59a1.16 1.16 0 0 0-.92-.19l-2.29.62a6.84 6.84 0 0 0-1 .35l-1.06.47a.32.32 0 0 1-.49-.31V29a4.48 4.48 0 0 0-.14-1l-.18-.58a2.43 2.43 0 0 0-.52-.89l-.67-.69a.77.77 0 0 0-.84-.13l-2 1.12a6.37 6.37 0 0 0-.88.58l-.27.22a.31.31 0 0 1-.54-.18l-.05-.22a6.85 6.85 0 0 0-.38-1l-.61-1.2a2.8 2.8 0 0 0-.67-.78l-.39-.28a.87.87 0 0 0-.88 0l-1.46.88c-.25.15-.66.39-.92.52l-.78.41a.37.37 0 0 1-.57-.27l-.26-1.31a1.24 1.24 0 0 0-.58-.76l-1.27-.65a.82.82 0 0 0-.86.13L669 24.41c-.21.2-.44.13-.52-.15l-.51-1.93a.75.75 0 0 0-.66-.53l-1.67-.05a1.67 1.67 0 0 0-.94.3l-1.72 1.36a.47.47 0 0 1-.7-.12L660.85 21a1.23 1.23 0 0 0-.81-.5l-1.95-.17a.88.88 0 0 0-.78.42l-1.2 2.25c-.13.25-.34.24-.44 0l-.25-.63a1.69 1.69 0 0 0-.66-.74l-1.13-.6a.8.8 0 0 0-.85.12l-1.55 1.45a2.81 2.81 0 0 0-.59.86l-.39 1c-.1.27-.28.27-.39 0l-.6-1.5a8.48 8.48 0 0 1-.32-1l-.17-.66a.73.73 0 0 0-.66-.52l-2.22-.06a1.21 1.21 0 0 0-.85.41l-.79 1a2.15 2.15 0 0 0-.38.94l-.21 1.84c0 .29-.22.35-.41.13l-1.72-2a1.26 1.26 0 0 0-.87-.39l-1.43.05a.81.81 0 0 0-.7.51l-.7 2.1c-.09.27-.25.72-.36 1l-.24.61a.36.36 0 0 1-.6.16l-.45-.38a3.64 3.64 0 0 1-.67-.79l-.82-1.35a.86.86 0 0 0-.8-.37l-.81.12a.9.9 0 0 0-.66.59l-.5 1.85a.62.62 0 0 1-.66.45h-.21a1.13 1.13 0 0 1-.75-.55l-.33-.66a1.41 1.41 0 0 0-.73-.65l-.56-.2a1.89 1.89 0 0 0-1 0l-.57.2a1.43 1.43 0 0 0-.72.65l-.66 1.37a.51.51 0 0 1-.7.24l-.45-.23a3.18 3.18 0 0 1-.82-.64l-.57-.65a.6.6 0 0 0-.78-.09l-.86.64a2.21 2.21 0 0 0-.64.79l-.36.82a.42.42 0 0 1-.65.18l-.66-.46a1.29 1.29 0 0 0-.94-.17l-1.77.49a1.28 1.28 0 0 0-.72.63l-.49 1.09a5.13 5.13 0 0 0-.31 1l-.29 1.64c-.05.29-.24.33-.41.1l-1.11-1.48a1.35 1.35 0 0 0-.84-.49l-.82-.1a3.27 3.27 0 0 0-1 .09l-.86.27a1.77 1.77 0 0 0-.8.6l-.88 1.25-.58.88-.82 1.24a.35.35 0 0 1-.61 0l-.15-.21a1.17 1.17 0 0 0-.84-.44h-1.57a1.22 1.22 0 0 0-.86.41l-.94 1.24a1.51 1.51 0 0 0-.28.94l.21 2.53c0 .29-.14.38-.37.21l-1-.79a1.35 1.35 0 0 0-.94-.21l-1.41.31a1.42 1.42 0 0 0-.8.55l-.59.92a1.31 1.31 0 0 0-.14 1l.63 2.21c.08.28 0 .35-.16.15a1.58 1.58 0 0 0-.83-.43l-1.31-.2a4 4 0 0 0-1 0l-1.45.2a.75.75 0 0 0-.6.6l-.18 1.28a2 2 0 0 0 .16 1l.79 1.57c.13.26 0 .34-.21.18l-.2-.13a4.85 4.85 0 0 0-1-.45l-.72-.23a1.68 1.68 0 0 0-1 .06l-1.4.64a1.15 1.15 0 0 0-.58.73l-.25 1.21a1 1 0 0 0 .31.85l1.2.94c.23.18.19.4-.09.48l-.24.07a2.07 2.07 0 0 0-.85.56l-1.19 1.39a1.27 1.27 0 0 0-.25.92l.29 1.78a4.43 4.43 0 0 0 .33 1l.78 1.57a.65.65 0 0 1-.19.79l-.92.68a2 2 0 0 0-.59.82l-.45 1.3a1 1 0 0 0 .21.89l1.65 1.7a.32.32 0 0 1-.13.56l-.56.18a2.45 2.45 0 0 0-.85.57l-.71.82a1.32 1.32 0 0 0-.27.92l.31 2.18a1.71 1.71 0 0 0 .48.87l.46.4a3.36 3.36 0 0 0 .9.52l1.18.41c.27.09.3.3.06.47l-1.15.79c-.24.16-.65.42-.9.56l-1 .56a1.18 1.18 0 0 0-.51.79l-.22 2.54a.84.84 0 0 0 .42.77l1.41.76a4.35 4.35 0 0 1 .84.62l.67.67a.57.57 0 0 1 0 .77L586 84.06a.58.58 0 0 0 0 .77l.83.86a1.44 1.44 0 0 0 .9.38h.66c.29 0 .42.21.3.48l-.32.65a6.85 6.85 0 0 0-.38 1l-.64 2.22a2.16 2.16 0 0 0 0 1l.33 1.15a1.15 1.15 0 0 0 .65.68l1 .36a2.21 2.21 0 0 0 1 .07l1.47-.32c.28-.06.4.09.26.35l-.27.51a5.88 5.88 0 0 0-.39 1l-.47 1.78a1.89 1.89 0 0 0 0 1l.58 1.53a1.49 1.49 0 0 0 .66.72l1.23.61a1.69 1.69 0 0 0 1 .11l1.18-.28c.28-.07.41.09.29.35l-.49 1a2 2 0 0 0-.16 1l.16 1.1a.71.71 0 0 0 .6.57l1.15.11a2.93 2.93 0 0 0 1-.14l2-.72c.28-.1.41 0 .3.31l-.54 1.36a1.5 1.5 0 0 0 0 1l.83 1.88a1.07 1.07 0 0 0 .73.57l1.15.19a2.7 2.7 0 0 0 1-.07l1.82-.57c.28-.09.43.07.34.34l-.61 1.84c-.09.28-.22.74-.28 1l-.55 2.56a.37.37 0 0 0 .41.48l4.27-.29a.74.74 0 0 0 .63-.55l.28-1.48c0-.29.12-.76.14-1l.24-3.23a9.48 9.48 0 0 1 .15-1l.54-2.38c.07-.29.18-.29.25 0l.37 1.49a1.22 1.22 0 0 0 .61.74l.6.27a1 1 0 0 0 .92-.09l.39-.28a1.48 1.48 0 0 0 .53-.83l.12-.72a.66.66 0 0 1 .62-.53h1.13a.44.44 0 0 1 .44.53l-.6 3.6c0 .29-.16.75-.24 1l-.63 2a3.6 3.6 0 0 0-.14 1l.12 2.89a.51.51 0 0 0 .55.49l3.8-.28a.68.68 0 0 0 .6-.56l.17-1.28a9.28 9.28 0 0 0 .07-1.06V109a3.24 3.24 0 0 1 .2-1l.55-1.35c.11-.27.25-.25.31 0l.55 2.36a.76.76 0 0 0 .64.56l.68.07a.82.82 0 0 0 .76-.42l.77-1.56a8.38 8.38 0 0 0 .4-1l.78-2.39c.09-.28.18-.27.2 0l.09 1.8a1.41 1.41 0 0 0 .44.86l1.41 1.12a1 1 0 0 0 .91.15l1.32-.51a1.49 1.49 0 0 0 .71-.67l.51-1.17c.12-.27.28-.26.35 0l.5 1.85a1.69 1.69 0 0 0 .58.81l1.48 1a.79.79 0 0 0 .86 0l1.21-.94a1.82 1.82 0 0 0 .55-.84L638 106c.07-.28.14-.27.14 0v.91a1.55 1.55 0 0 0 .36.92l1.32 1.38a1.22 1.22 0 0 0 .89.33l1.29-.14a.78.78 0 0 0 .64-.58l.67-3.08c.06-.28.26-.33.44-.1l.76 1a3.2 3.2 0 0 0 .79.68l1 .58a.79.79 0 0 0 .86-.08l1.23-1.07a3.18 3.18 0 0 0 .64-.82l.62-1.2a.33.33 0 0 1 .58-.06l1.22 1.49a.69.69 0 0 0 .81.18l.92-.44a1.13 1.13 0 0 0 .55-.75l.17-1.28a1.26 1.26 0 0 1 .52-.81l.62-.38a.56.56 0 0 1 .75.16l.7 1.07a4.35 4.35 0 0 0 .69.79l.94.81a1.5 1.5 0 0 0 .93.32l1.14-.06a1.21 1.21 0 0 0 .83-.46l.81-1.16a1.14 1.14 0 0 1 .83-.43h1.61a.48.48 0 0 1 .49.52l-.23 2.71c0 .29-.09.76-.15 1l-.43 2.18a7 7 0 0 1-.28 1l-.42 1.15a.34.34 0 0 0 .34.49h4.6a.45.45 0 0 0 .46-.52l-.17-1.26a9.26 9.26 0 0 1-.07-1v-2a6.22 6.22 0 0 1 .1-1l.11-.57c0-.29.2-.31.33 0l.16.31a4.71 4.71 0 0 0 .58.87l.41.47a1 1 0 0 0 .86.27l.39-.1a.9.9 0 0 0 .6-.65l.13-.75c0-.28.12-.75.15-1v-.27c0-.28.23-.35.43-.15l.36.36a1.92 1.92 0 0 1 .45.9l.15.94a.64.64 0 0 0 .61.53h1a.68.68 0 0 0 .63-.52l.26-1.31a1.05 1.05 0 0 1 .6-.7l.89-.33a1 1 0 0 1 .89.17l.62.55a1.26 1.26 0 0 1 .37.88l-.11 2.67a6.3 6.3 0 0 1-.14 1l-.55 2.38a.5.5 0 0 0 .41.61l4 .72a.4.4 0 0 0 .48-.44l-.09-1.1a7.5 7.5 0 0 1 0-1.06l.19-1.81a7.21 7.21 0 0 1 .2-1l.21-.77c.07-.28.3-.34.5-.13l1 1a1.41 1.41 0 0 0 .89.38h1.14a5.38 5.38 0 0 0 1-.13l.38-.1a.79.79 0 0 0 .55-.66l.08-1.27v-2.33c0-.29.17-.36.37-.15l.51.51a1.53 1.53 0 0 0 .91.37h.83a1.14 1.14 0 0 0 .83-.43l.63-.92a2.83 2.83 0 0 0 .4-1l.13-.76a3.69 3.69 0 0 0 0-1l-.15-.87a.33.33 0 0 1 .43-.41l.39.08a6 6 0 0 0 1 .11h1.44a2.26 2.26 0 0 0 1-.28l.36-.21a1.07 1.07 0 0 0 .45-.81v-.71a3.54 3.54 0 0 1 .19-1l.27-.69a.91.91 0 0 1 .72-.52h.49a1.16 1.16 0 0 0 .8-.48l.55-.9a3.4 3.4 0 0 0 .36-1l.15-.92a1.9 1.9 0 0 0-.15-1l-.33-.67c-.13-.26 0-.47.3-.47h.82a1 1 0 0 0 .8-.46l.72-1.24a1.65 1.65 0 0 0 .16-1l-.27-1.47a.34.34 0 0 1 .42-.42l.84.17a2 2 0 0 0 1-.12l1.39-.64a1.14 1.14 0 0 0 .58-.74l.27-1.29a1.35 1.35 0 0 0-.21-.94l-.45-.6c-.17-.23-.08-.4.21-.37l.67.07a1.72 1.72 0 0 0 1-.22l1.62-1a1.61 1.61 0 0 0 .59-.79l.48-1.67a2.38 2.38 0 0 0 .14-1.23zM627 65.86c-.58 1.81-2.89 8-4 9.69-1.74 2.69-3.14 3.76-5.45 4.6-5.84 2.16-10 .19-13.27-4.07-3.68-4.75-3.64-9.77-5.66-14.87-.71-3.51-2-7.29.56-9.07 3.14-2.28 5.13 1.14 6.37 3.7 2.16 4.37 4.05 5.48 8.44 4.93 4.78-.61 8.32-9.1 13.09-7.66 2.92 2.31.92 9.62-.08 12.75z"/><path d="M713.29 76.76l-.09-.41a1.4 1.4 0 0 0-.56-.79l-.83-.52a.53.53 0 0 1-.17-.72l1.12-1.79a2.11 2.11 0 0 0 .26-1L713 70a1 1 0 0 0-.5-.76l-1.75-.84c-.26-.12-.25-.31 0-.41l2-.76a.79.79 0 0 0 .48-.71l-.05-2.46a.88.88 0 0 0-.5-.73l-1.75-.75a8.32 8.32 0 0 1-.93-.5l-1.14-.77c-.24-.16-.21-.33.08-.39l1.93-.35a.78.78 0 0 0 .6-.62l.21-1.49a2.18 2.18 0 0 0-.14-1l-.74-1.71a1.29 1.29 0 0 0-.71-.65l-1.35-.46a.36.36 0 0 1-.19-.59l.93-1.27c.17-.24.43-.64.57-.89l.72-1.26a.91.91 0 0 0 0-.89l-.73-1a2.16 2.16 0 0 0-.8-.64l-1.12-.46a4 4 0 0 0-1-.23l-1.26-.07c-.29 0-.38-.21-.19-.44l1.23-1.49a1.35 1.35 0 0 0 .26-.93l-.08-.55a1.78 1.78 0 0 0-.46-.89l-1.26-1.24a2.42 2.42 0 0 0-.9-.5l-1.36-.3a.34.34 0 0 1-.21-.56l.8-1.11a1.7 1.7 0 0 0 .24-1l-.14-1.11a1.86 1.86 0 0 0-.42-.91l-.43-.46a1 1 0 0 0-.87-.26l-2.74.7c-.28.07-.41-.09-.29-.35l.68-1.46a1 1 0 0 0-.1-.91l-.41-.56a2.24 2.24 0 0 0-.8-.63l-.67-.3a1.8 1.8 0 0 0-1-.07l-1 .27-1 .29-.71.22a.47.47 0 0 1-.61-.37l-.11-.57a6.22 6.22 0 0 1-.1-1.05v-.73a1.25 1.25 0 0 0-.42-.86l-.74-.59a1.16 1.16 0 0 0-.92-.19l-2.29.62a6.84 6.84 0 0 0-1 .35l-1.06.47a.32.32 0 0 1-.49-.31V29a4.48 4.48 0 0 0-.14-1l-.18-.58a2.43 2.43 0 0 0-.52-.89l-.67-.69a.77.77 0 0 0-.84-.13l-2 1.12a6.37 6.37 0 0 0-.88.58l-.27.22a.31.31 0 0 1-.54-.18l-.05-.22a6.85 6.85 0 0 0-.38-1l-.61-1.2a2.8 2.8 0 0 0-.67-.78l-.39-.28a.87.87 0 0 0-.88 0l-1.46.88c-.25.15-.66.39-.92.52l-.78.41a.37.37 0 0 1-.57-.27l-.26-1.31a1.24 1.24 0 0 0-.58-.76l-1.27-.65a.82.82 0 0 0-.86.13L669 24.41c-.21.2-.44.13-.52-.15l-.51-1.93a.75.75 0 0 0-.66-.53l-1.67-.05a1.67 1.67 0 0 0-.94.3l-1.72 1.36a.47.47 0 0 1-.7-.12L660.85 21a1.23 1.23 0 0 0-.81-.5l-1.95-.17a.88.88 0 0 0-.78.42l-1.2 2.25c-.13.25-.34.24-.44 0l-.25-.63a1.69 1.69 0 0 0-.66-.74l-1.13-.6a.8.8 0 0 0-.85.12l-1.55 1.45a2.81 2.81 0 0 0-.59.86l-.39 1c-.1.27-.28.27-.39 0l-.6-1.5a8.48 8.48 0 0 1-.32-1l-.17-.66a.73.73 0 0 0-.66-.52l-2.22-.06a1.21 1.21 0 0 0-.85.41l-.79 1a2.15 2.15 0 0 0-.38.94l-.21 1.84c0 .29-.22.35-.41.13l-1.72-2a1.26 1.26 0 0 0-.87-.39l-1.43.05a.81.81 0 0 0-.7.51l-.7 2.1c-.09.27-.25.72-.36 1l-.24.61a.36.36 0 0 1-.6.16l-.45-.38a3.64 3.64 0 0 1-.67-.79l-.82-1.35a.86.86 0 0 0-.8-.37l-.81.12a.9.9 0 0 0-.66.59l-.5 1.85a.62.62 0 0 1-.66.45h-.21a1.13 1.13 0 0 1-.75-.55l-.33-.66a1.41 1.41 0 0 0-.73-.65l-.56-.2a1.89 1.89 0 0 0-1 0l-.57.2a1.43 1.43 0 0 0-.72.65l-.66 1.37a.51.51 0 0 1-.7.24l-.45-.23a3.18 3.18 0 0 1-.82-.64l-.57-.65a.6.6 0 0 0-.78-.09l-.86.64a2.21 2.21 0 0 0-.64.79l-.36.82a.42.42 0 0 1-.65.18l-.66-.46a1.29 1.29 0 0 0-.94-.17l-1.77.49a1.28 1.28 0 0 0-.72.63l-.49 1.09a5.13 5.13 0 0 0-.31 1l-.29 1.64c-.05.29-.24.33-.41.1l-1.11-1.48a1.35 1.35 0 0 0-.84-.49l-.82-.1a3.27 3.27 0 0 0-1 .09l-.86.27a1.77 1.77 0 0 0-.8.6l-.88 1.25-.58.88-.82 1.24a.35.35 0 0 1-.61 0l-.15-.21a1.17 1.17 0 0 0-.84-.44h-1.57a1.22 1.22 0 0 0-.86.41l-.94 1.24a1.51 1.51 0 0 0-.28.94l.21 2.53c0 .29-.14.38-.37.21l-1-.79a1.35 1.35 0 0 0-.94-.21l-1.41.31a1.42 1.42 0 0 0-.8.55l-.59.92a1.31 1.31 0 0 0-.14 1l.63 2.21c.08.28 0 .35-.16.15a1.58 1.58 0 0 0-.83-.43l-1.31-.2a4 4 0 0 0-1 0l-1.45.2a.75.75 0 0 0-.6.6l-.18 1.28a2 2 0 0 0 .16 1l.79 1.57c.13.26 0 .34-.21.18l-.2-.13a4.85 4.85 0 0 0-1-.45l-.72-.23a1.68 1.68 0 0 0-1 .06l-1.4.64a1.15 1.15 0 0 0-.58.73l-.25 1.21a1 1 0 0 0 .31.85l1.2.94c.23.18.19.4-.09.48l-.24.07a2.07 2.07 0 0 0-.85.56l-1.19 1.39a1.27 1.27 0 0 0-.25.92l.29 1.78a4.43 4.43 0 0 0 .33 1l.78 1.57a.65.65 0 0 1-.19.79l-.92.68a2 2 0 0 0-.59.82l-.45 1.3a1 1 0 0 0 .21.89l1.65 1.7a.32.32 0 0 1-.13.56l-.56.18a2.45 2.45 0 0 0-.85.57l-.71.82a1.32 1.32 0 0 0-.27.92l.31 2.18a1.71 1.71 0 0 0 .48.87l.46.4a3.36 3.36 0 0 0 .9.52l1.18.41c.27.09.3.3.06.47l-1.15.79c-.24.16-.65.42-.9.56l-1 .56a1.18 1.18 0 0 0-.51.79l-.22 2.54a.84.84 0 0 0 .42.77l1.41.76a4.35 4.35 0 0 1 .84.62l.67.67a.57.57 0 0 1 0 .77L586 84.06a.58.58 0 0 0 0 .77l.83.86a1.44 1.44 0 0 0 .9.38h.66c.29 0 .42.21.3.48l-.32.65a6.85 6.85 0 0 0-.38 1l-.64 2.22a2.16 2.16 0 0 0 0 1l.33 1.15a1.15 1.15 0 0 0 .65.68l1 .36a2.21 2.21 0 0 0 1 .07l1.47-.32c.28-.06.4.09.26.35l-.27.51a5.88 5.88 0 0 0-.39 1l-.47 1.78a1.89 1.89 0 0 0 0 1l.58 1.53a1.49 1.49 0 0 0 .66.72l1.23.61a1.69 1.69 0 0 0 1 .11l1.18-.28c.28-.07.41.09.29.35l-.49 1a2 2 0 0 0-.16 1l.16 1.1a.71.71 0 0 0 .6.57l1.15.11a2.93 2.93 0 0 0 1-.14l2-.72c.28-.1.41 0 .3.31l-.54 1.36a1.5 1.5 0 0 0 0 1l.83 1.88a1.07 1.07 0 0 0 .73.57l1.15.19a2.7 2.7 0 0 0 1-.07l1.82-.57c.28-.09.43.07.34.34l-.61 1.84c-.09.28-.22.74-.28 1l-.55 2.56a.37.37 0 0 0 .41.48l4.27-.29a.74.74 0 0 0 .63-.55l.28-1.48c0-.29.12-.76.14-1l.24-3.23a9.48 9.48 0 0 1 .15-1l.54-2.38c.07-.29.18-.29.25 0l.37 1.49a1.22 1.22 0 0 0 .61.74l.6.27a1 1 0 0 0 .92-.09l.39-.28a1.48 1.48 0 0 0 .53-.83l.12-.72a.66.66 0 0 1 .62-.53h1.13a.44.44 0 0 1 .44.53l-.6 3.6c0 .29-.16.75-.24 1l-.63 2a3.6 3.6 0 0 0-.14 1l.12 2.89a.51.51 0 0 0 .55.49l3.8-.28a.68.68 0 0 0 .6-.56l.17-1.28a9.28 9.28 0 0 0 .07-1.06V109a3.24 3.24 0 0 1 .2-1l.55-1.35c.11-.27.25-.25.31 0l.55 2.36a.76.76 0 0 0 .64.56l.68.07a.82.82 0 0 0 .76-.42l.77-1.56a8.38 8.38 0 0 0 .4-1l.78-2.39c.09-.28.18-.27.2 0l.09 1.8a1.41 1.41 0 0 0 .44.86l1.41 1.12a1 1 0 0 0 .91.15l1.32-.51a1.49 1.49 0 0 0 .71-.67l.51-1.17c.12-.27.28-.26.35 0l.5 1.85a1.69 1.69 0 0 0 .58.81l1.48 1a.79.79 0 0 0 .86 0l1.21-.94a1.82 1.82 0 0 0 .55-.84L638 106c.07-.28.14-.27.14 0v.91a1.55 1.55 0 0 0 .36.92l1.32 1.38a1.22 1.22 0 0 0 .89.33l1.29-.14a.78.78 0 0 0 .64-.58l.67-3.08c.06-.28.26-.33.44-.1l.76 1a3.2 3.2 0 0 0 .79.68l1 .58a.79.79 0 0 0 .86-.08l1.23-1.07a3.18 3.18 0 0 0 .64-.82l.62-1.2a.33.33 0 0 1 .58-.06l1.22 1.49a.69.69 0 0 0 .81.18l.92-.44a1.13 1.13 0 0 0 .55-.75l.17-1.28a1.26 1.26 0 0 1 .52-.81l.62-.38a.56.56 0 0 1 .75.16l.7 1.07a4.35 4.35 0 0 0 .69.79l.94.81a1.5 1.5 0 0 0 .93.32l1.14-.06a1.21 1.21 0 0 0 .83-.46l.81-1.16a1.14 1.14 0 0 1 .83-.43h1.61a.48.48 0 0 1 .49.52l-.23 2.71c0 .29-.09.76-.15 1l-.43 2.18a7 7 0 0 1-.28 1l-.42 1.15a.34.34 0 0 0 .34.49h4.6a.45.45 0 0 0 .46-.52l-.17-1.26a9.26 9.26 0 0 1-.07-1v-2a6.22 6.22 0 0 1 .1-1l.11-.57c0-.29.2-.31.33 0l.16.31a4.71 4.71 0 0 0 .58.87l.41.47a1 1 0 0 0 .86.27l.39-.1a.9.9 0 0 0 .6-.65l.13-.75c0-.28.12-.75.15-1v-.27c0-.28.23-.35.43-.15l.36.36a1.92 1.92 0 0 1 .45.9l.15.94a.64.64 0 0 0 .61.53h1a.68.68 0 0 0 .63-.52l.26-1.31a1.05 1.05 0 0 1 .6-.7l.89-.33a1 1 0 0 1 .89.17l.62.55a1.26 1.26 0 0 1 .37.88l-.11 2.67a6.3 6.3 0 0 1-.14 1l-.55 2.38a.5.5 0 0 0 .41.61l4 .72a.4.4 0 0 0 .48-.44l-.09-1.1a7.5 7.5 0 0 1 0-1.06l.19-1.81a7.21 7.21 0 0 1 .2-1l.21-.77c.07-.28.3-.34.5-.13l1 1a1.41 1.41 0 0 0 .89.38h1.14a5.38 5.38 0 0 0 1-.13l.38-.1a.79.79 0 0 0 .55-.66l.08-1.27v-2.33c0-.29.17-.36.37-.15l.51.51a1.53 1.53 0 0 0 .91.37h.83a1.14 1.14 0 0 0 .83-.43l.63-.92a2.83 2.83 0 0 0 .4-1l.13-.76a3.69 3.69 0 0 0 0-1l-.15-.87a.33.33 0 0 1 .43-.41l.39.08a6 6 0 0 0 1 .11h1.44a2.26 2.26 0 0 0 1-.28l.36-.21a1.07 1.07 0 0 0 .45-.81v-.71a3.54 3.54 0 0 1 .19-1l.27-.69a.91.91 0 0 1 .72-.52h.49a1.16 1.16 0 0 0 .8-.48l.55-.9a3.4 3.4 0 0 0 .36-1l.15-.92a1.9 1.9 0 0 0-.15-1l-.33-.67c-.13-.26 0-.47.3-.47h.82a1 1 0 0 0 .8-.46l.72-1.24a1.65 1.65 0 0 0 .16-1l-.27-1.47a.34.34 0 0 1 .42-.42l.84.17a2 2 0 0 0 1-.12l1.39-.64a1.14 1.14 0 0 0 .58-.74l.27-1.29a1.35 1.35 0 0 0-.21-.94l-.45-.6c-.17-.23-.08-.4.21-.37l.67.07a1.72 1.72 0 0 0 1-.22l1.62-1a1.61 1.61 0 0 0 .59-.79l.48-1.67a2.38 2.38 0 0 0 .14-1.23zM627 65.86c-.58 1.81-2.89 8-4 9.69-1.74 2.69-3.14 3.76-5.45 4.6-5.84 2.16-10 .19-13.27-4.07-3.68-4.75-3.64-9.77-5.66-14.87-.71-3.51-2-7.29.56-9.07 3.14-2.28 5.13 1.14 6.37 3.7 2.16 4.37 4.05 5.48 8.44 4.93 4.78-.61 8.32-9.1 13.09-7.66 2.92 2.31.92 9.62-.08 12.75z" stroke="#231815" fill="none"/></g><path id="_パス_43" data-name="&lt;パス&gt;" class="cls-7" d="M607.23 67.86a.57.57 0 0 1-.51.63c-.28 0-.5-.26-.5-.63s.22-.66.5-.66a.61.61 0 0 1 .51.66z"/><path id="_パス_44" data-name="&lt;パス&gt;" class="cls-7" d="M619.11 67.72a.53.53 0 1 1-1 0 .53.53 0 1 1 1 0z"/><path id="_パス_45" data-name="&lt;パス&gt;" class="cls-8" d="M612.26 75.29a4.75 4.75 0 0 1-.68 2.31"/><path id="_パス_46" data-name="&lt;パス&gt;" class="cls-8" d="M612.17 76.4c.46.41.89.88 1.36 1.3"/></g></svg>