<svg id="layer" xmlns="http://www.w3.org/2000/svg" viewBox="0 0 121.4 11.5"><style>.st0{fill:#231815}.st1,.st4,.st5{fill:#231815;stroke:#231815;stroke-width:5.840000e-02}.st4,.st5{fill:#fff;stroke-width:.146}.st5{stroke-linecap:round}</style><g id="_x3C_group_x3E__1_"><path id="_x3C_path_x3E__22_" class="st0" d="M84.6 8.4c1.3 1.8 3.4 2.9 5.7 3v-.7c-2.2-.1-4.2-1.2-5.4-3v-.5h3.9s.1 0 .1-.1v-.6H85s-.1 0-.1-.1v-.9h5.2s.1 0 .1-.1v-.5H85s-.1 0-.1-.1v-.9h3.3s.1 0 .1-.1v-.6H85s-.1 0-.1-.1v-.9h4v-.7h-8.7s-.1 0-.1.1v.5H84V3h-3.3s-.1 0-.1.1v.5h3.3s.1 0 .1.1v.9h-5.2s-.1 0-.1.1v.5h5.2s.1 0 .1.1v.9h-3.9s-.1 0-.1.1V7h3.9s.1 0 .1.1v.5c-1.2 1.8-3.2 3-5.4 3v.7c2.5 0 4.6-1.1 6-2.9z"/><path id="_x3C_path_x3E__21_" class="st0" d="M100.5 2.7h-.8c-.9 2.5-2.8 4.6-5.2 5.7l.3.6c2.4-1.1 4.4-3.1 5.4-5.5 1 2.5 2.9 4.5 5.4 5.5l.3-.6c-2.6-1.1-4.5-3.1-5.4-5.7z"/><path id="_x3C_path_x3E__20_" class="st0" d="M99.8 0h.7v1.1h-.7z"/><path class="st0" d="M103.1 7.6h-5.9s-.1 0-.1.1v2.2c0 .8.7 1.5 1.5 1.5h3c.4 0 .8-.2 1.1-.4.3-.3.4-.7.4-1.1V7.6c.1 0 0 0 0 0zm-.6 2.3c0 .5-.4.9-.9.9h-3c-.2 0-.4-.1-.6-.3-.2-.2-.3-.4-.3-.6V8.3s0-.1.1-.1h4.6s.1 0 .1.1v1.6z" id="mixed_1_"/><path id="_x3C_path_x3E__19_" class="st0" d="M82.2 1.1h.6s.1 0 .1-.1V0h-.5s-.1 0-.1.1l-.1 1z"/><path id="_x3C_path_x3E__18_" class="st0" d="M87 .1c0-.1-.1-.1 0 0-.1-.1-.1-.1 0 0l-.6-.1s-.1 0-.1.1v1h.5s.1 0 .1-.1V.1z"/><path id="_x3C_path_x3E__17_" class="st0" d="M96.1 5.5c-.1.1-.1.1 0 0l.3.5h.1l2-2-.4-.4H98l-1.9 1.9z"/><path id="_x3C_path_x3E__16_" class="st0" d="M95 3.8c.1 0 .1 0 0 0l.1-1.6h9.9v1.5s0 .1.1.1h.5s.1 0 .1-.1V1.6s0-.1-.1-.1H94.5s-.1 0-.1.1v2.1s0 .1.1.1h.5z"/><path id="_x3C_path_x3E__15_" class="st0" d="M101.7 3.9c0 .1 0 .1 0 0l2 2.1h.1l.4-.4-2-2h-.1l-.4.3z"/><path id="_x3C_path_x3E__14_" class="st0" d="M110.6 3.8c.1 0 .1 0 0 0l.1-1.6s0-.1.1-.1h9.9v1.5s0 .1.1.1h.5s.1 0 .1-.1v-2s0-.1-.1-.1h-11.2v2.1s0 .1.1.1h.4z"/><path id="_x3C_path_x3E__13_" class="st0" d="M115.4 1.1l.6.1v-1s0-.1-.1-.1h-.5v1z"/><path id="_x3C_path_x3E__12_" class="st0" d="M119.9 3.2s-.1-.1 0 0l-8.3-.1s-.1 0-.1.1v.5s0 .1.1.1h2.9v.1l-1.9 1.9h-.7s-.1 0-.1.1v.5s0 .1.1.1h3.5s.1 0 .1.1V8s0 .1-.1.1h-3.7s-.1 0-.1.1v.5s0 .1.1.1h3.7s.1 0 .1.1v1.9s0 .1-.1.1h-5.2s-.1 0-.1.1v.5s0 .1.1.1h11.2s.1 0 .1-.1V11s0-.1-.1-.1h-5.2s-.1 0-.1-.1v-2s0-.1.1-.1h3.7s.1 0 .1-.1v-.5s0-.1-.1-.1h-3.7s-.1 0-.1-.1V6.5s0-.1.1-.1h3.1l.8.8h.1l.4-.4-2.4-2.4h-.1l-.4.4.8.8v.1H113.6h-.1v-.1l1.9-1.9h4.3s.1 0 .1-.1v-.4z"/><path id="_x3C_path_x3E__11_" class="st1" d="M9.9 1.6s0-.1 0 0c0-.1-.1-.1 0 0L.1 1.5s-.1 0-.1.1v.5h9.7s.1 0 .1-.1l.1-.4z"/><path id="_x3C_path_x3E__10_" class="st1" d="M22.4 1.6s0-.1 0 0c0-.1-.1-.1 0 0l-9.8-.1s-.1 0-.1.1l-.2 3.2v.1h.5s.1 0 .1-.1l.2-2.5s0-.1.1-.1h9.1s.1 0 .1-.1v-.5z"/><path id="_x3C_path_x3E__9_" class="st1" d="M34.9 1.6s0-.1 0 0c-.1-.1-.1-.1 0 0l-9.8-.1s-.1 0-.1.1v.5h9.7s.1 0 .1-.1l.1-.4z"/><path id="_x3C_path_x3E__8_" class="st1" d="M47.4 1.6s0-.1 0 0c-.1-.1-.1-.1 0 0l-9.8-.1s-.1 0-.1.1l-.2 3.2v.1h.5s.1 0 .1-.1l.2-2.5s0-.1.1-.1h9.1s.1 0 .1-.1v-.5z"/><path id="_x3C_path_x3E__7_" class="st1" d="M6.2 11.4c1.7 0 3.2-1.3 3.3-3.1l.4-5.4h-.7s-.1 0-.1.1l-.3 5.3c-.1 1.4-1.2 2.5-2.6 2.5H2s-.1 0-.1.1v.5h4.3z"/><path id="_x3C_path_x3E__6_" class="st1" d="M18.7 11.4c1.7 0 3.2-1.3 3.3-3.1l.4-5.4h-.5s-.1 0-.1.1l-.4 5.4c-.1 1.4-1.2 2.5-2.6 2.5h-4.2s-.1 0-.1.1v.5h4.2z"/><path id="_x3C_path_x3E__5_" class="st1" d="M31.2 11.4c1.7 0 3.2-1.3 3.3-3.1l.4-5.4h-.5s-.1 0-.1.1l-.4 5.4c-.1 1.4-1.2 2.5-2.6 2.5h-4.2s-.1 0-.1.1v.5h4.2z"/><path id="_x3C_path_x3E__4_" class="st1" d="M43.6 11.4c1.7 0 3.2-1.3 3.3-3.1l.4-5.4h-.5s-.1 0-.1.1l-.4 5.4c-.1 1.4-1.2 2.5-2.6 2.5h-4.2s-.1 0-.1.1v.5h4.2z"/><g id="_x3C_group_x3E_"><path id="_x3C_path_x3E__24_" class="st1" d="M52.8 9.3c0 .1 0 .1 0 0 0 .1 0 .1 0 0l.4.1h.1l2.2-7.8v-.1h-1.3s-.1 0-.1.1l-1.3 7.7z"/><path id="_x3C_path_x3E__23_" class="st1" d="M53 11.4c.1 0 .1 0 0 0l.3-1v-.1h-1s-.1 0-.1.1l-.2.9v.1h1z"/></g><g id="mixed"><path d="M75.1 7.3l-.1-.1s-.1-.1 0-.2c0-.1.1-.2.1-.3 0-.1-.1-.2-.1-.2-.1 0-.1-.1 0-.1s.2-.1.2-.2c-.1-.2-.2-.3-.2-.3-.1 0-.2-.1-.2-.1-.1 0 0-.1 0-.1.1 0 .2-.1.2-.2v-.3c0-.1-.1-.2-.2-.2s-.1-.1 0-.2c0-.1.1-.2.1-.2v-.2c0-.1-.1-.1-.2-.1s-.2 0-.2-.1c-.1 0-.1-.1 0-.1-.1 0 0-.1 0-.1s-.1-.1-.1-.2c-.1-.1-.2-.1-.2-.1-.1 0-.1-.1 0-.1 0-.1.1-.2.1-.2 0-.1 0-.1-.1-.2h-.3c-.1 0-.2 0-.1-.1v-.2l-.1-.1h-.2c-.1 0-.1 0-.2.1 0 0-.1 0-.1-.1v-.2c0-.1 0-.1-.1-.2h-.3c-.1 0-.2.1-.3.1h-.1v-.2s-.1-.1-.1-.2h-.2c-.1 0-.2.1-.2.1h-.1s0-.1-.1-.2c0-.1-.1-.1-.1-.2h-.2c-.1 0-.2.1-.2.1-.2.1-.2.1-.2 0s-.1-.1-.1-.2c-.1 0-.2 0-.2.1-.1.1-.1 0-.2 0 0-.1-.1-.2-.2-.2s-.2 0-.3.1c-.1.1-.2 0-.2-.1-.1-.1-.2-.2-.3-.2-.1 0-.2.1-.2.1 0 .1-.1.1-.1.1l-.1-.1c-.1 0-.2 0-.2.1-.1.1-.1.2-.2.2 0 .1-.1 0-.1 0 0-.1-.1-.2-.1-.2s-.1-.1-.2-.1-.2 0-.2.1-.1.2-.1.2c0 .1-.1.1-.1 0-.1-.1-.2-.1-.3-.1-.1 0-.2.1-.2.2s-.1.2-.1.2-.1.1-.1 0c-.1 0-.2-.1-.2-.1 0-.1-.1-.1-.2-.1s-.1.1-.1.2-.1.1-.1.1-.1 0-.1-.1l-.1-.1h-.2l-.1.1c0 .1-.1.1-.1.1l-.1-.1h-.2s-.1.1-.1.2-.1.1-.1 0h-.2c-.1 0-.2.1-.2.1 0 .1-.1.2-.1.2 0 .1-.1.1-.1 0s-.1-.1-.2-.1h-.2c-.1 0-.1.1-.2.1 0 .1-.1.2-.1.2L64 3s-.1-.1-.2-.1-.2 0-.2.1-.1.2-.1.3c0 .1 0 .2-.1.1-.1 0-.2-.1-.2 0-.1 0-.2.1-.2.1v.4s-.1 0-.2-.1h-.3c-.1 0-.1.1-.1.1v.4s-.1 0-.1-.1h-.2c-.1 0-.1.1-.1.2s0 .2.1.2.1.1 0 .1c0 0-.1.1-.2.1-.1.1-.1.2-.1.3 0 .1.1.2.1.3v.2c-.1 0-.1.1-.1.2s0 .2.1.2c.1.1.1.1 0 .2 0 0-.1.1-.2.1 0 0-.1.2 0 .3 0 .1.1.2.1.2s.1.1.2.1.1.1 0 .1-.1.1-.2.1-.1.1-.1.2 0 .2.1.3c.1 0 .2.1.2.1v.2c-.1.1-.1.2 0 .2 0 0 .1.1.2.1 0 0 .1 0 0 .1 0 0-.1.2-.1.3v.3c0 .1.1.1.1.1H62.5s-.1.1-.1.2v.3c0 .1.1.2.2.2h.2c.1 0 .1 0 .1.1v.2c0 .1.1.1.1.1h.3c.1 0 .1 0 .1.1v.3c0 .1.1.2.2.2h.3c.1 0 .1 0 .1.1s-.1.2-.1.3c0 .1.1.2.2.2.2 0 .3-.1.3-.1v-.4c0-.1 0-.3.1-.4 0-.1.1-.1.1 0s.1.1.1.2h.1l.1-.1c0-.1.1-.1.1-.1.1 0 .1.1.1.2s-.1.3-.1.4v.4c0 .1.1.2.3.2.1 0 .3-.1.3-.1v-.6-.3c0-.1.1 0 .1.1s.1.2.1.2.1 0 .2-.1c0-.1.1-.2.1-.3 0-.1.1-.1.1 0s.1.2.1.2c.1.1.2.1.2 0 .1 0 .1-.1.2-.2 0-.1.1 0 .1 0 0 .1.1.2.2.2h.2c.1 0 .1-.1.1-.2s0-.1 0 0 0 .2.1.2c.1.1.2.1.2.1.1 0 .1-.1.2-.2 0-.1.1-.2.1-.1s.1.1.2.2h.2l.2-.2c0-.1.1-.1.2 0s.1.1.2.1.1-.1.1-.2.1-.1.1-.2c0 0 .1 0 .1.1s.1.1.2.2c0 0 .1.1.2.1s.1-.1.2-.1c0-.1.1-.1.2-.1s.1.1.1.2v.4c0 .1-.1.2-.1.3 0 .1.1.1.3.1.2 0 .3-.1.3-.1V11v-.2s0-.1 0 0l.1.1s.1.1.1 0l.1-.1v-.2h.1s.1.1.1.2.1.1.1.1l.1-.1c0-.1.1-.1.1-.2h.2s.1.2.1.3v.4c0 .1.1.2.2.2s.3 0 .3-.1v-.3-.2c0-.1.1-.1.1 0s.1.1.2.1h.2l.1-.1v-.2c0-.1 0-.1.1-.1 0 0 .1.1.2.1s.1 0 .2-.1c0-.1.1-.1.1-.2v-.2c0-.1 0-.1.1-.1h.4l.1-.1v-.2l.1-.1s.1 0 .1-.1c-.2-.4-.2-.5-.2-.6v-.2s0-.1.1-.1.1-.1.2-.1c0-.1.1-.2 0-.2 0-.1 0-.1.1-.1h.2c.1 0 .1-.1.1-.2v-.2-.1s.1 0 .2-.1c.1 0 .1-.1.2-.2v-.2zm-9-1.1c-.1.2-.3.8-.4 1-.2.3-.3.4-.6.5-.6.2-1 0-1.4-.4-.4-.5-.4-1-.6-1.5 0-.4-.1-.8.2-1 .3-.2.5.1.7.4.2.5.4.6.9.5.5-.1.9-.9 1.4-.8.2.2 0 1-.2 1.3z" fill="#fff"/><path d="M75.1 7.3l-.1-.1s-.1-.1 0-.2c0-.1.1-.2.1-.3 0-.1-.1-.2-.1-.2-.1 0-.1-.1 0-.1s.2-.1.2-.2c-.1-.2-.2-.3-.2-.3-.1 0-.2-.1-.2-.1-.1 0 0-.1 0-.1.1 0 .2-.1.2-.2v-.3c0-.1-.1-.2-.2-.2s-.1-.1 0-.2c0-.1.1-.2.1-.2v-.2c0-.1-.1-.1-.2-.1s-.2 0-.2-.1c-.1 0-.1-.1 0-.1-.1 0 0-.1 0-.1s-.1-.1-.1-.2c-.1-.1-.2-.1-.2-.1-.1 0-.1-.1 0-.1 0-.1.1-.2.1-.2 0-.1 0-.1-.1-.2h-.3c-.1 0-.2 0-.1-.1v-.2l-.1-.1h-.2c-.1 0-.1 0-.2.1 0 0-.1 0-.1-.1v-.2c0-.1 0-.1-.1-.2h-.3c-.1 0-.2.1-.3.1h-.1v-.2s-.1-.1-.1-.2h-.2c-.1 0-.2.1-.2.1h-.1s0-.1-.1-.2c0-.1-.1-.1-.1-.2h-.2c-.1 0-.2.1-.2.1-.2.1-.2.1-.2 0s-.1-.1-.1-.2c-.1 0-.2 0-.2.1-.1.1-.1 0-.2 0 0-.1-.1-.2-.2-.2s-.2 0-.3.1c-.1.1-.2 0-.2-.1-.1-.1-.2-.2-.3-.2-.1 0-.2.1-.2.1 0 .1-.1.1-.1.1l-.1-.1c-.1 0-.2 0-.2.1-.1.1-.1.2-.2.2 0 .1-.1 0-.1 0 0-.1-.1-.2-.1-.2s-.1-.1-.2-.1-.2 0-.2.1-.1.2-.1.2c0 .1-.1.1-.1 0-.1-.1-.2-.1-.3-.1-.1 0-.2.1-.2.2s-.1.2-.1.2-.1.1-.1 0c-.1 0-.2-.1-.2-.1 0-.1-.1-.1-.2-.1s-.1.1-.1.2-.1.1-.1.1-.1 0-.1-.1l-.1-.1h-.2l-.1.1c0 .1-.1.1-.1.1l-.1-.1h-.2s-.1.1-.1.2-.1.1-.1 0h-.2c-.1 0-.2.1-.2.1 0 .1-.1.2-.1.2 0 .1-.1.1-.1 0s-.1-.1-.2-.1h-.2c-.1 0-.1.1-.2.1 0 .1-.1.2-.1.2L64 3s-.1-.1-.2-.1-.2 0-.2.1-.1.2-.1.3c0 .1 0 .2-.1.1-.1 0-.2-.1-.2 0-.1 0-.2.1-.2.1v.4s-.1 0-.2-.1h-.3c-.1 0-.1.1-.1.1v.4s-.1 0-.1-.1h-.2c-.1 0-.1.1-.1.2s0 .2.1.2.1.1 0 .1c0 0-.1.1-.2.1-.1.1-.1.2-.1.3 0 .1.1.2.1.3v.2c-.1 0-.1.1-.1.2s0 .2.1.2c.1.1.1.1 0 .2 0 0-.1.1-.2.1 0 0-.1.2 0 .3 0 .1.1.2.1.2s.1.1.2.1.1.1 0 .1-.1.1-.2.1-.1.1-.1.2 0 .2.1.3c.1 0 .2.1.2.1v.2c-.1.1-.1.2 0 .2 0 0 .1.1.2.1 0 0 .1 0 0 .1 0 0-.1.2-.1.3v.3c0 .1.1.1.1.1H62.5s-.1.1-.1.2v.3c0 .1.1.2.2.2h.2c.1 0 .1 0 .1.1v.2c0 .1.1.1.1.1h.3c.1 0 .1 0 .1.1v.3c0 .1.1.2.2.2h.3c.1 0 .1 0 .1.1s-.1.2-.1.3c0 .1.1.2.2.2.2 0 .3-.1.3-.1v-.4c0-.1 0-.3.1-.4 0-.1.1-.1.1 0s.1.1.1.2h.1l.1-.1c0-.1.1-.1.1-.1.1 0 .1.1.1.2s-.1.3-.1.4v.4c0 .1.1.2.3.2.1 0 .3-.1.3-.1v-.6-.3c0-.1.1 0 .1.1s.1.2.1.2.1 0 .2-.1c0-.1.1-.2.1-.3 0-.1.1-.1.1 0s.1.2.1.2c.1.1.2.1.2 0 .1 0 .1-.1.2-.2 0-.1.1 0 .1 0 0 .1.1.2.2.2h.2c.1 0 .1-.1.1-.2s0-.1 0 0 0 .2.1.2c.1.1.2.1.2.1.1 0 .1-.1.2-.2 0-.1.1-.2.1-.1s.1.1.2.2h.2l.2-.2c0-.1.1-.1.2 0s.1.1.2.1.1-.1.1-.2.1-.1.1-.2c0 0 .1 0 .1.1s.1.1.2.2c0 0 .1.1.2.1s.1-.1.2-.1c0-.1.1-.1.2-.1s.1.1.1.2v.4c0 .1-.1.2-.1.3 0 .1.1.1.3.1.2 0 .3-.1.3-.1V11v-.2s0-.1 0 0l.1.1s.1.1.1 0l.1-.1v-.2h.1s.1.1.1.2.1.1.1.1l.1-.1c0-.1.1-.1.1-.2h.2s.1.2.1.3v.4c0 .1.1.2.2.2s.3 0 .3-.1v-.3-.2c0-.1.1-.1.1 0s.1.1.2.1h.2l.1-.1v-.2c0-.1 0-.1.1-.1 0 0 .1.1.2.1s.1 0 .2-.1c0-.1.1-.1.1-.2v-.2c0-.1 0-.1.1-.1h.4l.1-.1v-.2l.1-.1s.1 0 .1-.1c-.2-.4-.2-.5-.2-.6v-.2s0-.1.1-.1.1-.1.2-.1c0-.1.1-.2 0-.2 0-.1 0-.1.1-.1h.2c.1 0 .1-.1.1-.2v-.2-.1s.1 0 .2-.1c.1 0 .1-.1.2-.2v-.2zm-9-1.1c-.1.2-.3.8-.4 1-.2.3-.3.4-.6.5-.6.2-1 0-1.4-.4-.4-.5-.4-1-.6-1.5 0-.4-.1-.8.2-1 .3-.2.5.1.7.4.2.5.4.6.9.5.5-.1.9-.9 1.4-.8.2.2 0 1-.2 1.3z" fill="none" stroke="#231815" stroke-width=".146"/></g><path id="_x3C_path_x3E__3_" class="st4" d="M64.1 6.4s0 .1 0 0c-.1.1-.1 0-.1 0s0-.1.1 0c0-.1 0 0 0 0z"/><path id="_x3C_path_x3E__2_" class="st4" d="M65.3 6.4s0 .1 0 0c-.1.1-.1 0-.1 0s0-.1.1 0c0-.1 0 0 0 0z"/><path id="_x3C_path_x3E__1_" class="st5" d="M64.6 7.2c0 .1 0 .2-.1.2"/><path id="_x3C_path_x3E_" class="st5" d="M64.6 7.3l.1.1"/></g></svg>