<svg id="layer" xmlns="http://www.w3.org/2000/svg" viewBox="0 0 865.81 70.14"><defs><style>.cls-1{fill:none;stroke:#fff;stroke-width:6px;}.cls-2{fill:#1a1a1a;}</style></defs><title>More wonderful life</title><path class="cls-1" d="M36,43.62c5.65,1.51,10.67,3.44,19.62,7.22a22.79,22.79,0,0,0,2.27.9l-4.75,8.6C51,58,42,52.15,36,49.19V51c0,8.81-5.23,12.94-16.31,12.94C9.06,63.92,3,59.79,3,52.49S9.12,41,19.72,41a47.58,47.58,0,0,1,7.16.62V9.69a15.59,15.59,0,0,0-.34-3.44h9.77A19.11,19.11,0,0,0,36,9.69V22.14H52.89a19.1,19.1,0,0,0,3.44-.34v3.44a15.59,15.59,0,0,0-3.44-.34H36Zm-9.08,2.06A36.9,36.9,0,0,0,16.63,44C10,44,5.89,47.26,5.89,52.42S10.5,61,17.52,61c6.61,0,9.36-2.89,9.36-9.84Z"/><path class="cls-1" d="M70.52,46.92a33.54,33.54,0,0,0-.28-3.86,125.42,125.42,0,0,1-.69-13.21,145.42,145.42,0,0,1,1.1-18.92,12.7,12.7,0,0,0,.28-2.27l9.29,1.44c-1.1,2.75-1.72,10-1.72,20.16,0,6.61.55,12.87,1.31,15.35Zm9.22,16.45c4.33,0,11.28-3.72,15.21-8.06,5.29-6,7.22-12.38,7.22-24.15A143.62,143.62,0,0,0,101.07,12l-.07-.28-.07-.48a8.06,8.06,0,0,0-.34-1.65L110.5,9a2.1,2.1,0,0,0-.07.62c0,.28.07,1,.14,1.72.41,3.92.89,14.93.89,20.3,0,10.53-1.93,17.14-6.74,22.78-4.61,5.44-11,8.74-21.13,10.87a15.86,15.86,0,0,0-2.89.83Z"/><path class="cls-1" d="M123.17,19.12a18.74,18.74,0,0,0,3.44.34H151c-1.1-2.13-1.59-3.16-2.21-4.47-2.13-4.54-2.27-4.75-3.44-6.47l8.47-3.44c.48,1.65,2.13,5.37,6.67,14.38h14a20,20,0,0,0,3.44-.34v3.44a15,15,0,0,0-3.44-.35H162c2.41,5,3,6,5.37,10.26L170,37.28A12.19,12.19,0,0,0,171.2,39L163,43.34c-2.34-5.3-9-8.6-17.27-8.6s-14.25,4.61-14.25,10.94c0,7.09,5.85,10.25,19,10.25A105.45,105.45,0,0,0,164.66,55v9c-1.37,0-2.41.07-6.12.21-1.52.07-6.13.21-7.78.21-16.58,0-25.53-5.78-25.53-16.52,0-9.56,7.91-15.62,20.44-15.62a27.75,27.75,0,0,1,13.56,3c-1.17-2.14-4-7.5-6.82-13.15h-25.8a18.4,18.4,0,0,0-3.44.35Z"/><path class="cls-1" d="M186.55,46.37c.62-1.58,2.55-18.93,3.24-28.91l9.08,1a9.48,9.48,0,0,0-.41,1.72c-.07.34-.07.48-.21,1.92-.41,4.48-1.58,13.56-2.34,18.1,5.57-6.05,12.66-9.08,21.54-9.08,12.73,0,20.16,5.44,20.16,14.73,0,6.53-2.82,11.14-8.87,14.31s-12.53,4.4-24.09,4.47c-1.51.07-1.65.07-2.62.14L201.42,62a17,17,0,0,0,2.61.21c6.06,0,12.94-1.79,17.14-4.41a13.31,13.31,0,0,0,6.67-11.9c0-7.23-5.09-11.77-13.21-11.77-6.54,0-14.18,4.2-18.1,10a10.86,10.86,0,0,0-1.65,3.23ZM217,20.63C211.81,16,201.21,10.45,195,9.21l2-4.06a11.66,11.66,0,0,0,2.48.68c7.57,1.73,18.65,5.37,21.95,7.3Z"/><path class="cls-1" d="M247.87,61.78a5.87,5.87,0,0,0-.07-1.17v-.34l-.07-1.38c-.34-5.64-.55-12-.55-15.14,0-5.71.9-20.3,1.86-30.76a16,16,0,0,0,.14-1.92v-.42l9.22,1.17c-1.24,3.58-2.54,19.61-2.54,30.83,0,4.27.34,12.18.61,14.94a1.75,1.75,0,0,1,.07.48v.2A21,21,0,0,0,257,61Zm51.2-1.3c-1.51,0-2,0-5,.13-3.37.21-6.26.28-9.09.28-7.7,0-12-.76-15.69-2.75-4.4-2.41-6.67-6.47-6.67-11.77a17.05,17.05,0,0,1,5.23-11.63,9.34,9.34,0,0,0,1.51-2l2.27,1.86a13.14,13.14,0,0,0-4.67,9.77c0,5.85,5,8.26,17,8.26,3.24,0,3.24,0,9.64-.41a34.92,34.92,0,0,0,5.5-.76ZM269.76,18.29a20.65,20.65,0,0,0-3.44.34V15.19a19.11,19.11,0,0,0,3.44.35H293a38,38,0,0,0,4.75-.35v3.17a46.57,46.57,0,0,0-18.86,9l-1.65-1.72a61.12,61.12,0,0,1,10.32-7.3Z"/><path class="cls-1" d="M335.89,40.66c3.86-2.62,7.16-5,10.19-7.5l1.51-1.59,9,5.44L354,37.9a143.52,143.52,0,0,1-16.31,6.75c4.06-.07,8-.14,9.23-.14,7-.07,7.29-.07,9.7-.14-.69-1-1.17-1.58-2.07-2.75l-1-1,2-1.93,1.17.83c4.47,2.47,6.81,3.85,10.66,6.19l1.79.82-7.64,6.82-.82-1.72c-1-2.14-1.17-2.41-2.41-4.61-3.51.55-8,1.17-13.7,1.92l-2.47.35V61.92a27.75,27.75,0,0,0,.34,4.13H332.39l.06-.69a21.14,21.14,0,0,0,.28-3.44V50.5l-2.55.27-1.1.14-1.86.28-4.19.48,6.67,5-2.55,1c-3.71,2.34-9.42,4.61-16.58,6.68l-1.51.69-1.38-2.34,1.44-.62a48.08,48.08,0,0,0,11.63-10.12l-3.23.35-1,.13-4.2.49-2.41.48-2.34-9.22,2.75.27c2.69.07,4.55.14,5.37.14h3.85l8.68.07a67.2,67.2,0,0,0-10.74-8.19l-1.17-.62,1.86-2.27.82.48c2.62.89,3.65,1.31,7,2.68a53,53,0,0,0,5.1-6.81l.48-.83H311.88a29.82,29.82,0,0,0-4.13.28v-3.3a30.6,30.6,0,0,0,4.13.27h20.71V21H318.14a29.92,29.92,0,0,0-4.13.28V18a30.6,30.6,0,0,0,4.13.27h14.45v-5H314.84a31.33,31.33,0,0,0-4.13.27v-3.3a29.14,29.14,0,0,0,4.13.28h17.75V8.11A22.46,22.46,0,0,0,332.25,4h10.39a26.71,26.71,0,0,0-.35,4.13v2.34H360.6a28.57,28.57,0,0,0,4.13-.28v3.3a30,30,0,0,0-4.13-.27H342.29v5h14.87a30,30,0,0,0,4.13-.27v3.3a28.57,28.57,0,0,0-4.13-.28H342.29v5.37h21.2a30,30,0,0,0,4.13-.27v3.3a28.57,28.57,0,0,0-4.13-.28H334L340.3,33l-1.93.89a58,58,0,0,1-7.77,3.86l-.9.41.21.07.62.27,2,.76Zm13.63,9.77a125.66,125.66,0,0,1,15,6l1.72.55L359,65.29l-1.17-1.58a83.88,83.88,0,0,0-10.12-11.15l-1-.76,1.72-2.13Z"/><path class="cls-1" d="M396.39,50.77a27.19,27.19,0,0,0,.34,5.16c-1.44-.13-2.54-.2-4.06-.2H381.53a40.15,40.15,0,0,0-5.17.2,25.78,25.78,0,0,0,.35-5.16V14.44a27.09,27.09,0,0,0-.35-5.16,49.53,49.53,0,0,0,5.17.2h10a38.35,38.35,0,0,0,5.16-.2,27.19,27.19,0,0,0-.34,5.16ZM389,30.88V12.23h-4.68V30.88Zm-4.68,2.76V53H389V33.64Zm37.5-14.25h7.64a27.69,27.69,0,0,0,4.06-.27v3.3a27.64,27.64,0,0,0-4.06-.28h-7.64v5.37h11.63a29.9,29.9,0,0,0,4.13-.27v3.3a28.47,28.47,0,0,0-4.13-.28H402.17a27,27,0,0,0-4.06.28v-3.3a30.33,30.33,0,0,0,4.06.27h11.08V22.14h-7.36a29.82,29.82,0,0,0-4.13.28v-3.3a30.6,30.6,0,0,0,4.13.27h7.36V14.51h-9.57a29.57,29.57,0,0,0-4.12.27v-3.3a30.56,30.56,0,0,0,4.12.27h9.57V8.24a22.58,22.58,0,0,0-.34-4.13h9.29a26.8,26.8,0,0,0-.35,4.13v3.51h10a28.34,28.34,0,0,0,4.06-.27v3.3a28.2,28.2,0,0,0-4.06-.27h-10ZM410.08,53.94v8a28.57,28.57,0,0,0,.28,4.13h-8.6l.07-.69a22.21,22.21,0,0,0,.27-3.44V39.07a21.49,21.49,0,0,0-.34-4.19,49.9,49.9,0,0,0,5,.2h21.75a38.43,38.43,0,0,0,5.16-.2,24.67,24.67,0,0,0-.35,5.09V60.75c0,3.17-1.51,4.89-4.33,4.89a27.52,27.52,0,0,1-8.67-1.79l-2.75-.62-.35-2.82a56.32,56.32,0,0,0,5.92.41c1.51,0,2.06-.55,2.06-2.06V53.94Zm15.14-16.11H410.08v5h15.14Zm0,7.78H410.08v5.58h15.14Z"/><path class="cls-1" d="M446,46.37c.62-1.58,2.55-18.93,3.24-28.91l9.08,1a11.64,11.64,0,0,0-.41,1.72c-.07.34-.07.48-.21,1.92-.41,4.48-1.58,13.56-2.34,18.1,5.58-6.05,12.66-9.08,21.54-9.08,12.73,0,20.17,5.44,20.17,14.73,0,6.53-2.83,11.14-8.88,14.31s-12.53,4.4-24.09,4.47c-1.51.07-1.65.07-2.61.14L460.88,62a17.08,17.08,0,0,0,2.61.21c6.06,0,12.94-1.79,17.14-4.41a13.31,13.31,0,0,0,6.67-11.9c0-7.23-5.09-11.77-13.21-11.77-6.54,0-14.18,4.2-18.1,10a11.36,11.36,0,0,0-1.65,3.23ZM476.5,20.63c-5.23-4.68-15.83-10.18-22-11.42l2-4.06a11.66,11.66,0,0,0,2.48.68c7.57,1.73,18.65,5.37,21.95,7.3Z"/><path class="cls-1" d="M554.47,37.42a13.91,13.91,0,0,0-.82,2.07c-2.07,7.57-4.41,12.25-8,16.31-4.68,5.09-10.67,7.63-18.17,7.63-5.85,0-10.6-1.3-13.83-3.71-3.86-3-5.3-6.81-5.3-14.11,0-3.1,0-3.1.48-23.53l.14-5.23c.07-2.21.14-3.51.14-3.86v-.62a18.15,18.15,0,0,0-.35-3.44h10.05c-.69,3-1.1,17-1.1,35,0,6.33.41,8.26,2.2,10.67,2.06,2.68,5.37,4.06,9.7,4.06,8.26,0,15.07-5.09,19.34-14.45a23.35,23.35,0,0,0,2.41-8.12Z"/><path class="cls-1" d="M590.75,43.75a7,7,0,0,0-1.31,3c-1.38,4.41-3.86,9.77-5.64,12-2,2.47-4.34,3.78-6.89,3.78-4.13,0-8-3.3-10.53-9.15-3.51-8-4.81-17.14-4.81-33.72v-2a30.94,30.94,0,0,0-.21-4.06l9.57.62a28,28,0,0,0-.35,4.82V23c.14,12.94.83,18.79,2.82,24.36,1.72,4.68,3.86,7,6.33,7,1.93,0,3.45-1.31,5.51-5A20.76,20.76,0,0,0,588,42.24Zm18.51,8c-.35-12.11-7-27.8-13.7-32.48l3.31-2.82a1.77,1.77,0,0,0,.41.41l1,.83C609.88,26,615.45,34.53,618.75,46c.14.49.21.76.56,2l.2.62Z"/><path class="cls-1" d="M688.27,55.8l-7.92,9.63-2.2-2.2q-15.37-13.11-18-35.24c-2.55,16.93-11.91,28.49-29.39,36.2l-2.2,1.31-1.65-2.75,2.27-.9c15.42-10.8,22-25.74,21.54-49.13V10.31a22.52,22.52,0,0,0-.34-4.13h11.42a27.75,27.75,0,0,0-.34,4.13v2c-.28,18.1,7.91,32.76,23.46,42Z"/><path class="cls-1" d="M721.79,21.8V9.14A21.89,21.89,0,0,0,721.44,5h11a27.75,27.75,0,0,0-.34,4.13V21.8H748a29.9,29.9,0,0,0,4.13-.27v3.3a28.47,28.47,0,0,0-4.13-.28H732.11V39.62h13.55a28.42,28.42,0,0,0,4.13-.27v3.3a29.9,29.9,0,0,0-4.13-.27H732.11V60.13h19.82a30,30,0,0,0,4.13-.27v3.3a28.57,28.57,0,0,0-4.13-.28H700.8a29.82,29.82,0,0,0-4.13.28v-3.3a30.6,30.6,0,0,0,4.13.27h21V42.38H708.85a31.33,31.33,0,0,0-4.13.27v-3.3a29.05,29.05,0,0,0,4.13.27h12.94V24.55H710.36a58,58,0,0,1-11.08,14.73l-1.51,1.93-2.2-1.65,1.44-2c3.79-6.81,6.81-17.2,7.92-27.6l.27-3.16,11.49,2.75-1.37,3.17a73.46,73.46,0,0,1-3.51,9.08Z"/><path class="cls-1" d="M763.7,16.64a29.05,29.05,0,0,0,4.13.27h12.73c4.75-9.08,5.57-10.87,6.13-12.8L795.56,8a12,12,0,0,0-1.72,2.54c-.69,1.24-1.37,2.48-2.82,5l-.83,1.37H809.6a28.51,28.51,0,0,0,4.13-.27v3.3a30,30,0,0,0-4.13-.27h-21l-1.44,2.41c-3.17,5.29-4.2,7-5.44,8.8a15.8,15.8,0,0,1,10.39-3.57c6.26,0,10.32,2.27,12.66,7.08,6.27-2,7.5-2.34,13.35-3.92a6.27,6.27,0,0,0,2.14-.89l1,3.37c-2.61.21-7,1.31-15.62,4a22.47,22.47,0,0,1,.69,6v3.71a19.38,19.38,0,0,0,.34,3.44h-9.36a15,15,0,0,0,.35-3.44V42.93c0-.9,0-1.52-.07-2.69l-.07-.62a14.45,14.45,0,0,1-1.45.55c-8.53,3-12,6-12,10.6s3.58,6,14.73,6a123.22,123.22,0,0,0,17-1v8.53c-1,0-1.17,0-2.27.07l-2.2.07-1.86.07c-2.89.13-3,.13-4.88.13-8.67,0-13.42-.34-16.59-1.17-6.19-1.58-9.49-5.29-9.49-10.59,0-7.09,5-11.36,18.71-16-1.17-4.88-3-6.54-7-6.54A14.65,14.65,0,0,0,779.18,36a38.65,38.65,0,0,0-5.57,9.15L766,40.52c3-3.65,7.3-10.46,13.08-20.85H767.83a31.44,31.44,0,0,0-4.13.27Z"/><path class="cls-1" d="M843.46,57.1a6.4,6.4,0,1,1-6.4-6.4A6.53,6.53,0,0,1,843.46,57.1Zm-3.92-11.21c.21-.83.76-2.83.9-3.51l7.08-32.14.07-.34c0-.14.14-.56.21-1.11.21-1,.41-2.06.55-2.75l12.59,5.09a14.1,14.1,0,0,0-1.3,2.27c-.35.56-.62,1.11-.9,1.59L843.53,43.41c-.62,1.17-1.37,2.41-2,3.37Z"/><path class="cls-2" d="M36,43.62c5.65,1.51,10.67,3.44,19.62,7.22a22.79,22.79,0,0,0,2.27.9l-4.75,8.6C51,58,42,52.15,36,49.19V51c0,8.81-5.23,12.94-16.31,12.94C9.06,63.92,3,59.79,3,52.49S9.12,41,19.72,41a47.58,47.58,0,0,1,7.16.62V9.69a15.59,15.59,0,0,0-.34-3.44h9.77A19.11,19.11,0,0,0,36,9.69V22.14H52.89a19.1,19.1,0,0,0,3.44-.34v3.44a15.59,15.59,0,0,0-3.44-.34H36Zm-9.08,2.06A36.9,36.9,0,0,0,16.63,44C10,44,5.89,47.26,5.89,52.42S10.5,61,17.52,61c6.61,0,9.36-2.89,9.36-9.84Z"/><path class="cls-2" d="M70.52,46.92a33.54,33.54,0,0,0-.28-3.86,125.42,125.42,0,0,1-.69-13.21,145.42,145.42,0,0,1,1.1-18.92,12.7,12.7,0,0,0,.28-2.27l9.29,1.44c-1.1,2.75-1.72,10-1.72,20.16,0,6.61.55,12.87,1.31,15.35Zm9.22,16.45c4.33,0,11.28-3.72,15.21-8.06,5.29-6,7.22-12.38,7.22-24.15A143.62,143.62,0,0,0,101.07,12l-.07-.28-.07-.48a8.06,8.06,0,0,0-.34-1.65L110.5,9a2.1,2.1,0,0,0-.07.62c0,.28.07,1,.14,1.72.41,3.92.89,14.93.89,20.3,0,10.53-1.93,17.14-6.74,22.78-4.61,5.44-11,8.74-21.13,10.87a15.86,15.86,0,0,0-2.89.83Z"/><path class="cls-2" d="M123.17,19.12a18.74,18.74,0,0,0,3.44.34H151c-1.1-2.13-1.59-3.16-2.21-4.47-2.13-4.54-2.27-4.75-3.44-6.47l8.47-3.44c.48,1.65,2.13,5.37,6.67,14.38h14a20,20,0,0,0,3.44-.34v3.44a15,15,0,0,0-3.44-.35H162c2.41,5,3,6,5.37,10.26L170,37.28A12.19,12.19,0,0,0,171.2,39L163,43.34c-2.34-5.3-9-8.6-17.27-8.6s-14.25,4.61-14.25,10.94c0,7.09,5.85,10.25,19,10.25A105.45,105.45,0,0,0,164.66,55v9c-1.37,0-2.41.07-6.12.21-1.52.07-6.13.21-7.78.21-16.58,0-25.53-5.78-25.53-16.52,0-9.56,7.91-15.62,20.44-15.62a27.75,27.75,0,0,1,13.56,3c-1.17-2.14-4-7.5-6.82-13.15h-25.8a18.4,18.4,0,0,0-3.44.35Z"/><path class="cls-2" d="M186.55,46.37c.62-1.58,2.55-18.93,3.24-28.91l9.08,1a9.48,9.48,0,0,0-.41,1.72c-.07.34-.07.48-.21,1.92-.41,4.48-1.58,13.56-2.34,18.1,5.57-6.05,12.66-9.08,21.54-9.08,12.73,0,20.16,5.44,20.16,14.73,0,6.53-2.82,11.14-8.87,14.31s-12.53,4.4-24.09,4.47c-1.51.07-1.65.07-2.62.14L201.42,62a17,17,0,0,0,2.61.21c6.06,0,12.94-1.79,17.14-4.41a13.31,13.31,0,0,0,6.67-11.9c0-7.23-5.09-11.77-13.21-11.77-6.54,0-14.18,4.2-18.1,10a10.86,10.86,0,0,0-1.65,3.23ZM217,20.63C211.81,16,201.21,10.45,195,9.21l2-4.06a11.66,11.66,0,0,0,2.48.68c7.57,1.73,18.65,5.37,21.95,7.3Z"/><path class="cls-2" d="M247.87,61.78a5.87,5.87,0,0,0-.07-1.17v-.34l-.07-1.38c-.34-5.64-.55-12-.55-15.14,0-5.71.9-20.3,1.86-30.76a16,16,0,0,0,.14-1.92v-.42l9.22,1.17c-1.24,3.58-2.54,19.61-2.54,30.83,0,4.27.34,12.18.61,14.94a1.75,1.75,0,0,1,.07.48v.2A21,21,0,0,0,257,61Zm51.2-1.3c-1.51,0-2,0-5,.13-3.37.21-6.26.28-9.09.28-7.7,0-12-.76-15.69-2.75-4.4-2.41-6.67-6.47-6.67-11.77a17.05,17.05,0,0,1,5.23-11.63,9.34,9.34,0,0,0,1.51-2l2.27,1.86a13.14,13.14,0,0,0-4.67,9.77c0,5.85,5,8.26,17,8.26,3.24,0,3.24,0,9.64-.41a34.92,34.92,0,0,0,5.5-.76ZM269.76,18.29a20.65,20.65,0,0,0-3.44.34V15.19a19.11,19.11,0,0,0,3.44.35H293a38,38,0,0,0,4.75-.35v3.17a46.57,46.57,0,0,0-18.86,9l-1.65-1.72a61.12,61.12,0,0,1,10.32-7.3Z"/><path class="cls-2" d="M335.89,40.66c3.86-2.62,7.16-5,10.19-7.5l1.51-1.59,9,5.44L354,37.9a143.52,143.52,0,0,1-16.31,6.75c4.06-.07,8-.14,9.23-.14,7-.07,7.29-.07,9.7-.14-.69-1-1.17-1.58-2.07-2.75l-1-1,2-1.93,1.17.83c4.47,2.47,6.81,3.85,10.66,6.19l1.79.82-7.64,6.82-.82-1.72c-1-2.14-1.17-2.41-2.41-4.61-3.51.55-8,1.17-13.7,1.92l-2.47.35V61.92a27.75,27.75,0,0,0,.34,4.13H332.39l.06-.69a21.14,21.14,0,0,0,.28-3.44V50.5l-2.55.27-1.1.14-1.86.28-4.19.48,6.67,5-2.55,1c-3.71,2.34-9.42,4.61-16.58,6.68l-1.51.69-1.38-2.34,1.44-.62a48.08,48.08,0,0,0,11.63-10.12l-3.23.35-1,.13-4.2.49-2.41.48-2.34-9.22,2.75.27c2.69.07,4.55.14,5.37.14h3.85l8.68.07a67.2,67.2,0,0,0-10.74-8.19l-1.17-.62,1.86-2.27.82.48c2.62.89,3.65,1.31,7,2.68a53,53,0,0,0,5.1-6.81l.48-.83H311.88a29.82,29.82,0,0,0-4.13.28v-3.3a30.6,30.6,0,0,0,4.13.27h20.71V21H318.14a29.92,29.92,0,0,0-4.13.28V18a30.6,30.6,0,0,0,4.13.27h14.45v-5H314.84a31.33,31.33,0,0,0-4.13.27v-3.3a29.14,29.14,0,0,0,4.13.28h17.75V8.11A22.46,22.46,0,0,0,332.25,4h10.39a26.71,26.71,0,0,0-.35,4.13v2.34H360.6a28.57,28.57,0,0,0,4.13-.28v3.3a30,30,0,0,0-4.13-.27H342.29v5h14.87a30,30,0,0,0,4.13-.27v3.3a28.57,28.57,0,0,0-4.13-.28H342.29v5.37h21.2a30,30,0,0,0,4.13-.27v3.3a28.57,28.57,0,0,0-4.13-.28H334L340.3,33l-1.93.89a58,58,0,0,1-7.77,3.86l-.9.41.21.07.62.27,2,.76Zm13.63,9.77a125.66,125.66,0,0,1,15,6l1.72.55L359,65.29l-1.17-1.58a83.88,83.88,0,0,0-10.12-11.15l-1-.76,1.72-2.13Z"/><path class="cls-2" d="M396.39,50.77a27.19,27.19,0,0,0,.34,5.16c-1.44-.13-2.54-.2-4.06-.2H381.53a40.15,40.15,0,0,0-5.17.2,25.78,25.78,0,0,0,.35-5.16V14.44a27.09,27.09,0,0,0-.35-5.16,49.53,49.53,0,0,0,5.17.2h10a38.35,38.35,0,0,0,5.16-.2,27.19,27.19,0,0,0-.34,5.16ZM389,30.88V12.23h-4.68V30.88Zm-4.68,2.76V53H389V33.64Zm37.5-14.25h7.64a27.69,27.69,0,0,0,4.06-.27v3.3a27.64,27.64,0,0,0-4.06-.28h-7.64v5.37h11.63a29.9,29.9,0,0,0,4.13-.27v3.3a28.47,28.47,0,0,0-4.13-.28H402.17a27,27,0,0,0-4.06.28v-3.3a30.33,30.33,0,0,0,4.06.27h11.08V22.14h-7.36a29.82,29.82,0,0,0-4.13.28v-3.3a30.6,30.6,0,0,0,4.13.27h7.36V14.51h-9.57a29.57,29.57,0,0,0-4.12.27v-3.3a30.56,30.56,0,0,0,4.12.27h9.57V8.24a22.58,22.58,0,0,0-.34-4.13h9.29a26.8,26.8,0,0,0-.35,4.13v3.51h10a28.34,28.34,0,0,0,4.06-.27v3.3a28.2,28.2,0,0,0-4.06-.27h-10ZM410.08,53.94v8a28.57,28.57,0,0,0,.28,4.13h-8.6l.07-.69a22.21,22.21,0,0,0,.27-3.44V39.07a21.49,21.49,0,0,0-.34-4.19,49.9,49.9,0,0,0,5,.2h21.75a38.43,38.43,0,0,0,5.16-.2,24.67,24.67,0,0,0-.35,5.09V60.75c0,3.17-1.51,4.89-4.33,4.89a27.52,27.52,0,0,1-8.67-1.79l-2.75-.62-.35-2.82a56.32,56.32,0,0,0,5.92.41c1.51,0,2.06-.55,2.06-2.06V53.94Zm15.14-16.11H410.08v5h15.14Zm0,7.78H410.08v5.58h15.14Z"/><path class="cls-2" d="M446,46.37c.62-1.58,2.55-18.93,3.24-28.91l9.08,1a11.64,11.64,0,0,0-.41,1.72c-.07.34-.07.48-.21,1.92-.41,4.48-1.58,13.56-2.34,18.1,5.58-6.05,12.66-9.08,21.54-9.08,12.73,0,20.17,5.44,20.17,14.73,0,6.53-2.83,11.14-8.88,14.31s-12.53,4.4-24.09,4.47c-1.51.07-1.65.07-2.61.14L460.88,62a17.08,17.08,0,0,0,2.61.21c6.06,0,12.94-1.79,17.14-4.41a13.31,13.31,0,0,0,6.67-11.9c0-7.23-5.09-11.77-13.21-11.77-6.54,0-14.18,4.2-18.1,10a11.36,11.36,0,0,0-1.65,3.23ZM476.5,20.63c-5.23-4.68-15.83-10.18-22-11.42l2-4.06a11.66,11.66,0,0,0,2.48.68c7.57,1.73,18.65,5.37,21.95,7.3Z"/><path class="cls-2" d="M554.47,37.42a13.91,13.91,0,0,0-.82,2.07c-2.07,7.57-4.41,12.25-8,16.31-4.68,5.09-10.67,7.63-18.17,7.63-5.85,0-10.6-1.3-13.83-3.71-3.86-3-5.3-6.81-5.3-14.11,0-3.1,0-3.1.48-23.53l.14-5.23c.07-2.21.14-3.51.14-3.86v-.62a18.15,18.15,0,0,0-.35-3.44h10.05c-.69,3-1.1,17-1.1,35,0,6.33.41,8.26,2.2,10.67,2.06,2.68,5.37,4.06,9.7,4.06,8.26,0,15.07-5.09,19.34-14.45a23.35,23.35,0,0,0,2.41-8.12Z"/><path class="cls-2" d="M590.75,43.75a7,7,0,0,0-1.31,3c-1.38,4.41-3.86,9.77-5.64,12-2,2.47-4.34,3.78-6.89,3.78-4.13,0-8-3.3-10.53-9.15-3.51-8-4.81-17.14-4.81-33.72v-2a30.94,30.94,0,0,0-.21-4.06l9.57.62a28,28,0,0,0-.35,4.82V23c.14,12.94.83,18.79,2.82,24.36,1.72,4.68,3.86,7,6.33,7,1.93,0,3.45-1.31,5.51-5A20.76,20.76,0,0,0,588,42.24Zm18.51,8c-.35-12.11-7-27.8-13.7-32.48l3.31-2.82a1.77,1.77,0,0,0,.41.41l1,.83C609.88,26,615.45,34.53,618.75,46c.14.49.21.76.56,2l.2.62Z"/><path class="cls-2" d="M688.27,55.8l-7.92,9.63-2.2-2.2q-15.37-13.11-18-35.24c-2.55,16.93-11.91,28.49-29.39,36.2l-2.2,1.31-1.65-2.75,2.27-.9c15.42-10.8,22-25.74,21.54-49.13V10.31a22.52,22.52,0,0,0-.34-4.13h11.42a27.75,27.75,0,0,0-.34,4.13v2c-.28,18.1,7.91,32.76,23.46,42Z"/><path class="cls-2" d="M721.79,21.8V9.14A21.89,21.89,0,0,0,721.44,5h11a27.75,27.75,0,0,0-.34,4.13V21.8H748a29.9,29.9,0,0,0,4.13-.27v3.3a28.47,28.47,0,0,0-4.13-.28H732.11V39.62h13.55a28.42,28.42,0,0,0,4.13-.27v3.3a29.9,29.9,0,0,0-4.13-.27H732.11V60.13h19.82a30,30,0,0,0,4.13-.27v3.3a28.57,28.57,0,0,0-4.13-.28H700.8a29.82,29.82,0,0,0-4.13.28v-3.3a30.6,30.6,0,0,0,4.13.27h21V42.38H708.85a31.33,31.33,0,0,0-4.13.27v-3.3a29.05,29.05,0,0,0,4.13.27h12.94V24.55H710.36a58,58,0,0,1-11.08,14.73l-1.51,1.93-2.2-1.65,1.44-2c3.79-6.81,6.81-17.2,7.92-27.6l.27-3.16,11.49,2.75-1.37,3.17a73.46,73.46,0,0,1-3.51,9.08Z"/><path class="cls-2" d="M763.7,16.64a29.05,29.05,0,0,0,4.13.27h12.73c4.75-9.08,5.57-10.87,6.13-12.8L795.56,8a12,12,0,0,0-1.72,2.54c-.69,1.24-1.37,2.48-2.82,5l-.83,1.37H809.6a28.51,28.51,0,0,0,4.13-.27v3.3a30,30,0,0,0-4.13-.27h-21l-1.44,2.41c-3.17,5.29-4.2,7-5.44,8.8a15.8,15.8,0,0,1,10.39-3.57c6.26,0,10.32,2.27,12.66,7.08,6.27-2,7.5-2.34,13.35-3.92a6.27,6.27,0,0,0,2.14-.89l1,3.37c-2.61.21-7,1.31-15.62,4a22.47,22.47,0,0,1,.69,6v3.71a19.38,19.38,0,0,0,.34,3.44h-9.36a15,15,0,0,0,.35-3.44V42.93c0-.9,0-1.52-.07-2.69l-.07-.62a14.45,14.45,0,0,1-1.45.55c-8.53,3-12,6-12,10.6s3.58,6,14.73,6a123.22,123.22,0,0,0,17-1v8.53c-1,0-1.17,0-2.27.07l-2.2.07-1.86.07c-2.89.13-3,.13-4.88.13-8.67,0-13.42-.34-16.59-1.17-6.19-1.58-9.49-5.29-9.49-10.59,0-7.09,5-11.36,18.71-16-1.17-4.88-3-6.54-7-6.54A14.65,14.65,0,0,0,779.18,36a38.65,38.65,0,0,0-5.57,9.15L766,40.52c3-3.65,7.3-10.46,13.08-20.85H767.83a31.44,31.44,0,0,0-4.13.27Z"/><path class="cls-2" d="M843.46,57.1a6.4,6.4,0,1,1-6.4-6.4A6.53,6.53,0,0,1,843.46,57.1Zm-3.92-11.21c.21-.83.76-2.83.9-3.51l7.08-32.14.07-.34c0-.14.14-.56.21-1.11.21-1,.41-2.06.55-2.75l12.59,5.09a14.1,14.1,0,0,0-1.3,2.27c-.35.56-.62,1.11-.9,1.59L843.53,43.41c-.62,1.17-1.37,2.41-2,3.37Z"/></svg>